<svg enable-background="new 0 0 187.2 50.5" viewBox="0 0 187.2 50.5" xmlns="http://www.w3.org/2000/svg" xmlns:xlink="http://www.w3.org/1999/xlink"><clipPath id="a"><path d="m35 8.9h117.3v30h-117.3z"/></clipPath><g fill="#c3b09f"><path clip-path="url(#a)" d="m69.2 9.3c5.7 0 7.3 6.3 7.3 14 0 10.2-1.9 15.2-7.3 15.1-5.4 0-7.2-4.1-7.2-15.1 0-6.9 1.4-14 7.2-14m0-.3c-6.8 0-12.4 7.6-12.4 14.3 0 7 4.1 15.5 12.4 15.4s12.6-9.2 12.6-15.4c0-6.9-5.8-14.3-12.6-14.3"/><path clip-path="url(#a)" d="m84.1 23.5c-.1-7.5 6-14.2 11.1-14.5 1.8-.1 4.2.7 5.6 1.3 1 .4 3.1-.2 3.4-1.4h.2v10.3h-.2c0-.4-1.9-10-9-10-5.3 0-5.8 9.2-5.8 14.3s.2 15 6.3 15c3 0 5.2-1.3 5.7-3.9v-8h-2.4v-.3h9.7v.3h-2.4v11.7h-.3s-.4-1.7-2.4-1.7c-2.5 0-4.9 2.2-7.8 2.2-7.5-.1-11.7-7.8-11.7-15.3"/><path clip-path="url(#a)" d="m38 10.1h-3v-.4h10.6v.3h-2.6l7.5 20.5c2.4-7.3 4.2-12.6 6.6-20.5h-2.6v-.3h5.5v.3h-2.5l-9.2 28.6z"/><path clip-path="url(#a)" d="m110.1 31.6v-21.6h-2.9v-.3h10.6v.3h-2.9l.1 23.7c.6 2.7 1.8 4.8 5.6 4.8 3.9 0 6.5-2.3 7.4-5.4v-23.1h-3.3v-.3h26.8l.1 10.4h-.3c-.5-6.7-3.1-9.2-7.6-10-1.6-.3-3.2-.1-5.2-.1v13.2c1.8.1 3.7 0 5-1.1 1.2-1 1.5-3.3 1.6-4.3h.2v11.5h-.2c-.1 0-.2-2.9-1.6-4.3s-3.2-1.7-5-1.4v14.1c2.5 0 4.5.2 6.3-.3 5.3-1.5 7.2-5.9 7.1-10.4h.3v11h-21.1v-.3h2.4v-27.7h-5.1v23.1c-.6 2.2-2.7 5.9-8.2 5.8-5 0-10.1-2.3-10.1-7.3z"/></g></svg>