<svg enable-background="new 0 0 187.2 50.5" viewBox="0 0 187.2 50.5" xmlns="http://www.w3.org/2000/svg" xmlns:xlink="http://www.w3.org/1999/xlink"><clipPath id="a"><path d="m12.5 5h162.3v37.7h-162.3z"/></clipPath><clipPath id="b"><path d="m12.5 5h162.3v37.7h-162.3z"/></clipPath><g fill="#c3b09f"><path clip-path="url(#a)" d="m50.3 27.6c-2.9.3-3.9.9-3.9 3 0 1.8 1.1 2.6 2.4 2.6 1.4 0 2.3-.5 3-1.3v-4.5zm-5.3-10.1c1.6-.6 3.1-.9 4.8-.9 2.9 0 4.8.8 5.8 2.3.7 1 1 2.2 1 4.8v7.3c0 1.2.9 1.8 1.8 2l-1.9 3.5c-.6-.1-1.2-.2-1.8-.4-1-.4-1.8-1.1-2.2-2.1-.3.5-.7.9-1 1.2-1 1-2.4 1.4-3.7 1.4-3.7 0-6.2-1.8-6.2-5.7 0-4 2.5-6 8.2-6.2.2 0 1.9-.2 2-.1v-1.1c0-2.3-.4-2.8-2.6-2.8-1.8 0-3.3.7-5.5 1.7l-1.4-3.5c1-.7 1.6-1 2.7-1.4"/><path d="m59.9 7.5h4.8v28.6h-4.8z"/><path d="m67.7 7.5h4.8v28.6h-4.8z"/><path d="m37.6 11.4-3.6 18.3-3.7-18.3h-5.2l-3.6 18.4-3.6-18.4h-5.4l6.1 24.7h5.5l3.5-17.5 3.4 17.5h5.4l6.2-24.7z"/><path clip-path="url(#b)" d="m102.1 27.6c-3 .3-3.9.9-3.9 3 0 1.8 1.1 2.6 2.4 2.6 1.4 0 2.3-.5 3-1.3v-4.5zm-5.3-10.1c1.6-.6 3.1-.9 4.8-.9 2.9 0 4.8.8 5.8 2.3.7 1 1 2.2 1 4.8v7.3c0 1.2.9 1.8 1.8 2l-1.9 3.5c-.6-.1-1.3-.2-1.9-.5-.9-.4-1.8-1.1-2.1-2.1-.3.5-.7.9-1 1.2-1 1-2.4 1.4-3.7 1.4-3.7 0-6.2-1.8-6.2-5.7 0-4 2.5-6 8.2-6.2.2 0 1.9-.2 2-.1v-1.1c0-2.3-.4-2.8-2.6-2.8-1.8 0-3.3.7-5.5 1.7l-1.4-3.5c.9-.6 1.5-.9 2.7-1.3"/><path clip-path="url(#b)" d="m141.7 24.8v-.3c0-2.6-.7-4.4-3.1-4.4-1.9 0-3.2 1.1-3.3 4.7zm4.8 9.7c-1.7 1.2-4.1 2.1-6.8 2.1-5.8 0-9.3-3.7-9.3-10 0-3.3.8-5.6 2.3-7.4 1.6-1.8 3.7-2.6 6.3-2.6 2.5 0 4.5.8 5.7 2.2 1.5 1.7 2.2 4.2 2.2 7.7v1.6h-11.4c0 3.4 2.1 4.6 4.6 4.6 1.9 0 3.7-.5 5.4-1.5z"/><path clip-path="url(#b)" d="m158.1 16.6c.9 0 1.4.1 2.1.4l-1 4.3c-.5-.2-1.2-.3-2-.3-1.3 0-2.5.5-3.6 1.3v13.7h-4.9v-14c0-1.2-.1-4.2-.3-4.7l3.8-.6c.2.4 1.1 2.6 1.2 3.2.7-1.2 1.7-2.3 2.8-2.9.5-.2 1.4-.4 1.9-.4"/><path clip-path="url(#b)" d="m83.5 33.1c1.4 0 2.3-.2 2.9-1.4.5-1 .8-2.9.8-5.6 0-2-.3-3.5-.7-4.3-.5-.9-1.4-1.3-2.6-1.3-1.4 0-2.5.5-3.6 1.4v10.1c.7.5 1.9 1.1 3.2 1.1m-4.4-16.3c.3.5.9 2.2.9 2.5 1.1-1.9 3.3-2.7 5.1-2.7 1.5 0 2.9.4 3.9 1.2 2.1 1.4 3.3 4.1 3.3 8.4 0 4-.9 6.7-2.8 8.5-1.3 1.2-3 1.8-5 1.8-1.9 0-3.4-.6-4.3-1.4v1.8 5.8h-4.7v-20.6c0-1.2-.1-4.2-.3-4.7z"/><path clip-path="url(#b)" d="m119.8 33.1c1.4 0 2.3-.2 2.9-1.4.5-1 .8-2.9.8-5.6 0-2-.2-3.5-.7-4.3-.5-.9-1.4-1.3-2.6-1.3-1.4 0-2.5.5-3.6 1.4v10.1c.7.5 1.8 1.1 3.2 1.1m-4.4-16.3c.3.5.9 2.2.9 2.5 1.1-1.9 3.3-2.7 5.1-2.7 1.5 0 2.9.4 3.9 1.2 2.1 1.4 3.3 4.1 3.3 8.4 0 4-.9 6.7-2.8 8.5-1.3 1.2-3 1.8-5 1.8-1.9 0-3.4-.6-4.3-1.4v1.8 5.8h-4.7v-20.6c0-1.2-.1-4.2-.3-4.7z"/><path d="m165.7 5v4.9l-4.6-1.5-1.1 3.3 4.6 1.5-2.8 4 2.8 2 2.8-3.9.7 1-.5-2.7-.3-1.4 3.5 2-.7-1 4.6-1.5-1-3.3-4.7 1.5v-4.9z"/><path d="m169 17.5.6 3.4 1.5-1.9 2 2.8 1.3-1-2-2.8 2.3-.9-3-1.7-3.5-1.9z"/></g></svg>