<svg enable-background="new 0 0 73 50.5" viewBox="0 0 73 50.5" xmlns="http://www.w3.org/2000/svg" xmlns:xlink="http://www.w3.org/1999/xlink"><clipPath id="a"><path d="m7.4 4.9h53.9v37.9h-53.9z"/></clipPath><path clip-path="url(#a)" d="m18.2 19.9 1-3.3.5-1.6c0-.1.2-.5.3-.9s.2-.7.4-1l4.9 16.5h-9.7c.8-2.9 2-7.4 2.6-9.7m36.7 5.2c-.1 6.7-1 9.5-2.4 11.8-2.3 3.8-3.4 5.2-9.5 5.3v-34.7c6 0 8.7 2.2 10.9 9.1.8 2 1 4.6 1 8.5m3-12.5c-1.9-2.7-3.9-4.2-6.9-5-1.9-.5-4.6-.8-7-.8h-10v.6h.1c2.6.7 3.3 1.7 3.3 4.7v21.4c0 4.8-.4 7.4-1.5 8.4-.4-.5-.7-1.3-1.1-2.4-.2-.4-.4-.9-.5-1.5-.5-1.2-1.3-3.5-1.6-4.1l-10-29-10 28.6c-.3.8-.9 2.5-.9 2.6-.5 1.5-1 2.4-1.6 3.4-.8 1.4-1.5 2.1-2.7 2.7l-.1.1v.5h10.8v-.6h-.1c-1.3-.1-2.7-1-2.9-2.6-.1-.5-.2-2.2-.2-2.8v-.1c0-1.3.1-3.8.7-6.6h10l1.5 5c.1.2.1.5.2.8.5 1.9.7 2.8.7 3.6 0 1.5-.8 2.3-2.6 2.6h-.1v.6h22.1c3.5 0 6-.9 8.1-2.7 3.5-3.1 5.6-8.8 5.6-15.2.1-4.7-1.2-9.1-3.3-12.2" fill="#c3b09f"/></svg>