<svg enable-background="new 0 0 1694.5 520" viewBox="0 0 1694.5 520" xmlns="http://www.w3.org/2000/svg"><path d="m0 0h9.7v14.4c0 6 1.5 8 5 8 2.6 0 3.7-2.2 3.7-5.6v-16.8h9.6v14.5c0 4.8.4 8 4.6 8 2.5 0 4.1-1.9 4.1-5.1v-17.4h9.7v17.7c0 5.6-1 12.8-10.4 12.8-4 0-6.9-1.7-9.2-4.8-1.6 3.6-4.9 4.8-8.6 4.8-3.6 0-6.7-1.9-8.5-4.9h-.3v4.1h-9.4zm77.3 29.6h-9.9l-5.6-19.3h-.1l-5.6 19.3h-10.3l7.7-20.6c.6-1.6 2.5-6.2 2.5-7.8 0-2.1-1.7-3.3-3.9-3.3h-3.4v-7.9h4.6c6.6 0 10 .8 12.4 7.3zm-1.7-19.8c.3-8.3 7.5-10.6 14.5-10.6 6.7 0 14.2 2.6 14.2 10.6 0 2.5-1.5 6.8-7.5 8-4.5 1-11 1.5-11 4.3 0 2.1 2.6 2.2 4.2 2.2 1.2 0 2.3-.2 3.1-.7s1.3-1.3 1.3-2.6h9c-.3 7.7-7.1 9.6-13.6 9.6-5.8 0-13.5-1.9-13.5-9.1 0-8 7.6-8.2 13.8-9.7 1.7-.4 4.7-.9 4.7-3.1 0-2.3-2.7-3.1-4.6-3.1-1.4 0-2.7.3-3.6 1-1 .7-1.6 1.8-1.6 3.3h-9.4zm39.2 8.1c.6 3.6 2.9 6 6.3 6 3.3 0 5.6-2.7 5.8-6zm21.7-5.5c.5 10-4.8 18-15.5 18-8.7 0-16-6.5-16-15.6 0-9.9 6.6-15.7 16.2-15.7 6.6 0 13 3 14.7 9.8h-8.9c-.9-2.2-3.2-3.3-5.5-3.3-4.1 0-6.4 2.7-6.6 6.7h21.6zm1.8-12.4h9.7v40.7h-9.7zm15.5 0h9.7v23.3h5.8v6.3h-5.8v1.3c0 2.7 1.4 3 3.6 3 .9 0 1.7-.1 2.6-.2v6.8c-1.5.1-3.1.2-4.7.2-8.3 0-11.2-2.6-11.2-11.1h-4.7v-6.3h4.7z" fill="#c3b09e" transform="matrix(9.8677719 0 0 -9.8677719 9.999016 412.02289)"/></svg>