<svg enable-background="new 0 0 300 130" viewBox="0 0 300 130" xmlns="http://www.w3.org/2000/svg" xmlns:xlink="http://www.w3.org/1999/xlink"><clipPath id="a"><path d="m-114.2-187.6h1537.4v1989.6h-1537.4z"/></clipPath><clipPath id="b"><path d="m-77.9-26.6h282v113.3h-282z"/></clipPath><g clip-path="url(#a)" transform="matrix(2.5120719 0 0 2.5120719 -8.39169 -9.735026)"><g clip-path="url(#b)" fill="#c3b09e"><path d="m101.4 34.7c0-.2 0-.4 1-.7s3.6-1.2 5.1-2c1.5-.9 1.8-1 2.2-.7.4.2.3.8.3 1.2v4.2c.6-.9 2.4-4 3.9-4.9 1.2-.7 1.6-.8 2.3-.8.9 0 2.9.5 3 2.7.1 1.7-1.2 2.4-2 2.3-.6-.1-1.1-.7-1.5-1.3s-1-.9-1.6-.7-4 2.4-4.2 5.5c-.1 2.3 0 9.4 0 9.4 0 1.1.4 1.5.9 1.8s2.2.3 2.7.4.5.2.5.3c0 .2 0 .2-.4.2h-11.9c-.4 0-.5-.1-.5-.3 0-.3.5-.3.9-.3.4-.1 2.4.1 3-.9.4-.7.4-1.7.4-1.7l-.1-12.5c0-1-.3-1.2-.6-1.3-.3-.2-.7-.2-1.7.1-.9.1-1.6.4-1.7 0"/><path d="m59.9 34.7c-.2-.3.1-.5 1-.7 1-.3 3.1-.9 4.8-1.9s2-1.1 2.4-.9c.4.1.3.8.3 1.3v16.2c0 .9.1 1.3.5 1.7s1.4.6 2.8.6c.6 0 .8.1.8.3s-.2.3-.4.3h-11.7c-.4 0-.4-.2-.4-.3 0-.2.2-.3.7-.3s2.6.2 3.1-.9c.2-.4.3-1 .3-1.6v-13c0-1-.8-1.4-1.6-1.2-1.2.2-2.4.8-2.6.4"/><path d="m65.9 23.5c1.6 0 2.9-1.3 2.9-2.9s-1.3-2.9-2.9-2.9-2.9 1.3-2.9 2.9 1.3 2.9 2.9 2.9"/><path d="m80.1 41.9c.6 5.3 3.7 9.4 7.6 8.7s5.8-4.4 5.4-10.4c-.5-6.1-3.5-9.1-7.5-8.7-4.2.4-6.1 5.1-5.5 10.4m3.8-11.3c5-.9 12.1.2 13.8 8 1.6 7.8-3.8 12-8.5 13-4.6 1-12.4.3-13.8-8.2-1.2-7.5 4.3-12 8.5-12.8"/><path d="m24.6 50.2h2.9c10.8 0 13.7-1 17.5-6.1s4.3-12.3 4.3-14.8-.7-8.6-4.5-13.8c-3.8-5.1-10.2-6.5-15.7-6.5h-4.5c-1.1 0-1.1.5-1.1 1.2v39c-.1.9.2 1 1.1 1m-17.6 1c0-.4.5-.5 1-.5 5.5-.2 6.5-.3 7.2-1 .3-.4.8-.7.8-3.2v-35.1c0-3.2-3.8-2.7-6.5-2.9-.9-.1-1-.2-1-.5s.2-.4.7-.4h22.2c24.4 0 25.6 17.8 25.6 22.6 0 10.2-6.8 21.4-20.9 21.4h-28.4c-.4 0-.7-.1-.7-.4"/></g></g></svg>