<svg enable-background="new 0 0 130.9 52.8" viewBox="0 0 130.9 52.8" xmlns="http://www.w3.org/2000/svg" xmlns:xlink="http://www.w3.org/1999/xlink"><clipPath id="a"><path d="m10 7.5h116.7v38.3h-116.7z"/></clipPath><g fill="#4a545c"><path clip-path="url(#a)" d="m125.1 42.6c.3-.1.6-.3.8-.5s.4-.5.6-.8c.1-.3.2-.7.2-1.2 0-.4-.1-.8-.2-1.1s-.3-.5-.5-.7-.4-.3-.6-.4-.5-.2-.7-.2c.3-.1.6-.2.9-.4s.5-.5.6-.8.2-.7.2-1.1c0-.7-.2-1.2-.6-1.5-.4-.4-.9-.5-1.5-.5-.4 0-.8.1-1.1.2s-.5.4-.7.6c-.2.3-.2.5-.2.8 0 .2.1.4.2.5s.3.1.5.1c0-.3 0-.7.1-.9.1-.3.2-.5.4-.7s.5-.2.8-.2c.4 0 .8.1 1 .4s.3.7.3 1.2c0 .4-.1.8-.2 1.1-.2.3-.4.5-.6.7-.3.2-.6.2-.9.2h-.4v.5h.4c.7 0 1.2.2 1.5.5.3.4.5.9.5 1.5 0 .5-.1.9-.2 1.2s-.4.5-.6.7-.5.2-.9.2c-.5 0-.9-.1-1.1-.4-.3-.3-.4-.7-.4-1.1-.2 0-.3.1-.4.2s-.2.3-.2.5.1.5.2.7c.2.2.4.4.7.5s.7.2 1.2.2c.3.2.6.1.9 0m-7.6-.8c-.2-.3-.4-.8-.5-1.4s-.2-1.4-.2-2.3.1-1.6.2-2.3c.1-.6.3-1.1.5-1.4s.6-.5 1-.5.7.2 1 .5c.2.3.4.8.5 1.4s.2 1.4.2 2.3-.1 1.6-.2 2.3c-.1.6-.3 1.1-.5 1.4s-.6.5-1 .5c-.5 0-.8-.2-1-.5m2.3.5c.4-.4.6-.9.8-1.6s.3-1.6.3-2.6-.1-1.9-.3-2.6-.4-1.2-.8-1.6-.8-.5-1.4-.5-1.1.2-1.4.5c-.4.4-.6.9-.8 1.6s-.2 1.5-.2 2.5.1 1.9.3 2.6.4 1.2.8 1.6.8.5 1.4.5c.5.1 1-.1 1.3-.4m-8.3-.5c-.2-.3-.4-.8-.5-1.4s-.2-1.4-.2-2.3.1-1.6.2-2.3c.1-.6.3-1.1.5-1.4s.6-.5 1-.5.7.2 1 .5c.2.3.4.8.5 1.4s.2 1.4.2 2.3-.1 1.6-.2 2.3c-.1.6-.3 1.1-.5 1.4s-.6.5-1 .5c-.5 0-.8-.2-1-.5m2.3.5c.4-.4.6-.9.8-1.6s.3-1.6.3-2.6-.1-1.9-.3-2.6-.4-1.2-.8-1.6-.8-.5-1.4-.5-1.1.2-1.4.5c-.4.4-.6.9-.8 1.6s-.2 1.5-.2 2.5.1 1.9.3 2.6.4 1.2.8 1.6.8.5 1.4.5c.5.1.9-.1 1.3-.4m-5.2.4v-1.9h-.4v.3c0 .3-.1.5-.2.7s-.3.2-.6.2h-2.7l2-2.7c.2-.3.4-.5.6-.8.2-.2.3-.5.5-.7.1-.2.3-.5.4-.7s.2-.5.2-.7c.1-.2.1-.5.1-.8 0-.4-.1-.8-.2-1.1-.2-.3-.4-.6-.7-.8s-.7-.3-1.2-.3-.9.1-1.2.2c-.3.2-.5.4-.7.6-.1.2-.2.5-.2.8 0 .2 0 .3.1.4s.1.2.2.2.2.1.3.1c0-.3 0-.6.1-.9s.2-.5.4-.7.5-.2.8-.2.6.1.8.2c.2.2.3.4.4.6.1.3.1.6.1.9 0 .4-.1.7-.2 1.1-.1.3-.3.7-.5 1.1s-.5.9-.9 1.4l-2 2.8v.6h4.7zm-12.1-3.9c0-.8.2-1.4.4-1.9s.6-.7 1.1-.7.8.2 1 .7.3 1.1.3 1.8h-2.8zm2.6 3.8c.3-.1.5-.3.6-.5s.2-.4.2-.5 0-.2-.1-.2c0-.1-.1-.1-.1-.1-.1.3-.3.5-.6.7-.2.2-.6.3-1 .3-.5 0-1-.2-1.3-.7s-.5-1.2-.5-2.3h3.6v-.4c0-1-.2-1.8-.6-2.3s-.9-.8-1.6-.8-1.3.3-1.7.9-.6 1.5-.6 2.7c0 1.1.2 2 .6 2.6s1 .9 1.8.9c.7-.1 1-.2 1.3-.3m-5.3 0c.3-.1.5-.3.6-.5s.2-.4.2-.5 0-.2 0-.3-.1-.1-.1-.2c-.1.2-.2.4-.3.5-.1.2-.3.3-.5.4s-.4.2-.7.2c-.4 0-.7-.1-.9-.3s-.4-.5-.6-1c-.1-.4-.2-1-.2-1.7 0-.8.1-1.4.2-1.9.1-.4.3-.8.5-.9.2-.2.5-.3.8-.3s.5.1.6.2c.2.1.3.3.3.5.1.2.1.5.1.7.2 0 .3 0 .4-.1.1 0 .2-.1.2-.2.1-.1.1-.2.1-.3 0-.3-.1-.5-.2-.7s-.4-.3-.6-.5c-.3-.1-.6-.2-.9-.2-.4 0-.8.1-1.2.3-.3.2-.6.6-.8 1.1s-.3 1.2-.3 2.1c0 .8.1 1.5.3 2s.5.9.8 1.1c.4.2.8.3 1.2.3.4.4.8.3 1 .2m-7.7.1v-.4h-.1c-.2 0-.4 0-.5-.1-.1 0-.2-.1-.3-.2s-.1-.3-.1-.6v-2.9c0-.4.1-.8.2-1.1s.3-.6.5-.8.5-.3.8-.3c.5 0 .8.2 1 .5s.3.8.3 1.3v4.5h1.7v-.4h-.1c-.2 0-.4 0-.5-.1-.1 0-.2-.1-.3-.3-.1-.1-.1-.3-.1-.6v-3.2c0-.8-.2-1.4-.5-1.8s-.8-.6-1.3-.6c-.3 0-.5 0-.7.1s-.4.2-.5.4c-.2.2-.3.4-.4.7l-.1-1h-1.6v.4h.1c.2 0 .4 0 .5.1.1 0 .2.1.3.2s.1.3.1.6v4.2c0 .3 0 .5-.1.6s-.1.2-.3.3c-.1 0-.3.1-.5.1h-.1v.4zm-4.3-8.4c.1-.1.1-.3.1-.5s0-.4-.1-.5-.2-.1-.4-.1c-.1 0-.3 0-.4.1s-.1.3-.1.5 0 .4.1.5.2.1.4.1.3 0 .4-.1m1.1 8.4v-.4h-.2c-.2 0-.4 0-.5-.1-.1 0-.2-.1-.3-.3-.1-.1-.1-.3-.1-.6v-5.5h-1.7v.4h.1c.2 0 .4 0 .5.1.1 0 .2.1.3.3.1.1.1.3.1.6v4.2c0 .3 0 .5-.1.6s-.2.2-.3.2-.3.1-.5.1h-.2v.4zm-4.2-.4c.3-.3.5-.8.5-1.4 0-.3-.1-.6-.2-.8s-.3-.5-.5-.6c-.2-.2-.5-.4-.9-.6-.3-.2-.6-.3-.8-.5-.2-.1-.3-.3-.4-.5s-.1-.4-.1-.6c0-.3.1-.6.2-.8.2-.2.4-.3.8-.3s.6.1.8.3.3.6.3 1c.2 0 .3-.1.4-.2s.1-.3.1-.5-.1-.4-.2-.6-.3-.3-.5-.4-.5-.2-.9-.2c-.5 0-1 .1-1.3.4s-.5.7-.5 1.2c0 .3.1.6.2.8s.3.5.5.6c.2.2.6.4 1 .6.3.2.6.3.7.5.2.2.3.3.4.5s.1.3.1.5c0 .4-.1.7-.3 1-.2.2-.5.3-.9.3s-.8-.1-1-.4-.3-.7-.3-1.1c-.1 0-.2 0-.2.1-.1 0-.1.1-.2.2s-.1.2-.1.4.1.5.2.7.3.4.6.5.6.2 1 .2c.7.2 1.2 0 1.5-.3m-6.6.4v-.4h-.1c-.2 0-.4 0-.5-.1-.1 0-.2-.1-.3-.3-.1-.1-.1-.3-.1-.6v-8.3h-1.8v.4h.2c.2 0 .4 0 .5.1.1 0 .2.1.3.2s.1.3.1.6v7c0 .3 0 .5-.1.6s-.2.2-.3.3c-.1 0-.3.1-.5.1h-.1v.4zm-7.1-.6c-.1-.1-.3-.3-.3-.5-.1-.2-.1-.5-.1-.8s.1-.6.2-.9c.1-.2.3-.4.6-.6.3-.1.6-.2 1.1-.2h.8v1.1c0 .4-.1.7-.2 1s-.3.5-.5.7-.5.3-.8.3c-.4.1-.6 0-.8-.1m1.2.5c.2-.1.4-.3.5-.5.2-.2.3-.4.4-.6h.1l.1 1.2h1.3v-.4c-.2 0-.3 0-.4-.1s-.2-.2-.2-.3-.1-.3-.1-.6v-3.3c0-.8-.2-1.4-.5-1.7s-.8-.5-1.4-.5c-.4 0-.7.1-1 .2s-.5.3-.6.4c-.1.2-.2.4-.2.7 0 .2.1.4.2.5s.3.2.5.2c0-.3 0-.6.1-.8s.2-.4.3-.5c.2-.1.4-.2.7-.2s.5.1.7.2.3.3.3.6c.1.3.1.6.1.9v.8h-.9c-.8 0-1.5.2-1.9.5s-.6.8-.6 1.5c0 .5.1.8.2 1.1s.3.5.6.7c.2.1.5.2.8.2.4 0 .7-.1.9-.2m-6.7.1v-.4h-.1c-.2 0-.4 0-.5-.1-.1 0-.2-.1-.3-.2s-.1-.3-.1-.6v-2.9c0-.4.1-.8.2-1.1s.3-.6.5-.8.5-.3.8-.3c.5 0 .8.2 1 .5s.3.8.3 1.3v4.5h1.7v-.4h-.1c-.2 0-.4 0-.5-.1-.1 0-.2-.1-.3-.3-.1 0-.1-.2-.1-.5v-3.2c0-.8-.2-1.4-.5-1.8s-.8-.6-1.3-.6c-.3 0-.5 0-.7.1s-.4.2-.5.4c-.2.2-.3.4-.4.7l-.1-1h-1.6v.4h.1c.2 0 .4 0 .5.1.1 0 .2.1.3.2s.1.3.1.6v4.2c0 .3 0 .5-.1.6s-.1.2-.3.3c-.1 0-.3.1-.5.1h-.1v.4h2.6zm-4.4-8.4c.1-.1.1-.3.1-.5s0-.4-.1-.5-.2-.1-.4-.1c-.1 0-.3 0-.4.1s-.1.3-.1.5 0 .4.1.5.2.1.4.1.3 0 .4-.1m1.2 8.4v-.4h-.2c-.2 0-.4 0-.5-.1-.1 0-.2-.1-.3-.3-.1-.1-.1-.3-.1-.6v-5.5h-1.7v.4h.1c.2 0 .4 0 .5.1.1 0 .2.1.3.3.1.1.1.3.1.6v4.2c0 .3 0 .5-.1.6s-.2.2-.3.2-.3.1-.5.1h-.2v.4zm-7.1-3.4c-.2-.3-.3-.7-.3-1.3 0-.4 0-.8.1-1 .1-.3.2-.5.4-.6s.4-.2.6-.2c.3 0 .5.1.7.2s.3.3.4.6.1.6.1 1 0 .7-.1 1-.2.4-.4.6c-.2.1-.4.2-.7.2-.3-.1-.6-.2-.8-.5m-.1 5.8c-.2-.1-.4-.3-.5-.5s-.1-.5-.1-.7c0-.3.1-.6.2-.8s.3-.4.5-.5.4-.1.7-.1h1c.4 0 .7.1.9.3s.3.5.3.9c0 .3-.1.6-.2.9s-.3.5-.6.6-.7.2-1.1.2c-.6-.1-.9-.2-1.1-.3m2.8 0c.4-.4.7-1 .7-1.7 0-.3-.1-.6-.2-.9s-.3-.5-.6-.6c-.3-.2-.6-.2-1-.2h-1c-.3 0-.5 0-.6-.1-.1-.2-.2-.4-.2-.6s0-.4.1-.5.2-.3.3-.4c.1 0 .2 0 .3.1h.3c.6 0 1.1-.2 1.4-.6s.5-.9.5-1.6c0-.4 0-.7-.1-.9s-.2-.4-.3-.6l.3-.3s.2-.1.3-.1.2.1.3.2.1.2.1.4c.2 0 .3-.1.3-.2.1-.1.1-.2.1-.4s0-.3-.1-.4-.2-.2-.4-.2-.3 0-.4.1-.2.2-.3.3-.2.2-.3.3c-.1-.1-.3-.2-.5-.3s-.4-.1-.7-.1c-.6 0-1.1.2-1.5.6-.3.4-.5 1-.5 1.7 0 .4.1.8.2 1.1.2.3.4.6.7.8-.2.1-.3.3-.5.5-.1.2-.2.4-.2.6 0 .3.1.5.2.6s.2.3.4.3c-.2.1-.4.2-.6.3s-.4.3-.5.6c-.1.2-.2.5-.2.9 0 .6.2 1.1.5 1.4.4.3.9.5 1.7.5.9 0 1.6-.2 2-.6m-5.7-10.8c.1-.1.1-.3.1-.5s0-.4-.1-.5-.2-.1-.4-.1c-.1 0-.3 0-.4.1s-.1.3-.1.5 0 .4.1.5.2.1.4.1c.1 0 .3 0 .4-.1m1.1 8.4v-.4h-.2c-.2 0-.4 0-.5-.1-.1 0-.2-.1-.3-.3-.1-.1-.1-.3-.1-.6v-5.5h-1.7v.4h.1c.2 0 .4 0 .5.1.1 0 .2.1.3.3.1.1.1.3.1.6v4.2c0 .3 0 .5-.1.6s-.2.2-.3.2-.3.1-.5.1h-.2v.4zm-4.8 0v-.4h-.3c-.2 0-.4 0-.5-.1-.1 0-.2-.1-.3-.2s-.1-.3-.1-.6v-2.2c0-.3 0-.6.1-1 .1-.3.1-.6.2-.9s.2-.5.4-.7.3-.3.5-.3.3 0 .4.1.2.2.2.3.1.3.1.5c.2 0 .4-.1.5-.2s.2-.3.2-.5c0-.3-.1-.5-.2-.6s-.4-.2-.8-.2c-.3 0-.5.1-.7.2s-.4.3-.5.5-.2.5-.3.7l-.1-1.3h-1.6v.4h.1c.2 0 .4 0 .5.1.1 0 .2.1.3.2s.1.3.1.6v4.2c0 .3 0 .5-.1.6s-.1.2-.3.3c-.1 0-.3.1-.5.1h-.1v.4zm-8.5-.9c-.4-.3-.6-.8-.8-1.4-.2-.7-.2-1.4-.2-2.3 0-1.3.2-2.3.6-3.1.4-.7 1-1.1 1.8-1.1.6 0 1.1.2 1.4.5s.6.8.8 1.4.2 1.4.2 2.2c0 .9-.1 1.6-.2 2.2s-.4 1.1-.8 1.4-.8.5-1.4.5c-.6.2-1 0-1.4-.3m3.2.4c.5-.4.9-.9 1.1-1.6s.4-1.5.4-2.5-.1-1.8-.4-2.5-.6-1.2-1.1-1.6-1.1-.5-1.8-.5-1.3.2-1.8.6-.9.9-1.1 1.6-.4 1.5-.4 2.5.1 1.8.4 2.5c.2.7.6 1.2 1.1 1.6s1.1.6 1.8.6c.7-.1 1.3-.3 1.8-.7m-12.7-3.4c0-.8.2-1.4.4-1.9s.6-.7 1.1-.7.8.2 1 .7.3 1.1.3 1.8h-2.8zm2.6 3.8c.3-.1.5-.3.6-.5s.2-.4.2-.5 0-.2-.1-.2c0-.1-.1-.1-.1-.1-.1.3-.3.5-.6.7-.2.2-.6.3-1 .3-.5 0-1-.2-1.3-.7s-.5-1.2-.5-2.3h3.6v-.4c0-1-.2-1.8-.6-2.3s-.9-.8-1.6-.8-1.3.3-1.7.9-.6 1.5-.6 2.7c0 1.1.2 2 .6 2.6s1 .9 1.8.9c.7-.1 1.1-.2 1.3-.3m-7.8.1v-.4h-.1c-.2 0-.4 0-.5-.1-.1 0-.2-.1-.3-.2s-.1-.3-.1-.6v-2.9c0-.5.1-.9.2-1.2s.3-.6.5-.7c.2-.2.5-.3.8-.3.5 0 .8.2 1 .5s.3.8.3 1.4v4.5h1.7v-.4h-.1c-.2 0-.4 0-.5-.1-.1 0-.2-.1-.3-.3-.1-.1-.1-.3-.1-.6v-3.2c0-.8-.2-1.4-.5-1.8s-.8-.6-1.3-.6c-.3 0-.6.1-.8.2s-.4.3-.6.4c-.1.2-.3.4-.4.6s0-.1 0-.2 0-.2 0-.3 0-.2 0-.3v-3.1h-1.8v.4h.2c.2 0 .3 0 .5.1.1 0 .2.1.3.2s.1.3.1.6v7c0 .3 0 .5-.1.6s-.1.2-.3.3c-.1 0-.3.1-.5.1h-.1v.4zm-4.5 0v-.4h-.4c-.2 0-.3 0-.5-.1-.1 0-.2-.1-.3-.3-.1-.1-.1-.4-.1-.7v-7.2h1.2c.3 0 .6.1.7.3s.2.4.2.7l.1.6h.4l-.1-2.1h-5.8l-.1 2.1h.4v-.6c0-.3.1-.6.2-.7.1-.2.3-.3.6-.3h1.2v7.2c0 .3 0 .5-.1.6s-.2.2-.3.3c-.1 0-.3.1-.5.1h-.4v.4h3.6z"/><path clip-path="url(#a)" d="m17.3 18.5v-.2s-.1-1.2-.2-1.9-.3-1.4-.7-2c-.5-.8-1.2-1.1-2.2-.9-.6.1-1 .4-1.3.9-.5.7-.8 1.5-.9 2.3-.2 1-.3 2.1-.2 3.1.1.6.2 1.2.4 1.8.6 1.5 2.4 2 3.7 1.1.5-.4.8-.9 1.1-1.5.2-.9.3-2.7.3-2.7m-5.5-11v.2 6.8.2c0-.1.1-.1.1-.1.4-.8.9-1.4 1.7-1.8 1.3-.7 3.3-.5 4.5 1.1.5.8.9 1.6 1 2.5.2 1.4.3 2.7 0 4.1-.1.7-.4 1.3-.7 1.9-.6.9-1.4 1.5-2.5 1.8-1 .3-2 .3-3 0-1.3-.3-2.2-1.2-2.6-2.5-.2-.6-.3-1.3-.3-1.9 0-.1 0-.2 0-.3v-12z"/><path clip-path="url(#a)" d="m51.3 15.9c0-.7-.1-1.3-.5-1.8s-.9-.7-1.5-.8c-.8-.1-1.6.1-2.1.8-.4.4-.5.9-.6 1.5v.3zm1.9 1h-6.7c0 .4 0 .9.1 1.3.1.9.3 1.8.8 2.7.6 1.1 1.4 1.8 2.6 2.1.9.2 1.8.1 2.6-.1.2 0 .3-.1.5-.1v.9s-.1.1-.1.1c-.8.2-1.5.4-2.3.4-1 0-1.9-.1-2.9-.4-1.4-.6-2.2-1.6-2.7-2.9-.4-1-.5-2.1-.5-3.1 0-.9.1-1.9.5-2.8.6-1.6 1.8-2.4 3.4-2.6.7-.1 1.5-.1 2.2.1 1.3.4 2 1.3 2.4 2.5 0 .7.1 1.3.1 1.9"/><path clip-path="url(#a)" d="m36.9 22.8h6.1v1.2h-8.2c0-.2 0-.4 0-.5-.1-.5.1-.8.3-1.2 1.8-2.8 3.6-5.5 5.5-8.3 0-.1.1-.1.1-.2h-5.5v-1.1h7.8v1.1c0 .1-.1.1-.1.2-1.4 2.1-2.8 4.2-4.2 6.2-.5.8-1.1 1.6-1.6 2.4-.1 0-.1.1-.2.2"/><path clip-path="url(#a)" d="m33 14.4c-.5-.2-.9-.4-1.3-.6-.8-.3-1.6-.4-2.5-.2-.1 0-.1 0-.2.1-1 .4-1.2 1.5-.5 2.2.3.3.7.6 1.1.8l2.1 1.2c.4.2.9.5 1.2.9.6.6.8 1.4.8 2.2 0 1.2-.6 2.1-1.6 2.7-.5.3-1 .5-1.6.5-1.3.2-2.7.1-3.9-.3-.2 0-.2-.1-.2-.3 0-.5 0-1 0-1.6.1 0 .1.1.2.1.7.4 1.5.8 2.3.9.7.1 1.3.1 2-.2.9-.4 1.4-1.3 1-2.2-.1-.3-.3-.5-.5-.7-.3-.2-.6-.5-1-.7-.8-.5-1.6-.9-2.4-1.4-.5-.3-1-.7-1.2-1.2-.8-1.6 0-3.5 1.7-4.1.8-.3 1.7-.3 2.6-.2.6.1 1.3.2 1.9.3 0 0 .1.1.1.1-.1.7-.1 1.2-.1 1.7"/><path clip-path="url(#a)" d="m56.2 13.7h-2c0-.1 0-.1 0-.2 0-.2 0-.5 0-.7 0-.1 0-.2.2-.2h1.6.2v-.2c0-.8 0-1.6 0-2.3 0-.1 0-.1.1-.2.6-.3 1.1-.7 1.7-1v3.8h3.1v1.1h-3.1v.2 7.2c0 .3 0 .5.1.8.2.8.7 1.2 1.4 1.3.5.1 1 0 1.5-.1v.5.6c0 .1 0 .2-.1.2-.6 0-1.2.1-1.8.1-.5 0-1-.1-1.4-.3-.9-.3-1.4-1-1.5-2 0-.3 0-.6 0-.9 0-2.4 0-4.8 0-7.2 0-.3 0-.4 0-.5"/><path clip-path="url(#a)" d="m23.7 18.3v5.5c0 .2 0 .2-.2.2-.4 0-.9 0-1.3 0-.2 0-.2 0-.2-.2 0-3.7 0-7.3 0-11 0-.1 0-.2.2-.2h1.4c.2 0 .2 0 .2.2-.1 1.9-.1 3.7-.1 5.5"/><path d="m21.9 25.6h1.8v1.8h-1.8z"/></g></svg>