<svg enable-background="new 0 0 566.9 566.9" viewBox="0 40 566.9 566.9" xmlns="http://www.w3.org/2000/svg" xmlns:xlink="http://www.w3.org/1999/xlink"><clipPath id="a"><path d="m10.6 49.8h546v465.6h-546z"/></clipPath><clipPath id="b"><path d="m10.6 49.8h546v465.6h-546z"/></clipPath><clipPath id="c"><path d="m10.6 49.8h546v465.6h-546z"/></clipPath><path d="m10.6 61.5h293.7v109h-293.7z" fill="#fcf7f1"/><path d="m10.6 179.9h293.7v109h-293.7z" fill="#efd4b9"/><path d="m10.6 298.3h293.7v109h-293.7z" fill="#c3b09f"/><g fill="#4a545c"><path clip-path="url(#a)" d="m124.2 112.5c.7-.2 1.3-.5 1.8-.8s.8-.7 1.1-1c.2-.4.4-.7.4-1 0-.2-.1-.4-.2-.5s-.3-.2-.5-.3c-.3 1.3-.9 2.2-1.7 2.8s-1.9.9-3.2.9c-1.5 0-2.8-.4-3.7-1.2-1-.8-1.7-2-2.1-3.5s-.7-3.5-.7-5.7.2-4.1.7-5.6 1.2-2.7 2.1-3.5 2.1-1.2 3.5-1.2c1.1 0 1.9.2 2.5.5s1.1.8 1.3 1.5c.3.7.4 1.6.4 2.7.5 0 .9-.1 1.2-.4s.5-.7.5-1.2c0-.6-.2-1.1-.6-1.6s-1-.9-1.9-1.2c-.8-.3-1.9-.5-3.2-.5-1.9 0-3.5.4-4.8 1.3s-2.2 2.1-2.9 3.7c-.6 1.6-1 3.5-1 5.7s.3 4 .9 5.6 1.6 2.8 2.8 3.7c1.3.9 2.8 1.3 4.7 1.3 1-.2 1.8-.3 2.6-.5m-21.2-13.9c-.7-.7-1.1-1.6-1.1-2.8 0-1.1.4-2.1 1.1-2.8s1.6-1 2.7-1 2 .3 2.7 1 1.1 1.6 1.1 2.8c0 1.1-.3 2.1-1 2.8s-1.6 1.1-2.7 1.1c-1.2-.1-2.1-.4-2.8-1.1m5.9.4c.8-.8 1.2-1.9 1.2-3.2s-.4-2.4-1.2-3.2-1.9-1.2-3.2-1.2-2.4.4-3.2 1.2-1.2 1.9-1.2 3.2.4 2.4 1.2 3.2 1.9 1.2 3.2 1.2 2.4-.4 3.2-1.2m-11.3 13.5.2-4.4h-.3l-.1.6c-.1.9-.2 1.4-.5 1.7s-.8.5-1.7.5h-9.3l3.8-3.7c1.5-1.5 2.8-2.7 3.7-3.8 1-1 1.7-2 2.3-2.7.5-.8.9-1.5 1.1-2.1s.3-1.3.3-2c0-1-.2-1.8-.6-2.6s-1.1-1.4-1.9-1.8c-.9-.5-1.9-.7-3.2-.7-1.2 0-2.2.2-3 .5s-1.4.8-1.8 1.4-.6 1.1-.6 1.7c0 .4.1.7.2.9s.3.4.6.5.6.2.9.2c0-1.2.1-2.1.4-2.8s.7-1.2 1.2-1.6c.6-.3 1.3-.5 2.1-.5.9 0 1.7.2 2.2.6.6.4 1 1 1.2 1.7.3.7.4 1.6.4 2.7 0 .8-.1 1.5-.2 2.1-.2.6-.4 1.3-.8 2s-.9 1.5-1.6 2.3-1.5 1.8-2.6 3l-4.6 5v1.5h12.2zm-17.2 0v-.3h-1.7c-.5 0-.9-.1-1.2-.2s-.5-.4-.6-.7-.2-.8-.2-1.4v-18.3h-1.1l-1.3 1.5c-.4.5-.9.9-1.3 1.2s-.9.6-1.5.8c-.5.2-1.2.3-1.9.3 0 .3.1.6.3.8s.5.3.9.3c.3 0 .7-.1 1-.3s.7-.5 1.2-1 1-1.2 1.7-2.1v16.9c0 .6-.1 1.1-.2 1.4s-.3.6-.6.7-.7.2-1.2.2h-2v.3h9.7zm-13.8-8.2h-7.6v.6h7.6zm-18.6 7.6c-.6-.4-1.1-1-1.4-1.8-.4-.8-.6-1.9-.8-3.2s-.2-2.9-.2-4.8c0-1.8.1-3.4.2-4.7.2-1.3.4-2.4.8-3.2.3-.8.8-1.5 1.4-1.8.6-.4 1.3-.6 2.2-.6s1.6.2 2.2.6 1.1 1 1.4 1.8c.4.8.6 1.9.8 3.2s.2 2.9.2 4.7-.1 3.4-.2 4.8c-.2 1.3-.4 2.4-.8 3.2s-.8 1.4-1.4 1.8-1.3.6-2.1.6c-1 0-1.7-.2-2.3-.6m5.9-.4c1-.8 1.7-2.1 2.2-3.7s.7-3.5.7-5.8-.2-4.2-.7-5.8-1.2-2.8-2.2-3.6-2.2-1.2-3.7-1.2c-1.6 0-2.8.4-3.8 1.2s-1.7 2-2.2 3.6-.7 3.5-.7 5.8.2 4.2.7 5.8 1.2 2.8 2.2 3.7c1 .8 2.2 1.3 3.8 1.3 1.5 0 2.7-.4 3.7-1.3m-15.1 1v-.3h-1.7c-.5 0-.9-.1-1.2-.2s-.5-.4-.6-.7-.2-.8-.2-1.4v-18.3h-1.1l-1.3 1.5c-.4.5-.9.9-1.3 1.2s-.9.6-1.5.8c-.5.2-1.2.3-1.9.3 0 .3.1.6.3.8s.5.3.9.3c.3 0 .7-.1 1-.3s.7-.5 1.2-1 1-1.2 1.7-2.1v16.9c0 .6-.1 1.1-.2 1.4s-.3.6-.6.7-.7.2-1.2.2h-2v.3h9.7z"/><path clip-path="url(#a)" d="m126.4 226.8c.7-.2 1.3-.5 1.8-.8s.8-.7 1.1-1c.2-.4.4-.7.4-1 0-.2-.1-.4-.2-.5s-.3-.2-.5-.3c-.4 1.3-.9 2.2-1.7 2.8s-1.9.9-3.2.9c-1.5 0-2.8-.4-3.7-1.2-1-.8-1.7-2-2.1-3.5-.5-1.6-.7-3.5-.7-5.7s.2-4.1.7-5.6 1.2-2.7 2.1-3.5 2.1-1.2 3.5-1.2c1.1 0 1.9.2 2.5.5s1.1.8 1.3 1.5c.3.7.4 1.6.4 2.6.5 0 .9-.1 1.2-.4s.5-.7.5-1.2c0-.6-.2-1.1-.6-1.6s-1-.9-1.9-1.2c-.8-.3-1.9-.5-3.2-.5-1.9 0-3.5.4-4.8 1.3s-2.2 2.1-2.9 3.7c-.6 1.6-1 3.5-1 5.7s.3 4 .9 5.6 1.6 2.8 2.8 3.7c1.3.9 2.8 1.3 4.7 1.3 1-.1 1.9-.2 2.6-.4m-21.2-13.9c-.7-.7-1.1-1.6-1.1-2.8 0-1.1.4-2.1 1.1-2.8s1.6-1 2.7-1 2 .4 2.7 1c.7.7 1.1 1.6 1.1 2.8 0 1.1-.3 2.1-1 2.8s-1.6 1.1-2.7 1.1c-1.2-.1-2.1-.4-2.8-1.1m5.9.4c.8-.8 1.2-1.9 1.2-3.2s-.4-2.4-1.2-3.2-1.9-1.2-3.2-1.2-2.4.4-3.2 1.2-1.2 1.9-1.2 3.2.4 2.4 1.2 3.2 1.9 1.2 3.2 1.2 2.4-.4 3.2-1.2m-19.3 12.9c-.6-.4-1.1-1-1.4-1.8-.4-.8-.6-1.9-.8-3.2s-.2-2.9-.2-4.8c0-1.8.1-3.4.2-4.7.2-1.3.4-2.4.8-3.2s.8-1.5 1.4-1.8c.6-.4 1.3-.6 2.2-.6s1.6.2 2.2.6 1.1 1 1.4 1.8c.4.8.6 1.9.8 3.2s.2 2.9.2 4.7-.1 3.4-.2 4.8c-.2 1.3-.4 2.4-.8 3.2s-.8 1.4-1.4 1.8-1.3.6-2.1.6c-1 0-1.7-.2-2.3-.6m5.9-.4c1-.8 1.7-2.1 2.2-3.7s.7-3.5.7-5.8-.2-4.2-.7-5.8-1.2-2.8-2.2-3.6-2.2-1.2-3.7-1.2c-1.6 0-2.9.4-3.8 1.2-1 .8-1.7 2-2.2 3.6s-.7 3.5-.7 5.8.2 4.2.7 5.8 1.2 2.8 2.2 3.7c1 .8 2.2 1.3 3.8 1.3 1.5-0 2.7-.4 3.7-1.3m-15.1 1v-.3h-1.7c-.5 0-.9-.1-1.2-.2s-.5-.4-.6-.7-.2-.8-.2-1.4v-18.3h-1.1l-1.3 1.5c-.4.5-.9.9-1.3 1.2s-.9.6-1.5.8c-.5.2-1.2.3-1.9.3 0 .3.1.6.3.8s.5.3.9.3c.3 0 .7-.1 1-.3s.7-.5 1.2-1 1-1.2 1.7-2.1v16.9c0 .6-.1 1.1-.2 1.4s-.3.6-.6.7-.7.2-1.2.2h-2v.3h9.7zm-13.8-8.2h-7.6v.6h7.6zm-18.4-4.6c-.7-.4-1.2-1-1.5-1.5-.3-.6-.5-1.3-.5-2.2 0-1.4.3-2.4 1-3.1s1.7-1.1 3-1.1c.9 0 1.7.2 2.3.5.6.4 1 .9 1.3 1.6s.4 1.5.4 2.5c0 .7-.1 1.4-.3 2s-.5 1.1-1 1.6-1.1.9-1.9 1.2c-1.1-.6-2-1.1-2.8-1.5m-1.4 11.6c-.8-.8-1.2-2.1-1.2-3.9 0-1.3.3-2.3.9-3.2s1.5-1.5 2.8-2.1c1.1.5 2 .9 2.8 1.4.7.4 1.3.9 1.8 1.3.4.4.7.9.9 1.4s.3 1.1.3 1.7c0 1.5-.4 2.6-1.2 3.4s-2 1.2-3.5 1.2c-1.7 0-2.8-.4-3.6-1.2m8.1.1c1.2-.9 1.8-2.2 1.8-3.9 0-.9-.2-1.8-.5-2.5s-.9-1.4-1.7-2-1.8-1.2-3-1.7c1.6-.5 2.7-1.1 3.4-2 .7-.8 1-1.8 1-3.1 0-.9-.2-1.8-.6-2.5s-1.1-1.3-1.9-1.7-1.9-.6-3.2-.6-2.4.2-3.2.7c-.9.4-1.5 1.1-1.9 1.8-.4.8-.6 1.6-.6 2.6 0 .8.2 1.5.5 2.2.3.6.8 1.2 1.4 1.8.7.5 1.5 1 2.5 1.5-1.7.5-3 1.2-3.9 2.2-.8.9-1.2 2-1.2 3.4 0 1 .2 2 .7 2.8s1.2 1.4 2.1 1.9c1 .4 2.1.7 3.5.7 2-.2 3.6-.7 4.8-1.6"/><path clip-path="url(#a)" d="m126.4 343.8c.7-.2 1.3-.5 1.8-.8s.8-.7 1.1-1c.2-.4.4-.7.4-1 0-.2-.1-.4-.2-.5s-.3-.2-.5-.3c-.3 1.3-.9 2.2-1.7 2.8s-1.9.9-3.2.9c-1.5 0-2.8-.4-3.7-1.2-1-.8-1.7-2-2.1-3.5-.5-1.6-.7-3.5-.7-5.7s.2-4.1.7-5.6 1.2-2.7 2.1-3.5 2.1-1.2 3.5-1.2c1.1 0 1.9.2 2.5.5s1.1.8 1.3 1.5c.3.7.4 1.6.4 2.6.5 0 .9-.1 1.2-.4s.5-.7.5-1.2c0-.6-.2-1.1-.6-1.6s-1-.9-1.9-1.2c-.8-.3-1.9-.5-3.2-.5-1.9 0-3.5.4-4.8 1.3s-2.2 2.1-2.9 3.7-1 3.5-1 5.7.3 4 .9 5.6 1.6 2.8 2.8 3.7c1.3.9 2.8 1.3 4.7 1.3 1-0 1.9-.2 2.6-.4m-21.2-13.9c-.7-.7-1.1-1.6-1.1-2.8 0-1.1.4-2.1 1.1-2.8s1.6-1 2.7-1 2 .4 2.7 1 1.1 1.6 1.1 2.8c0 1.1-.3 2.1-1 2.8s-1.6 1.1-2.7 1.1c-1.2 0-2.1-.4-2.8-1.1m5.9.4c.8-.8 1.2-1.9 1.2-3.2s-.4-2.4-1.2-3.2-1.9-1.2-3.2-1.2-2.4.4-3.2 1.2-1.2 1.9-1.2 3.2.4 2.4 1.2 3.2 1.9 1.2 3.2 1.2c1.3.1 2.4-.3 3.2-1.2m-19.1.7c-.7-.4-1.2-1-1.5-1.5-.3-.6-.5-1.3-.5-2.2 0-1.4.3-2.4 1-3.1s1.7-1.1 3-1.1c.9 0 1.7.2 2.3.5.6.4 1 .9 1.3 1.6s.4 1.5.4 2.5c0 .7-.1 1.4-.3 2s-.5 1.1-1 1.6-1.1.9-1.9 1.2c-1.1-.6-2.1-1-2.8-1.5m-1.4 11.6c-.8-.8-1.2-2.1-1.2-3.9 0-1.3.3-2.3.9-3.2s1.5-1.5 2.8-2.1c1.1.5 2 .9 2.8 1.4s1.3.9 1.8 1.3c.4.4.7.9.9 1.4s.3 1.1.3 1.7c0 1.5-.4 2.6-1.2 3.4s-2 1.2-3.5 1.2c-1.7.1-2.8-.3-3.6-1.2m8.1.2c1.2-.9 1.8-2.2 1.8-3.9 0-.9-.2-1.8-.5-2.5s-.9-1.4-1.7-2-1.8-1.2-3-1.7c1.6-.5 2.7-1.1 3.4-2 .7-.8 1-1.8 1-3.1 0-.9-.2-1.8-.6-2.5s-1.1-1.3-1.9-1.7-1.9-.6-3.2-.6-2.4.2-3.2.7c-.9.4-1.5 1.1-1.9 1.8-.4.8-.6 1.6-.6 2.6 0 .8.2 1.5.5 2.2.3.6.8 1.2 1.4 1.8.7.5 1.5 1 2.5 1.5-1.7.5-3 1.2-3.9 2.2-.8.9-1.2 2-1.2 3.4 0 1 .2 2 .7 2.8s1.2 1.4 2.1 1.9c1 .4 2.1.7 3.5.7 2-.2 3.6-.7 4.8-1.6m-13.6-7.2h-7.6v.6h7.6zm-14.4 8.1c.8-.3 1.5-.8 2.1-1.4.5-.6.9-1.3 1.2-2.1s.4-1.7.4-2.6c0-1.4-.3-2.5-.9-3.5-.6-.9-1.3-1.6-2.3-2s-2-.7-3.1-.7c-.8 0-1.6.1-2.4.4s-1.4.7-2 1.2l.8-8.3h6.8c.5 0 .9 0 1.2.1s.5.2.6.5c.1.2.2.6.2 1.1v.5h.3l-.1-3.9h-9.2l-.9 10.3.4.1c.3-.3.6-.5 1-.8.4-.2.8-.4 1.3-.6s1.1-.2 1.7-.2c1 0 1.8.2 2.5.6s1.2 1 1.6 1.9c.4.8.5 1.9.5 3.3s-.2 2.5-.5 3.5c-.3.9-.8 1.6-1.4 2.1s-1.4.7-2.4.7c-.8 0-1.5-.1-2.1-.4s-1.1-.7-1.4-1.3-.5-1.4-.5-2.4c-.4 0-.8.1-1 .4-.2.2-.3.6-.3.9 0 .5.2 1 .6 1.5s.9.8 1.7 1.1 1.7.5 2.9.5c.9-0 1.9-.2 2.7-.5"/><path clip-path="url(#a)" d="m194.6 135.9c.2.2.4.4.5.6.1.3.2.6.2.9h-3.2c.1-.6.2-1 .5-1.3s.7-.5 1.2-.5c.3.1.6.2.8.3m-2.3-.6c-.4.3-.7.6-1 1.1-.2.5-.3 1.1-.3 1.8s.1 1.3.4 1.8.6.8 1.1 1.1c.5.2 1 .4 1.6.4.4 0 .8 0 1.1-.1s.6-.2.9-.3v-1.1c-.3.1-.6.2-.9.3s-.7.1-1.1.1c-.6 0-1.1-.2-1.5-.6-.3-.4-.5-.9-.5-1.6h4.3v-.6c0-.6-.1-1.1-.3-1.5s-.5-.8-.9-1-.8-.4-1.4-.4c-.6.2-1.1.3-1.5.6m-3.8 4.9c-.2-.2-.3-.5-.3-.8v-3.6h1.8v-.8h-1.8v-1.4h-.6l-.4 1.3-.9.4v.5h.9v3.6c0 .5.1.9.3 1.2s.4.5.7.6.6.2.9.2c.2 0 .4 0 .6-.1.2 0 .4-.1.5-.1v-.8c-.1 0-.2.1-.4.1s-.3 0-.5 0c-.4 0-.6-.1-.8-.3m-6.6-7.8h-1v8.9h1v-2.3l.7-.6 2.2 2.9h1.2l-2.7-3.6 2.5-2.7h-1.2l-2 2.1c-.1.1-.2.2-.3.3s-.2.2-.3.4c-.1.1-.2.2-.2.3 0-.1 0-.3 0-.5s0-.4 0-.5v-4.7zm-4 2.6v3.2c0 .5-.1.9-.2 1.2s-.3.6-.6.8-.6.3-1.1.3-.8-.1-1-.4c-.2-.2-.3-.6-.3-1.1v-4h-1v4.1c0 .5.1 1 .3 1.3s.4.6.8.7c.3.2.8.2 1.3.2.3 0 .5 0 .8-.1.2-.1.5-.2.7-.3s.4-.3.5-.5l.2.8h.8v-6.2zm-10.2 4.9c-.3-.4-.4-1-.4-1.7s.1-1.3.4-1.8c.3-.4.7-.7 1.2-.7.7 0 1.2.2 1.4.6.3.4.4 1 .4 1.8v.2c0 .7-.1 1.3-.4 1.6-.3.4-.7.5-1.4.5-.5.1-.9-.1-1.2-.5m1.9 1.3c.2-.1.5-.2.6-.3.2-.1.3-.3.5-.5l.2.8h.8v-8.9h-1v2.5.5.4h-.1c-.1-.2-.3-.3-.5-.5-.2-.1-.4-.3-.6-.3-.2-.1-.5-.1-.9-.1-.8 0-1.4.3-1.9.8s-.7 1.4-.7 2.4c0 1.1.2 1.9.7 2.4s1.1.8 1.9.8c.5.2.8.1 1-0m-8.9-4.8c.3-.4.7-.6 1.4-.6.4 0 .8.1 1 .3.3.2.5.5.6.8.1.4.2.8.2 1.3s-.1.9-.2 1.3-.3.6-.6.8-.6.3-1 .3-.8-.1-1-.3-.5-.5-.6-.8c-.1-.4-.2-.8-.2-1.3-.1-.8.1-1.4.4-1.8m3.9-.1c-.2-.5-.6-.8-1-1.1s-.9-.4-1.5-.4-1.1.1-1.5.4-.8.6-1 1.1-.4 1.1-.4 1.8c0 .5.1 1 .2 1.4s.3.7.6 1 .6.5.9.6.7.2 1.1.2.8-.1 1.2-.2.7-.4.9-.6c.3-.3.4-.6.6-1 .1-.4.2-.9.2-1.4 0-.7-.1-1.3-.3-1.8m-7.5-1.3c-.2.1-.5.3-.6.5-.2.2-.3.4-.5.6l-.1-1.1h-.8v6.2h1v-3.3c0-.3 0-.6.1-.9s.2-.5.4-.7.4-.3.6-.4.4-.2.7-.2h.3c.1 0 .2 0 .3.1l.1-.9c-.1 0-.2 0-.4-.1-.1 0-.3 0-.4 0-.2.1-.5.1-.7.2m-5.3-.8c.3.3.5.7.5 1.2 0 .4-.1.7-.3 1-.2.2-.4.4-.8.5s-.8.2-1.3.2h-.8v-3.3h1.1c.7 0 1.2.1 1.6.4m-3.8-1.3v8.3h1v-3.2h1c.6 0 1.1-.1 1.6-.2.4-.1.8-.3 1-.6.3-.2.4-.5.6-.8.1-.3.2-.6.2-1 0-.8-.2-1.4-.7-1.8s-1.3-.6-2.4-.6h-2.3z"/><path clip-path="url(#a)" d="m277.7 119.6c.2.2.4.4.5.6.1.3.2.6.2.9h-3.2c.1-.6.2-1 .5-1.3s.7-.5 1.2-.5c.3.1.6.2.8.3m-2.3-.6c-.4.3-.7.6-1 1.1-.2.5-.3 1.1-.3 1.8s.1 1.3.4 1.8.6.8 1.1 1.1c.5.2 1 .4 1.6.4.4 0 .8 0 1.1-.1s.6-.2.9-.3v-.9c-.3.1-.6.2-1 .3-.3.1-.7.1-1.1.1-.6 0-1.1-.2-1.5-.6-.3-.4-.5-.9-.5-1.6h4.3v-.6c0-.6-.1-1.1-.3-1.5s-.5-.8-.9-1-.8-.3-1.4-.3c-.5-.1-1 0-1.4.3m-4.7.7c.3.2.5.4.6.8.1.3.2.8.2 1.4v.2c0 .4 0 .7-.1 1s-.2.5-.3.7-.3.3-.6.4c-.2.1-.5.1-.8.1-.5 0-1-.2-1.2-.6-.3-.4-.4-1-.4-1.8 0-.5.1-.9.2-1.3s.3-.6.6-.8c.2-.2.5-.3.9-.3.2-.1.6-0 .9.2m-3.1-.3c-.5.6-.7 1.4-.7 2.4s.2 1.8.7 2.4 1.1.9 1.9.9c.4 0 .8-.1 1.1-.2.3-.2.6-.4.8-.7v.4.4.2c0 .5-.2 1-.5 1.3s-.7.5-1.3.5c-.5 0-.9 0-1.3-.1s-.7-.2-1-.4v.9c.3.1.6.2 1 .3s.8.1 1.2.1c.6 0 1.2-.1 1.6-.3s.7-.5.9-.9.3-.9.3-1.5v-6.4h-.8l-.1.8h-.1c-.2-.3-.5-.6-.8-.7-.3-.2-.7-.2-1.1-.2-.7-0-1.3.3-1.8.8m-3.2-2.9c-.1.1-.2.3-.2.5s.1.4.2.5.3.2.4.2c.2 0 .3-.1.4-.2s.2-.3.2-.5-.1-.4-.2-.5-.3-.2-.4-.2c-.2 0-.3.1-.4.2m-.1 8.4h1v-6.2h-1zm-2.9-1c-.2-.2-.3-.5-.3-.8v-3.6h1.8v-.8h-1.8v-1.4h-.6l-.4 1.3-.9.4v.5h.9v3.6c0 .5.1.9.3 1.2s.4.5.7.6.6.2.9.2c.2 0 .4 0 .6-.1s.4-.1.5-.1v-.8c-.1 0-.2.1-.4.1s-.3 0-.5 0c-.3-0-.6-.1-.8-.3m-3.3-7.8h-1v8.9h1zm-4 5.8v.6c0 .6-.2 1.1-.5 1.3-.3.3-.8.4-1.3.4-.3 0-.6-.1-.8-.2-.2-.2-.3-.4-.3-.8s.1-.7.4-.9.8-.3 1.6-.4zm-2.4-3.2c-.4.1-.7.2-1 .4l.3.8c.3-.1.5-.2.8-.3s.6-.1.9-.1c.4 0 .7.1 1 .3.2.2.3.6.3 1.1v.4h-1.1c-1 0-1.8.2-2.3.6-.5.3-.7.8-.7 1.4 0 .4.1.8.3 1 .2.3.4.5.7.6s.6.2 1 .2.6 0 .9-.1c.2-.1.5-.2.7-.3.2-.2.4-.3.6-.6l.2.9h.7v-4.3c0-.7-.2-1.3-.5-1.6-.4-.3-.9-.5-1.7-.5-.3-0-.7-0-1.1.1m-7.4-2.6h-1v8.9h1v-3.2c0-.5.1-.9.2-1.2s.3-.6.6-.8.6-.3 1.1-.3.8.1 1.1.4c.2.2.3.6.3 1.1v4h1v-4.1c0-.5-.1-1-.3-1.3s-.4-.6-.8-.7c-.3-.2-.8-.2-1.3-.2-.3 0-.5 0-.8.1-.2.1-.5.2-.7.3s-.4.3-.5.5h-.1c0-.1 0-.3 0-.4 0-.2 0-.3 0-.5v-2.6zm-6 2.6c-.2.1-.5.2-.7.3s-.4.3-.5.5h-.1l-.2-.9h-.8v6.2h1v-3.2c0-.7.1-1.3.4-1.7s.7-.6 1.4-.6c.5 0 .8.1 1.1.4.2.2.3.6.3 1.1v4h1v-4.1c0-.8-.2-1.4-.6-1.8s-.9-.5-1.7-.5c-0 .2-.3.2-.6.3m-5.5.9c.2.2.4.4.5.6.1.3.2.6.2.9h-3.2c.1-.6.2-1 .5-1.3s.7-.5 1.2-.5c.3.1.6.2.8.3m-2.3-.6c-.4.3-.7.6-1 1.1-.2.5-.3 1.1-.3 1.8s.1 1.3.4 1.8.6.8 1.1 1.1c.5.2 1 .4 1.6.4.4 0 .8 0 1.1-.1s.6-.2.9-.3v-.9c-.3.1-.6.2-.9.3s-.7.1-1.1.1c-.6 0-1.1-.2-1.5-.6-.3-.4-.5-.9-.5-1.6h4.3v-.6c0-.6-.1-1.1-.3-1.5s-.5-.8-.9-1-.8-.3-1.4-.3c-.6-.1-1.1 0-1.5.3m-4.7.7c.3.2.5.4.6.8.1.3.2.8.2 1.4v.2c0 .4 0 .7-.1 1s-.2.5-.3.7-.3.3-.6.4c-.2.1-.5.1-.8.1-.5 0-1-.2-1.2-.6-.3-.4-.4-1-.4-1.8 0-.5.1-.9.2-1.3s.3-.6.6-.8c.2-.2.5-.3.9-.3.2-.1.6-0 .9.2m-3.1-.3c-.5.6-.7 1.4-.7 2.4s.2 1.8.7 2.4 1.1.9 1.9.9c.4 0 .8-.1 1.1-.2.3-.2.6-.4.8-.7v.4.4.2c0 .5-.2 1-.5 1.3s-.7.5-1.3.5c-.5 0-.9 0-1.3-.1s-.7-.2-1-.4v.9c.3.1.6.2 1 .3s.8.1 1.2.1c.6 0 1.2-.1 1.6-.3s.7-.5.9-.9.3-.9.3-1.5v-6.4h-.8l-.1.8h-.1c-.2-.3-.5-.6-.8-.7-.3-.2-.7-.2-1.1-.2-.7-0-1.3.3-1.8.8m-3.3 2.5v.6c0 .6-.2 1.1-.5 1.3-.4.3-.8.4-1.3.4-.3 0-.6-.1-.8-.2-.2-.2-.3-.4-.3-.8s.1-.7.4-.9.8-.3 1.6-.4zm-2.4-3.2c-.4.1-.7.2-1 .4l.3.8c.3-.1.5-.2.8-.3s.6-.1.9-.1c.4 0 .7.1 1 .3.2.2.3.6.3 1.1v.4h-1.1c-1 0-1.8.2-2.3.6-.5.3-.7.8-.7 1.4 0 .4.1.8.3 1 .2.3.4.5.7.6s.6.2 1 .2.6 0 .9-.1c.2-.1.5-.2.7-.3.2-.2.4-.3.6-.6l.2.9h.7v-4.3c0-.7-.2-1.3-.5-1.6-.4-.3-.9-.5-1.7-.5-.3-0-.7-0-1.1.1m-3.1-2.6h-1v8.9h1zm-3 0h-1v8.9h1zm-7 4c.3-.4.8-.6 1.4-.6.4 0 .8.1 1 .3.3.2.5.5.6.8s.2.8.2 1.3-.1.9-.2 1.3-.3.6-.6.8-.6.3-1 .3-.8-.1-1-.3-.5-.5-.6-.8c-.1-.4-.2-.8-.2-1.3-0-.8.1-1.4.4-1.8m3.9-.1c-.2-.5-.6-.8-1-1.1s-.9-.4-1.5-.4-1.1.1-1.5.4-.8.6-1 1.1-.3 1.1-.3 1.8c0 .5.1 1 .2 1.4s.3.7.6 1 .6.5.9.6c.4.1.7.2 1.1.2s.8-.1 1.2-.2.7-.4.9-.6c.3-.3.4-.6.6-1 .1-.4.2-.9.2-1.4 0-.7-.1-1.3-.4-1.8m-7.2 5c.3-.1.5-.1.7-.3v-.9c-.2.1-.5.2-.7.3-.3.1-.6.1-.9.1-.4 0-.7-.1-1-.3s-.5-.4-.6-.8-.2-.8-.2-1.3.1-1 .2-1.3.3-.6.6-.8.6-.3 1-.3c.2 0 .4 0 .7.1.2.1.5.1.7.2l.3-.9c-.2-.1-.4-.2-.7-.2-.3-.1-.6-.1-.9-.1-.6 0-1.1.1-1.5.3s-.8.6-1 1.1c-.3.5-.4 1.1-.4 1.9 0 .7.1 1.3.4 1.8.2.5.6.8 1 1s.9.3 1.5.3c.3.1.6.1.8.1m-9.1-6.3c-.2.1-.5.3-.6.5-.2.2-.3.4-.5.6l-.1-1.1h-.8v6.2h1v-3.3c0-.3 0-.6.1-.9s.2-.5.4-.7.4-.3.6-.4.4-.2.7-.2h.3c.1 0 .2 0 .3.1l.1-.9c-.1 0-.2 0-.4-.1-.1 0-.3 0-.4 0-.2.1-.5.1-.7.2m-6-1.3c.1.1.2.1.4.1.1 0 .3 0 .4-.1s.2-.2.2-.4-.1-.3-.2-.4-.2-.1-.4-.1c-.1 0-.3 0-.4.1s-.2.2-.2.4.1.3.2.4m-2.2 0c.1.1.2.1.4.1.1 0 .3 0 .4-.1s.2-.2.2-.4-.1-.3-.2-.4-.2-.1-.4-.1c-.1 0-.3 0-.4.1s-.2.2-.2.4.1.3.2.4m3 1.3v3.3c0 .5-.1.9-.2 1.2s-.3.6-.6.8-.6.3-1.1.3-.8-.1-1-.4c-.2-.2-.3-.6-.3-1.1v-4h-1v4.1c0 .5.1 1 .3 1.3s.4.6.8.7c.3.2.8.2 1.3.2.3 0 .5 0 .8-.1.2-.1.5-.2.7-.3s.4-.3.5-.5l.2.8h.8v-6.2h-1.2zm-5.3 0h-1.6v-.4c0-.5.1-.8.2-1.1.2-.2.4-.3.8-.3.2 0 .3 0 .5.1s.3.1.4.1l.3-.8c-.1-.1-.3-.1-.5-.1s-.4-.1-.7-.1c-.4 0-.8.1-1.1.2-.3.2-.5.4-.7.7s-.2.8-.2 1.3v.4l-1.1.4v.5h1.1v5.5h1v-5.5h1.6zm-7.9-2.6h-1v8.9h1zm-3.9 5.8v.6c0 .6-.2 1.1-.5 1.3-.4.3-.8.4-1.3.4-.3 0-.6-.1-.8-.2-.2-.2-.3-.4-.3-.8s.1-.7.4-.9.8-.3 1.6-.4zm-2.4-3.2c-.4.1-.7.2-1 .4l.3.8c.3-.1.5-.2.8-.3s.6-.1.9-.1c.4 0 .7.1 1 .3.2.2.3.6.3 1.1v.4h-1.1c-1 0-1.8.2-2.3.6-.5.3-.7.8-.7 1.4 0 .4.1.8.3 1 .2.3.4.5.7.6s.6.2 1 .2c.3 0 .6 0 .9-.1.2-.1.5-.2.7-.3.2-.2.4-.3.6-.6l.2.9h.7v-4.3c0-.7-.2-1.3-.5-1.6-.4-.3-.9-.5-1.7-.5-.4-0-.8-0-1.1.1m-4.5.9c.2.2.4.4.5.6.1.3.2.6.2.9h-3.2c.1-.6.2-1 .5-1.3s.7-.5 1.2-.5c.3.1.5.2.8.3m-2.3-.6c-.4.3-.7.6-1 1.1-.2.5-.3 1.1-.3 1.8s.1 1.3.4 1.8.6.8 1.1 1.1c.5.2 1 .4 1.6.4.4 0 .8 0 1.1-.1s.6-.2.9-.3v-.9c-.3.1-.6.2-.9.3s-.7.1-1.1.1c-.6 0-1.1-.2-1.4-.6s-.5-.9-.5-1.6h4.3v-.6c0-.6-.1-1.1-.3-1.5s-.5-.8-.9-1-.8-.3-1.4-.3c-.7-.1-1.2 0-1.6.3m-7 4.6c-.3-.4-.4-1-.4-1.7s.1-1.3.4-1.8c.3-.4.7-.7 1.2-.7.7 0 1.2.2 1.4.6.3.4.4 1 .4 1.8v.2c0 .7-.1 1.3-.4 1.6-.3.4-.7.5-1.4.5-.5.1-1-.1-1.2-.5m1.9 1.3c.2-.1.5-.2.6-.3.2-.1.3-.3.5-.5l.2.8h.8v-8.9h-1v2.5.5.4c-.1-.2-.3-.3-.5-.5-.2-.1-.4-.2-.6-.3s-.5-.1-.9-.1c-.8 0-1.4.3-1.9.8s-.7 1.4-.7 2.4c0 1.1.2 1.9.7 2.4s1.1.8 1.9.8c.4.1.7.1.9-0m-4.5-.6-1-.2v-6.7l1-.2v-.6h-3v.6l1 .2v6.7l-1 .2v.6h3z"/><path clip-path="url(#a)" d="m235.9 92.7h-1.3v4.3h-5.1v-4.2h-1.3v10h1.3v-4.7h5.1v4.7h1.3zm-10.9 1.2c.4.1.7.2 1 .4l.5-1.1c-.4-.2-.8-.3-1.3-.4s-1-.2-1.5-.2c-.8 0-1.5.1-2.1.4-.6.2-1.1.6-1.5 1.1s-.7 1-.9 1.6-.3 1.3-.3 2.1c0 1 .2 2 .5 2.7.3.8.9 1.4 1.5 1.8.7.4 1.5.6 2.5.6.6 0 1 0 1.4-.1l1.2-.3v-1.1c-.4.1-.8.2-1.1.3-.4.1-.8.1-1.2.1-.8 0-1.4-.2-1.9-.5s-.9-.8-1.1-1.4c-.3-.6-.4-1.3-.4-2.1 0-.6.1-1.2.2-1.7.2-.5.4-.9.7-1.3.3-.3.7-.6 1.1-.8s.9-.3 1.4-.3.9.1 1.3.2m-9.5 4.6h-3.2l1.1-3c0-.1.1-.2.1-.4.1-.2.1-.3.2-.5s.1-.4.1-.6c0 .1.1.3.1.5.1.2.1.4.2.6s.1.3.1.4zm2.8 4.2-3.9-10h-1.1l-3.9 10h1.3l1.2-3.1h4l1.2 3.1zm-13.2-4.2h4.1v-1.1h-4.1v-3.5h4.3v-1.1h-5.6v10h1.3zm-7.3.2c-.2-.3-.5-.6-.9-.9-.4-.2-.9-.5-1.5-.7-.5-.2-1-.4-1.3-.6s-.5-.4-.7-.6c-.1-.2-.2-.5-.2-.8s.1-.5.2-.8c.1-.2.3-.4.6-.5s.6-.2 1-.2.9.1 1.3.2.8.2 1.1.4l.4-1.1c-.4-.2-.8-.3-1.2-.4-.5-.1-1-.2-1.5-.2-.6 0-1.2.1-1.7.3s-.9.5-1.1.9c-.3.4-.4.8-.4 1.4 0 .4.1.7.2 1s.3.6.5.8.5.4.8.6.7.4 1.1.5c.6.2 1.1.4 1.4.6s.6.4.7.6.2.5.2.8-.1.6-.3.9c-.2.2-.4.4-.8.6-.3.1-.8.2-1.2.2-.5 0-1-.1-1.5-.2s-.9-.3-1.3-.4v1.2c.2.1.5.2.7.3.3.1.6.1.9.2.3 0 .7.1 1.1.1.7 0 1.4-.1 1.9-.3s.9-.5 1.2-1c.3-.4.4-.9.4-1.5.3-.6.2-1-.1-1.4m-7.5 2.9h-4.3v-3.6h4.1v-1h-4.1v-3.1h4.3v-1.1h-5.6v10h5.6zm-10.2-7.6c.4.1.6.3.8.6s.3.6.3 1c0 .6-.2 1.1-.6 1.4s-1 .5-1.8.5h-1.5v-3.7h1.4c.6 0 1 .1 1.4.2m-4.1-1.3v10h1.3v-4.1h2l2.4 4.1h1.5l-2.7-4.5c.3-.1.7-.3 1-.5s.6-.5.7-.8c.2-.4.3-.8.3-1.3 0-.6-.1-1.2-.4-1.6s-.7-.7-1.2-.9-1.2-.3-2-.3h-2.9zm-2.2 8.9h-4.3v-3.6h4.1v-1h-4.1v-3.1h4.3v-1.1h-5.6v10h5.6zm-11.5-3.6c.6 0 1.1.1 1.5.2s.6.3.8.6.2.6.2.9c0 .6-.2 1-.5 1.4-.3.3-1 .5-1.8.5h-2v-3.6zm-1.9-1v-3.2h1.6c.8 0 1.5.1 1.9.4.4.2.6.6.6 1.2 0 .5-.2.9-.5 1.2s-.9.4-1.8.4zm-1.2-4.3v10h3.5c.7 0 1.3-.1 1.9-.3.5-.2.9-.5 1.2-1 .3-.4.4-.9.4-1.5 0-.5-.1-.9-.3-1.3-.2-.3-.5-.6-.8-.8s-.7-.3-1.1-.4v-.1c.4-.1.8-.2 1-.4.3-.2.5-.5.6-.8s.2-.6.2-1c0-.9-.3-1.6-1-1.9-.6-.4-1.6-.6-2.8-.6h-2.8zm-9.8 2.8c.2-.6.6-1.1 1.1-1.4s1.1-.5 1.9-.5c1.1 0 2 .4 2.5 1.1s.8 1.7.8 3c0 .8-.1 1.6-.3 2.2s-.6 1.1-1.1 1.4-1.1.5-1.9.5c-.7 0-1.4-.2-1.9-.5s-.8-.8-1.1-1.4c-.2-.6-.3-1.3-.3-2.2s.1-1.6.3-2.2m7-.5c-.4-.8-.9-1.4-1.5-1.8-.7-.4-1.5-.6-2.5-.6s-1.9.2-2.6.6-1.2 1-1.5 1.8-.5 1.7-.5 2.7c0 .8.1 1.5.3 2.1s.5 1.2.9 1.6c.4.5.9.8 1.4 1 .6.2 1.3.4 2 .4.8 0 1.4-.1 2-.4.6-.2 1.1-.6 1.4-1 .4-.5.7-1 .9-1.6s.3-1.3.3-2.1c-0-1-.2-1.9-.6-2.7"/><path clip-path="url(#a)" d="m256.7 207.1h-1.3v4.2h-5.1v-4.2h-1.3v10h1.3v-4.7h5.1v4.7h1.3zm-11 1.1c.4.1.7.2 1 .4l.5-1.1c-.4-.2-.8-.3-1.3-.4s-1-.2-1.5-.2c-.8 0-1.5.1-2.1.4-.6.2-1.1.6-1.5 1.1s-.7 1-.9 1.6-.3 1.3-.3 2.1c0 1 .2 2 .5 2.7.3.8.8 1.4 1.5 1.8s1.5.6 2.5.6c.6 0 1 0 1.4-.1s.8-.2 1.2-.3v-1.1c-.4.1-.8.2-1.1.3-.4.1-.8.1-1.2.1-.8 0-1.4-.2-1.9-.5s-.9-.8-1.1-1.4c-.3-.6-.4-1.3-.4-2.1 0-.6.1-1.2.2-1.7.2-.5.4-.9.7-1.3.3-.3.7-.6 1.1-.8s.9-.3 1.4-.3c.5.1.9.1 1.3.2m-9.5 4.7h-3.2l1.1-3c0-.1.1-.2.1-.4.1-.2.1-.3.2-.5s.1-.4.1-.6c0 .1.1.3.1.5.1.2.1.4.2.6s.1.3.1.4zm2.9 4.2-3.9-10h-1.1l-3.9 10h1.3l1.2-3.1h4l1.2 3.1zm-13.3-4.3h4.1v-1.1h-4.1v-3.5h4.3v-1.1h-5.6v10h1.3zm-7.2.3c-.2-.3-.5-.6-.9-.9-.4-.2-.9-.5-1.5-.7-.5-.2-1-.4-1.3-.6s-.5-.4-.7-.6c-.1-.2-.2-.5-.2-.8s.1-.5.2-.8.3-.4.6-.5.6-.2 1-.2.9.1 1.3.2.8.2 1.1.4l.4-1.1c-.4-.2-.8-.3-1.2-.4-.5-.1-1-.2-1.5-.2-.6 0-1.2.1-1.7.3s-.9.5-1.1.9c-.3.4-.4.8-.4 1.4 0 .4.1.7.2 1s.3.6.5.8.5.4.8.6.7.4 1.1.5c.6.2 1.1.4 1.4.6s.6.4.7.6.2.5.2.8-.1.6-.3.9c-.2.2-.4.4-.8.6-.3.1-.8.2-1.2.2-.5 0-1-.1-1.5-.2s-.9-.3-1.3-.4v1.2c.2.1.5.2.7.3.3.1.6.1.9.2s.7.1 1.1.1c.7 0 1.4-.1 1.9-.3s.9-.5 1.2-1c.3-.4.4-.9.4-1.5.2-.6.1-1.1-.1-1.4m-7.5 2.9h-4.3v-3.6h4.1v-1.1h-4.1v-3.1h4.3v-1.1h-5.6v10h5.6zm-10.3-7.6c.4.1.6.3.8.6s.3.6.3 1c0 .6-.2 1.1-.6 1.4s-1 .5-1.8.5h-1.5v-3.7h1.4c.6-0 1.1-0 1.4.2m-4-1.3v10h1.3v-4.1h2l2.4 4.1h1.5l-2.7-4.5c.3-.1.7-.3 1-.5s.6-.5.7-.8c.2-.4.3-.8.3-1.3 0-.6-.1-1.2-.4-1.6s-.7-.7-1.2-.9-1.2-.3-2-.3h-2.9zm-2.2 8.9h-4.3v-3.6h4.1v-1.1h-4.1v-3.1h4.3v-1.1h-5.6v10h5.6zm-7.3 1.1v-1.1h-4.3v-8.9h-1.3v10zm-10.2-8.9h3.1v-1.1h-7.5v1.1h3.1v8.9h1.3zm-8.1 0h3.1v-1.1h-7.5v1.1h3.1v8.9h1.3zm-5.1 8.1-1.2-.3v-8l1.2-.3v-.7h-3.6v.7l1.2.3v8l-1.2.3v.7h3.6zm-10 .8 3.3-8.7h.1v.7.9 1 6.1h1.2v-10h-1.8l-3.1 8.2h-.1l-3.1-8.2h-1.9v10h1.2v-6.1c0-.4 0-.7 0-1s0-.7 0-.9c0-.3 0-.5 0-.7h.1l3.3 8.8h.8z"/><path clip-path="url(#a)" d="m244.7 322.3h-1.3v4.2h-5.1v-4.2h-1.3v10h1.3v-4.7h5.1v4.7h1.3zm-10.9 1.2c.4.1.7.2 1 .4l.5-1.1c-.4-.2-.8-.3-1.3-.4s-1-.2-1.5-.2c-.8 0-1.5.1-2.1.4-.6.2-1.1.6-1.5 1.1s-.7 1-.9 1.6-.3 1.3-.3 2.1c0 1 .2 2 .5 2.7.3.8.9 1.4 1.5 1.8.7.4 1.5.6 2.5.6.6 0 1 0 1.4-.1l1.2-.3v-1.1c-.4.1-.8.2-1.1.3-.4.1-.8.1-1.2.1-.8 0-1.4-.2-1.9-.5s-.9-.8-1.1-1.4c-.3-.6-.4-1.3-.4-2.1 0-.6.1-1.2.2-1.7.2-.5.4-.9.7-1.3.3-.3.7-.6 1.1-.8s.9-.3 1.4-.3.9 0 1.3.2m-9.5 4.6h-3.2l1.1-3c0-.1.1-.2.1-.4.1-.2.1-.3.2-.5s.1-.4.1-.6c0 .1.1.3.1.5.1.2.1.4.2.6s.1.3.1.4zm2.9 4.2-3.9-10h-1.1l-3.9 10h1.3l1.2-3.1h4l1.2 3.1zm-13.3-4.2h4.1v-1.1h-4.1v-3.5h4.3v-1.1h-5.6v10h1.3zm-7.2.2c-.2-.3-.5-.6-.9-.9-.4-.2-.9-.5-1.5-.7-.5-.2-1-.4-1.3-.6s-.5-.4-.7-.6c-.1-.2-.2-.5-.2-.8s.1-.5.2-.8c.1-.2.4-.4.6-.5.3-.1.6-.2 1-.2s.9.1 1.3.2.8.2 1.1.4l.4-1.1c-.4-.2-.8-.3-1.2-.4-.5-.1-1-.2-1.5-.2-.6 0-1.2.1-1.7.3s-.9.5-1.1.9c-.3.4-.4.8-.4 1.4 0 .4.1.7.2 1s.3.6.5.8.5.4.8.6.7.4 1.1.5c.6.2 1.1.4 1.4.6s.6.4.7.6.2.5.2.8-.1.6-.3.9c-.2.2-.4.4-.8.6-.3.1-.8.2-1.2.2-.5 0-1-.1-1.5-.2s-.9-.3-1.3-.4v1.2c.2.1.5.2.7.3.3.1.6.1.9.2.3 0 .7.1 1.1.1.7 0 1.4-.1 1.9-.3s.9-.5 1.2-1c.3-.4.4-.9.4-1.5.2-.6.1-1-.1-1.4m-7.6 2.9h-4.3v-3.6h4.1v-1.1h-4.1v-3.1h4.3v-1.1h-5.6v10h5.6zm-10.2-7.6c.4.1.6.3.8.6s.3.6.3 1c0 .6-.2 1.1-.6 1.4s-1 .5-1.8.5h-1.5v-3.7h1.4c.6-0 1 .1 1.4.2m-4.1-1.3v10h1.3v-4.1h2l2.4 4.1h1.5l-2.7-4.5c.3-.1.7-.3 1-.5s.6-.5.7-.8c.2-.4.3-.8.3-1.3 0-.6-.1-1.2-.4-1.6s-.7-.7-1.2-.9-1.2-.3-2-.3h-2.9zm-2.1 8.9h-4.3v-3.6h4.1v-1.1h-4.1v-3.1h4.3v-1.1h-5.6v10h5.6zm-10.2-7.8h3.1v-1.1h-7.5v1.1h3.1v8.9h1.3zm-5.9-1.1h-1.2v5.6 1 1 .7h-.1l-5.3-8.3h-1.5v10h1.2v-5.6c0-.3 0-.7 0-1s0-.6 0-.9 0-.5 0-.8h.1l5.3 8.3h1.5zm-10.6 0h-1.2v6.5c0 .5-.1.9-.3 1.3s-.5.7-.8.9c-.4.2-.9.3-1.5.3-.9 0-1.5-.2-2-.7-.4-.4-.7-1.1-.7-1.9v-6.5h-1.3v6.4c0 1.1.3 2 1 2.7.6.7 1.6 1 2.8 1 .9 0 1.6-.2 2.2-.5s1-.8 1.3-1.3c.3-.6.4-1.2.4-1.9v-6.3z"/><path clip-path="url(#a)" d="m219.4 267.1c-.2.1-.5.2-.7.3s-.4.3-.5.5h-.1l-.2-.9h-.8v6.2h1v-3.2c0-.7.1-1.3.4-1.7s.7-.6 1.4-.6c.5 0 .8.1 1.1.4.2.2.3.6.3 1.1v4h1v-4.1c0-.8-.2-1.4-.6-1.8s-.9-.5-1.7-.5c-.1.2-.3.2-.6.3m-5.5.9c.2.2.4.4.5.6.1.3.2.6.2.9h-3.2c.1-.6.2-1 .5-1.3s.7-.5 1.2-.5c.3.1.5.2.8.3m-2.3-.6c-.4.3-.7.6-1 1.1-.2.5-.3 1.1-.3 1.8s.1 1.3.4 1.8.6.8 1.1 1.1c.5.2 1 .4 1.6.4.4 0 .8 0 1.1-.1s.6-.2.9-.3v-.9c-.3.1-.6.2-1 .3-.3.1-.7.1-1.1.1-.6 0-1.1-.2-1.5-.6-.3-.4-.5-.9-.5-1.6h4.3v-.6c0-.6-.1-1.1-.3-1.5s-.5-.8-.9-1-.8-.3-1.4-.3c-.5-.1-1 0-1.4.3m-2.1-.3h-1.6v-.4c0-.5.1-.8.3-1.1.2-.2.4-.3.8-.3.2 0 .3 0 .5.1s.3.1.4.1l.3-.8c-.1-.1-.3-.1-.5-.1s-.4-.1-.7-.1c-.4 0-.8.1-1.1.2-.3.2-.5.4-.7.7s-.2.8-.2 1.3v.4l-1.1.4v.5h1.1v5.5h1v-5.5h1.6v-.9zm-4 0h-1.6v-.4c0-.5.1-.8.2-1.1.2-.2.4-.3.8-.3.2 0 .3 0 .5.1.2 0 .3.1.4.1l.3-.8c-.1-.1-.3-.1-.5-.1s-.4-.1-.7-.1c-.4 0-.8.1-1.1.2-.3.2-.5.4-.7.7s-.2.8-.2 1.3v.4l-1.1.4v.5h1.1v5.5h1v-5.5h1.6zm-8.8 1.4c.3-.4.8-.6 1.4-.6.4 0 .8.1 1 .3.3.2.5.5.6.8.1.4.2.8.2 1.3s-.1.9-.2 1.3-.3.6-.6.8-.6.3-1 .3-.8-.1-1-.3c-.3-.2-.5-.5-.6-.8-.1-.4-.2-.8-.2-1.3 0-.8.1-1.4.4-1.8m3.9 0c-.2-.5-.6-.8-1-1.1s-.9-.4-1.5-.4-1.1.1-1.5.4-.8.6-1 1.1-.4 1.1-.4 1.8c0 .5.1 1 .2 1.4s.3.7.6 1 .6.5.9.6c.4.1.7.2 1.1.2s.8-.1 1.2-.2.7-.4.9-.6c.3-.3.4-.6.6-1 .1-.4.2-.9.2-1.4.1-.8 0-1.4-.3-1.8m-7.9 3.8c-.2-.2-.3-.5-.3-.8v-3.6h1.8v-.8h-1.8v-1.4h-.6l-.4 1.3-.9.4v.5h.9v3.6c0 .5.1.9.3 1.2s.4.5.7.6.6.2.9.2c.2 0 .4 0 .6-.1.2 0 .4-.1.5-.1v-.8c-.1 0-.2.1-.4.1s-.3 0-.5 0c-.4 0-.6-.1-.8-.3m-3.1-1.5c-.1-.2-.4-.4-.6-.6-.3-.2-.6-.3-1-.5s-.7-.3-.9-.4-.4-.2-.5-.3-.2-.3-.2-.4c0-.2.1-.4.3-.6.2-.1.5-.2 1-.2.3 0 .6 0 .9.1s.6.2.8.3l.3-.8c-.3-.1-.6-.2-.9-.3s-.7-.1-1.1-.1c-.7 0-1.3.1-1.7.4s-.6.7-.6 1.2c0 .3.1.6.2.8.2.2.4.4.7.6s.6.3 1 .5.7.3.9.4.4.2.5.4c.1.1.1.3.1.4 0 .3-.1.5-.3.7s-.6.2-1.1.2c-.4 0-.7-.1-1.1-.2s-.7-.2-.9-.3v.9c.2.1.5.2.8.3s.7.1 1.1.1c.5 0 1-.1 1.3-.2.4-.1.7-.3.9-.6s.3-.6.3-1c-0-.3-0-.6-.2-.8m-5.6 0c-.1-.2-.4-.4-.6-.6-.3-.2-.6-.3-1-.5s-.7-.3-.9-.4-.4-.2-.5-.3-.2-.3-.2-.4c0-.2.1-.4.3-.6.2-.1.5-.2 1-.2.3 0 .6 0 .9.1s.6.2.8.3l.3-.8c-.3-.1-.6-.2-.9-.3s-.7-.1-1.1-.1c-.7 0-1.3.1-1.7.4s-.6.7-.6 1.2c0 .3.1.6.2.8.2.2.4.4.7.6s.6.3 1 .5.7.3.9.4.4.2.5.4c.1.1.1.3.1.4 0 .3-.1.5-.3.7s-.6.2-1.1.2c-.4 0-.7-.1-1.1-.2s-.7-.2-.9-.3v.9c.2.1.5.2.8.3s.7.1 1.1.1c.5 0 1-.1 1.3-.2.4-.1.7-.3.9-.6s.3-.6.3-1c.1-.3-0-.6-.2-.8m-6.6 1.5c-.2-.2-.3-.5-.3-.8v-3.6h1.8v-.8h-1.8v-1.4h-.6l-.4 1.3-.9.4v.5h.9v3.6c0 .5.1.9.3 1.2s.4.5.7.6.6.2.9.2c.2 0 .4 0 .6-.1.2 0 .4-.1.5-.1v-.8c-.1 0-.2.1-.4.1s-.3 0-.5 0c-.4 0-.7-.1-.8-.3m-3.4-7.8h-1v8.9h1zm-4 5.8v.6c0 .6-.2 1.1-.5 1.3-.3.3-.8.4-1.3.4-.3 0-.6-.1-.8-.2-.2-.2-.3-.4-.3-.8s.1-.7.4-.9.8-.3 1.6-.4zm-2.4-3.2c-.4.1-.7.2-1 .4l.3.8c.3-.1.5-.2.8-.3s.6-.1.9-.1c.4 0 .7.1 1 .3.2.2.3.6.3 1.1v.4h-1.1c-1 0-1.8.2-2.3.6-.5.3-.7.8-.7 1.4 0 .4.1.8.3 1 .2.3.4.5.7.6s.6.2 1 .2c.3 0 .6 0 .9-.1.2-.1.5-.2.7-.3.2-.2.4-.3.6-.6l.2.9h.7v-4.3c0-.7-.2-1.3-.5-1.6-.4-.3-.9-.5-1.7-.5-.3 0-.7 0-1.1.1m-7.3-2.6h-1v8.9h1v-3.2c0-.5.1-.9.2-1.2s.3-.6.6-.8.6-.3 1.1-.3.8.1 1.1.4c.2.2.3.6.3 1.1v4h1v-4.1c0-.5-.1-1-.3-1.3s-.4-.6-.8-.7c-.3-.2-.8-.2-1.3-.2-.3 0-.5 0-.8.1-.2.1-.5.2-.7.3s-.4.3-.5.5h-.1c0-.1 0-.3 0-.4 0-.2 0-.3 0-.5v-2.6zm-6 2.6c-.2.1-.5.2-.7.3s-.4.3-.5.5h-.1l-.2-.9h-.8v6.2h1v-3.2c0-.7.1-1.3.4-1.7s.7-.6 1.4-.6c.5 0 .8.1 1.1.4.2.2.3.6.3 1.1v4h1v-4.1c0-.8-.2-1.4-.6-1.8s-.9-.5-1.7-.5c-.1.2-.4.2-.6.3m-3.7 5.6-1-.2v-6.7l1-.2v-.6h-3v.6l1 .2v6.7l-1 .2v.6h3z"/><path clip-path="url(#a)" d="m266.2 250.8c-.2.1-.5.2-.7.3s-.4.3-.5.5h-.1l-.2-.9h-.8v6.2h1v-3.2c0-.7.1-1.3.4-1.7s.7-.6 1.4-.6c.5 0 .8.1 1.1.4.2.2.3.6.3 1.1v4h1v-3.9c0-.8-.2-1.4-.6-1.8s-.9-.5-1.7-.5c-.1 0-.4 0-.6.1m-5.6.9c.2.2.4.4.5.6.1.3.2.6.2.9h-3.2c.1-.6.2-1 .5-1.3s.7-.5 1.2-.5c.3.1.6.2.8.3m-2.3-.6c-.4.3-.7.6-1 1.1-.2.5-.3 1.1-.3 1.8s.1 1.3.4 1.8.6.8 1.1 1.1c.5.2 1 .4 1.6.4.4 0 .8 0 1.1-.1s.6-.2.9-.3v-.9c-.3.1-.6.2-.9.3s-.7.1-1.1.1c-.6 0-1.1-.2-1.5-.6-.3-.4-.5-.9-.5-1.6h4.3v-.6c0-.6-.1-1.1-.3-1.5s-.5-.8-.9-1-.8-.3-1.4-.3c-.6-.1-1.1 0-1.5.3m-7.1-2.9h-1v8.9h1v-3.2c0-.5.1-.9.2-1.2s.3-.6.6-.8.6-.3 1.1-.3.8.1 1.1.4c.2.2.3.6.3 1.1v4h1v-4.1c0-.5-.1-1-.3-1.3s-.4-.6-.8-.7c-.3-.2-.8-.2-1.3-.2-.3 0-.5 0-.8.1-.2.1-.5.2-.7.3s-.4.3-.5.5h-.1c0-.1 0-.3 0-.4 0-.2 0-.3 0-.5v-2.6zm-3.2 8.9c.3-.1.5-.1.7-.3v-.9c-.2.1-.5.2-.7.3-.3.1-.6.1-.9.1-.4 0-.7-.1-1-.3s-.5-.4-.6-.8-.2-.8-.2-1.3.1-1 .2-1.3.3-.6.6-.8.6-.3 1-.3c.2 0 .4 0 .7.1.2.1.5.1.7.2l.3-.9c-.2-.1-.4-.2-.7-.2-.3-.1-.6-.1-.9-.1-.6 0-1.1.1-1.5.3s-.8.6-1 1.1c-.3.5-.4 1.1-.4 1.9 0 .7.1 1.3.4 1.8.2.5.6.8 1 1s.9.3 1.5.3c.2.1.5.1.8.1m-6.3-8.5c-.1.1-.2.3-.2.5s.1.4.2.5.3.2.4.2c.2 0 .3-.1.4-.2s.2-.3.2-.5-.1-.4-.2-.5-.3-.2-.4-.2c-.2 0-.3.1-.4.2m-.1 8.4h1v-6.2h-1zm-2-8.8h-1v8.9h1zm-3.7 2.6c-.2.1-.5.3-.6.5-.2.2-.3.4-.5.6l-.1-1.1h-.8v6.2h1v-3.3c0-.3 0-.6.1-.9s.2-.5.4-.7.4-.3.6-.4.4-.2.7-.2h.3c.1 0 .2 0 .3.1l.1-.9c-.1 0-.2 0-.4-.1-.1 0-.3 0-.4 0-.2.1-.5.1-.7.2m-6-1.3c.1.1.2.1.4.1.1 0 .3 0 .4-.1s.2-.2.2-.4-.1-.3-.2-.4-.2-.1-.4-.1c-.1 0-.3 0-.4.1s-.2.2-.2.4.1.3.2.4m-2.2 0c.1.1.2.1.4.1.1 0 .3 0 .4-.1s.2-.2.2-.4-.1-.3-.2-.4-.2-.1-.4-.1c-.1 0-.3 0-.4.1s-.2.2-.2.4.1.3.2.4m3 1.3v3.3c0 .5-.1.9-.2 1.2s-.3.6-.6.8-.6.3-1.1.3-.8-.1-1-.4c-.2-.2-.3-.6-.3-1.1v-4h-1v4.1c0 .5.1 1 .3 1.3s.4.6.8.7c.3.2.8.2 1.3.2.3 0 .5 0 .8-.1.2-.1.5-.2.7-.3s.4-.3.5-.5l.2.8h.8v-6.2h-1.2zm-7 5.2c-.2-.2-.3-.5-.3-.8v-3.6h1.8v-.8h-1.8v-1.4h-.6l-.4 1.3-.9.4v.5h.9v3.6c0 .5.1.9.3 1.2s.4.5.7.6.6.2.9.2c.2 0 .4 0 .6-.1.2 0 .4-.1.5-.1v-.8c-.1 0-.2.1-.4.1s-.3 0-.5 0c-.4 0-.6-.1-.8-.3m-4.3-2v.6c0 .6-.2 1.1-.5 1.3-.3.3-.8.4-1.3.4-.3 0-.6-.1-.8-.2-.2-.2-.3-.4-.3-.8s.1-.7.4-.9.8-.3 1.6-.4zm-2.4-3.2c-.4.1-.7.2-1 .4l.3.8c.3-.1.5-.2.8-.3s.6-.1.9-.1c.4 0 .7.1 1 .3.2.2.3.6.3 1.1v.4h-1.1c-1 0-1.8.2-2.3.6-.5.3-.7.8-.7 1.4 0 .4.1.8.3 1 .2.3.4.5.7.6s.6.2 1 .2c.3 0 .6 0 .9-.1.2-.1.5-.2.7-.3.2-.2.4-.3.6-.6l.2.9h.7v-4.3c0-.7-.2-1.3-.5-1.6-.4-.3-.9-.5-1.7-.5-.3 0-.7 0-1.1.1m-6.2 0c-.2.1-.5.2-.7.3s-.4.3-.5.5h-.1l-.2-.9h-.8v6.2h1v-3.2c0-.7.1-1.3.4-1.7s.7-.6 1.4-.6c.5 0 .8.1 1.1.4.2.2.3.6.3 1.1v4h1v-3.9c0-.8-.2-1.4-.6-1.8s-.9-.5-1.7-.5c-0 0-.3 0-.6.1m-10.2 0c-.2.1-.5.2-.7.3s-.4.3-.5.5h-.1l-.2-.9h-.8v6.2h1v-3.2c0-.7.1-1.3.4-1.7s.7-.6 1.4-.6c.5 0 .8.1 1.1.4.2.2.3.6.3 1.1v4h1v-3.9c0-.8-.2-1.4-.6-1.8s-.9-.5-1.7-.5c-.1 0-.3 0-.6.1m-5.5.9c.2.2.4.4.5.6.1.3.2.6.2.9h-3.2c.1-.6.2-1 .5-1.3s.7-.5 1.2-.5c.3.1.5.2.8.3m-2.3-.6c-.4.3-.7.6-1 1.1-.2.5-.3 1.1-.3 1.8s.1 1.3.4 1.8.6.8 1.1 1.1c.5.2 1 .4 1.6.4.4 0 .8 0 1.1-.1l.9-.3v-.9c-.3.1-.6.2-.9.3s-.7.1-1.1.1c-.6 0-1.1-.2-1.4-.6s-.5-.9-.5-1.6h4.3v-.6c0-.6-.1-1.1-.3-1.5s-.5-.8-.9-1-.8-.3-1.4-.3c-.7-.1-1.2 0-1.6.3m-3-2.9h-1v8.9h1zm-3 0h-1v8.9h1zm-6.9 4c.3-.4.8-.6 1.4-.6.4 0 .8.1 1 .3.3.2.5.5.6.8s.2.8.2 1.3-.1.9-.2 1.3-.3.6-.6.8-.6.3-1 .3-.8-.1-1-.3c-.3-.2-.5-.5-.6-.8-.1-.4-.2-.8-.2-1.3-0-.8.1-1.4.4-1.8m3.9-.1c-.2-.5-.6-.8-1-1.1s-.9-.4-1.5-.4-1.1.1-1.5.4-.8.6-1 1.1-.4 1.1-.4 1.8c0 .5.1 1 .2 1.4s.3.7.6 1 .6.5.9.6c.4.1.7.2 1.1.2s.8-.1 1.2-.2.7-.4.9-.6c.3-.3.4-.6.6-1 .1-.4.2-.9.2-1.4.1-.7 0-1.3-.3-1.8m-8.4 4.9 2.4-6.2h-1.1l-1.3 3.7c-.1.2-.1.3-.2.6-.1.2-.1.4-.2.6s-.1.4-.1.5c0-.1-.1-.3-.1-.5-.1-.2-.1-.4-.2-.6s-.1-.4-.2-.6l-1.3-3.7h-1.1l2.4 6.2zm-5.4-1c-.2-.2-.3-.5-.3-.8v-3.6h1.8v-.8h-1.8v-1.4h-.6l-.4 1.3-.9.4v.5h.9v3.6c0 .5.1.9.3 1.2s.4.5.7.6.6.2.9.2c.2 0 .4 0 .6-.1.2 0 .4-.1.5-.1v-.8c-.1 0-.2.1-.4.1s-.3 0-.5 0c-.4 0-.6-.1-.8-.3m-4.1-5.2c-.2.1-.5.3-.6.5-.2.2-.3.4-.5.6l-.1-1.1h-.8v6.2h1v-3.3c0-.3 0-.6.1-.9s.2-.5.4-.7.4-.3.6-.4.4-.2.7-.2h.3c.1 0 .2 0 .3.1l.1-.9c-.1 0-.2 0-.4-.1-.1 0-.3 0-.4 0-.2.1-.4.1-.7.2m-5.4.9c.2.2.4.4.5.6.1.3.2.6.2.9h-3.2c.1-.6.2-1 .5-1.3s.7-.5 1.2-.5c.3.1.6.2.8.3m-2.3-.6c-.4.3-.7.6-1 1.1-.2.5-.3 1.1-.3 1.8s.1 1.3.4 1.8.6.8 1.1 1.1c.5.2 1 .4 1.6.4.4 0 .8 0 1.1-.1s.6-.2.9-.3v-.9c-.3.1-.6.2-.9.3s-.7.1-1.1.1c-.6 0-1.1-.2-1.4-.6s-.5-.9-.5-1.6h4.3v-.6c0-.6-.1-1.1-.3-1.5s-.5-.8-.9-1-.8-.3-1.4-.3c-.7-.1-1.2 0-1.6.3m-5 5.9h1.2l1.7-6.2h-1l-.9 3.3c-.1.2-.1.5-.2.7s-.1.5-.2.7c0 .2-.1.4-.1.5 0-.1 0-.3-.1-.5 0-.2-.1-.4-.2-.6s-.1-.4-.2-.6l-1.1-3.5h-1.1l-1.1 3.5c0 .1-.1.3-.1.4 0 .2-.1.3-.1.5s-.1.3-.1.4-.1.3-.1.4c0-.1 0-.3-.1-.5 0-.2-.1-.4-.1-.7s-.1-.5-.2-.7l-.9-3.3h-1.1l1.7 6.2h1.2l1.1-3.5c.1-.2.1-.3.1-.5s.1-.3.1-.5c0-.1.1-.3.1-.4s0-.2.1-.3c0 .1 0 .2.1.3 0 .1.1.3.1.4s.1.3.1.5.1.3.1.5z"/><path clip-path="url(#a)" d="m278.6 239.7c-.2-.2-.3-.5-.3-.8v-3.6h1.8v-.8h-1.8v-1.5h-.6l-.4 1.3-.9.4v.5h.9v3.6c0 .5.1.9.3 1.2s.4.5.7.6.6.2.9.2c.2 0 .4 0 .6-.1.2 0 .4-.1.5-.1v-.8c-.1 0-.2.1-.4.1s-.3 0-.5 0c-.3.1-.6 0-.8-.2m-4.2-7.4c-.1.1-.2.3-.2.5s.1.4.2.5.3.2.4.2c.2 0 .3-.1.4-.2s.2-.3.2-.5-.1-.4-.2-.5-.3-.2-.4-.2c-.2-0-.3.1-.4.2m-.1 8.4h1v-6.2h-1zm-5.2-6.1c-.4.2-.6.4-.9.8h-.1c-.1-.4-.4-.6-.7-.8s-.7-.3-1.2-.3c-.2 0-.5 0-.7.1s-.4.2-.6.3-.4.3-.5.5h-.1l-.2-.9h-.8v6.2h1v-3.2c0-.5.1-.9.2-1.2s.3-.6.5-.8.6-.3 1-.3c.3 0 .5.1.7.2s.3.3.4.5.1.5.1.8v4h1v-3.4c0-.7.1-1.2.4-1.5.3-.4.7-.5 1.3-.5.4 0 .8.1 1 .4.2.2.3.6.3 1.1v4h1v-4.1c0-.8-.2-1.4-.5-1.8s-.9-.5-1.6-.5c-.3.2-.7.2-1 .4m-14-2.7h-1v8.9h1v-2.3l.7-.6 2.2 2.9h1.2l-2.7-3.6 2.5-2.7h-1.2l-2 2.1c-.1.1-.2.2-.3.3s-.2.2-.3.4c-.1.1-.2.2-.2.3 0-.1 0-.3 0-.5s0-.4 0-.5v-4.7zm-3.9.4c-.1.1-.2.3-.2.5s.1.4.2.5.3.2.4.2c.2 0 .3-.1.4-.2s.2-.3.2-.5-.1-.4-.2-.5-.3-.2-.4-.2-.3.1-.4.2m-.1 8.4h1v-6.2h-1zm-2.8-1c-.2-.2-.3-.5-.3-.8v-3.6h1.8v-.8h-1.8v-1.5h-.6l-.4 1.3-.9.4v.5h.9v3.6c0 .5.1.9.3 1.2s.4.5.7.6.6.2.9.2c.2 0 .4 0 .6-.1.2 0 .4-.1.5-.1v-.8c-.1 0-.2.1-.4.1s-.3 0-.5 0c-.4.1-.6 0-.8-.2m-4.7-4.3c.2.2.4.4.5.6.1.3.2.6.2.9h-3.2c.1-.6.2-1 .5-1.3s.7-.5 1.2-.5c.3.1.6.2.8.3m-2.3-.6c-.4.3-.7.6-1 1.1-.2.5-.3 1.1-.3 1.8s.1 1.3.4 1.8.6.8 1.1 1.1c.5.2 1 .4 1.6.4.4 0 .8 0 1.1-.1s.6-.2.9-.3v-.9c-.3.1-.6.2-.9.3s-.7.1-1.1.1c-.6 0-1.1-.2-1.4-.6s-.5-.9-.5-1.6h4.3v-.6c0-.6-.1-1.1-.3-1.5s-.5-.8-.9-1-.8-.4-1.4-.4c-.7-0-1.2.1-1.6.4m-6.2-.2c-.4.2-.6.4-.9.8h-.1c-.1-.4-.4-.6-.7-.8s-.7-.3-1.2-.3c-.2 0-.5 0-.7.1s-.4.2-.6.3-.4.3-.5.5h-.1l-.2-.9h-.8v6.2h1v-3.2c0-.5.1-.9.2-1.2s.3-.6.5-.8.6-.3 1-.3c.3 0 .5.1.7.2s.3.3.4.5.1.5.1.8v4h1v-3.4c0-.7.1-1.2.4-1.5.3-.4.7-.5 1.3-.5.4 0 .8.1 1 .4.2.2.3.6.3 1.1v4h1v-4.1c0-.8-.2-1.4-.5-1.8-.4-.4-.9-.5-1.6-.5-.2.2-.6.2-1 .4m-7.4 3.6c-.1-.2-.4-.4-.6-.6-.3-.2-.6-.3-1-.5s-.7-.3-.9-.4-.4-.2-.5-.4c-.1-.1-.2-.3-.2-.4 0-.2.1-.4.3-.6.2-.1.5-.2 1-.2.3 0 .6 0 .9.1s.6.2.8.3l.3-.8c-.3-.1-.6-.2-.9-.3s-.7-.1-1.1-.1c-.7 0-1.3.1-1.7.4s-.6.7-.6 1.2c0 .3.1.6.2.8.2.2.4.4.7.6s.6.3 1 .5.7.3.9.4.4.2.5.4c.1.1.1.3.1.4 0 .3-.1.5-.3.7s-.6.2-1.1.2c-.4 0-.7-.1-1.1-.2s-.7-.2-.9-.3v.9c.2.1.5.2.8.3s.7.1 1.1.1c.5 0 1-.1 1.3-.2.4-.1.7-.3.9-.6s.3-.6.3-1c-0-.2-0-.5-.2-.7m-9.7-2.3c.3-.4.8-.6 1.4-.6.4 0 .8.1 1 .3.3.2.5.5.6.8.1.4.2.8.2 1.3s-.1.9-.2 1.3-.3.6-.6.8-.6.3-1 .3-.8-.1-1-.3c-.3-.2-.5-.5-.6-.8-.1-.4-.2-.8-.2-1.3-.1-.9.1-1.4.4-1.8m3.9-.1c-.2-.5-.6-.8-1-1.1s-.9-.4-1.5-.4-1.1.1-1.6.4c-.4.3-.8.6-1 1.1s-.3 1.1-.3 1.8c0 .5.1 1 .2 1.4s.3.7.6 1 .6.5.9.6.7.2 1.1.2.8-.1 1.2-.2.7-.4.9-.6c.3-.3.4-.6.6-1 .1-.4.2-.9.2-1.4 0-.7-.1-1.3-.3-1.8m-9.5.2 3.3-3.6h-1.2l-2.2 2.5c-.2.3-.5.5-.7.8s-.5.5-.7.8v-4.1h-1v8.3h1v-3.2l.8-.7 2.9 4h1.2zm-8.5-1.5c-.2.1-.5.3-.6.5-.2.2-.3.4-.5.6l-.1-1.1h-.8v6.2h1v-3.3c0-.3 0-.6.1-.9s.2-.5.4-.7.4-.3.6-.4.4-.2.7-.2h.3c.1 0 .2 0 .3.1l.1-.9c-.1 0-.2 0-.4-.1-.1 0-.3 0-.4 0-.2.1-.5.1-.7.2m-6-1.3c.1.1.2.1.4.1s.3 0 .4-.1.2-.2.2-.4-.1-.3-.2-.4-.2-.1-.4-.1-.3 0-.4.1-.2.2-.2.4.1.3.2.4m-2.2 0c.1.1.2.1.4.1.1 0 .3 0 .4-.1s.2-.2.2-.4-.1-.3-.2-.4-.2-.1-.4-.1c-.1 0-.3 0-.4.1s-.2.2-.2.4.1.3.2.4m3.1 1.3v3.2c0 .5-.1.9-.2 1.2s-.3.6-.6.8-.6.3-1.1.3-.8-.1-1-.4c-.2-.2-.3-.6-.3-1.1v-4h-1v4.1c0 .5.1 1 .3 1.3s.4.6.8.7.8.2 1.3.2c.3 0 .5 0 .8-.1.2-.1.5-.2.7-.3s.4-.3.5-.5l.2.8h.8v-6.2zm-5.4 0h-1.6v-.4c0-.5.1-.8.2-1.1.2-.2.4-.3.8-.3.2 0 .3 0 .5.1.2 0 .3.1.4.1l.3-.8c-.1-.1-.3-.1-.5-.1s-.4-.1-.7-.1c-.4 0-.8.1-1.1.2-.3.2-.5.4-.7.7s-.2.8-.2 1.3v.4l-1.1.3v.5h1.1v5.5h1v-5.5h1.6zm-8.7 5.2c-.2-.2-.3-.5-.3-.8v-3.6h1.8v-.8h-1.8v-1.5h-.6l-.4 1.3-.9.4v.5h.9v3.6c0 .5.1.9.3 1.2s.4.5.7.6.6.2.9.2c.2 0 .4 0 .6-.1.2 0 .4-.1.5-.1v-.8c-.1 0-.2.1-.4.1s-.3 0-.5 0c-.4.1-.6 0-.8-.2m-6.6-7.8h-1v8.9h1v-2.3l.7-.6 2.2 2.9h1.2l-2.7-3.6 2.5-2.7h-1.2l-2 2.1c-.1.1-.2.2-.3.3s-.2.2-.3.4c-.1.1-.2.2-.2.3 0-.1 0-.3 0-.5s0-.4 0-.5v-4.7zm-4.3 3.5c.2.2.4.4.5.6.1.3.2.6.2.9h-3.2c.1-.6.2-1 .5-1.3s.7-.5 1.2-.5c.3.1.6.2.8.3m-2.3-.6c-.4.3-.7.6-1 1.1-.2.5-.3 1.1-.3 1.8s.1 1.3.4 1.8.6.8 1.1 1.1c.5.2 1 .4 1.6.4.4 0 .8 0 1.1-.1s.6-.2.9-.3v-.9c-.3.1-.6.2-.9.3s-.7.1-1.1.1c-.6 0-1.1-.2-1.5-.6-.3-.4-.5-.9-.5-1.6h4.3v-.6c0-.6-.1-1.1-.3-1.5s-.5-.8-.9-1-.8-.4-1.4-.4-1.1.1-1.5.4m-2.1-.3h-1.6v-.4c0-.5.1-.8.3-1.1.2-.2.4-.3.8-.3.2 0 .3 0 .5.1.2 0 .3.1.4.1l.3-.8c-.1-.1-.3-.1-.5-.1s-.4-.1-.7-.1c-.4 0-.8.1-1.1.2-.3.2-.5.4-.7.7s-.2.8-.2 1.3v.4l-1.1.3v.5h1.1v5.5h1v-5.5h1.6v-.8zm-5.6 0c-.2.1-.5.3-.6.5-.2.2-.3.4-.5.6l-.1-1.1h-.8v6.2h1v-3.3c0-.3 0-.6.1-.9s.2-.5.4-.7.4-.3.6-.4.4-.2.7-.2h.3c.1 0 .2 0 .3.1l.1-.9c-.1 0-.2 0-.4-.1-.1 0-.3 0-.4 0-.2.1-.4.1-.7.2m-5.4.9c.2.2.4.4.5.6.1.3.2.6.2.9h-3.2c.1-.6.2-1 .5-1.3s.7-.5 1.2-.5c.3.1.6.2.8.3m-2.3-.6c-.4.3-.7.6-1 1.1-.2.5-.3 1.1-.3 1.8s.1 1.3.4 1.8.6.8 1.1 1.1c.5.2 1 .4 1.6.4.4 0 .8 0 1.1-.1s.6-.2.9-.3v-.9c-.3.1-.6.2-.9.3s-.7.1-1.1.1c-.6 0-1.1-.2-1.4-.6s-.5-.9-.5-1.6h4.3v-.6c0-.6-.1-1.1-.3-1.5s-.5-.8-.9-1-.8-.4-1.4-.4c-.7-0-1.2.1-1.6.4m-4.1-1.1c.3.3.5.7.5 1.2 0 .4-.1.7-.3 1-.2.2-.4.4-.8.5s-.8.2-1.3.2h-.8v-3.3h1.1c.7 0 1.2.1 1.6.4m-3.8-1.3v8.3h1v-3.2h1c.6 0 1.1-.1 1.6-.2.4-.1.8-.3 1-.6.3-.2.4-.5.6-.8.1-.3.2-.6.2-1 0-.8-.2-1.4-.7-1.8s-1.3-.6-2.4-.6h-2.3z"/><path clip-path="url(#a)" d="m194.8 369.1c.2.2.4.4.5.6.1.3.2.6.2.9h-3.2c.1-.6.2-1 .5-1.3s.7-.5 1.2-.5c.3.1.6.1.8.3m-2.3-.7c-.4.3-.7.6-1 1.1-.2.5-.3 1.1-.3 1.8s.1 1.3.4 1.8.6.8 1.1 1.1c.5.2 1 .4 1.6.4.4 0 .8 0 1.1-.1s.6-.2.9-.3v-.9c-.3.1-.6.2-.9.3s-.7.1-1.1.1c-.6 0-1.1-.2-1.5-.6-.3-.4-.5-.9-.5-1.6h4.3v-.6c0-.6-.1-1.1-.3-1.5s-.5-.8-.9-1-.8-.4-1.4-.4-1.1.2-1.5.4m-3.8 5c-.2-.2-.3-.5-.3-.8v-3.6h1.8v-.8h-1.8v-1.4h-.6l-.4 1.3-.9.4v.5h.9v3.6c0 .5.1.9.3 1.2s.4.5.7.6.6.2.9.2c.2 0 .4 0 .6-.1.2 0 .4-.1.5-.1v-.8c-.1 0-.2.1-.4.1s-.3 0-.5 0c-.4 0-.6-.1-.8-.3m-6.6-7.9h-1v8.9h1v-2.3l.7-.6 2.2 2.9h1.2l-2.7-3.6 2.5-2.7h-1.2l-2 2.1c-.1.1-.2.2-.3.3s-.2.2-.3.4c-.1.1-.2.2-.2.3 0-.1 0-.3 0-.5s0-.4 0-.5v-4.7zm-4 2.6v3.2c0 .5-.1.9-.2 1.2s-.3.6-.6.8-.6.3-1.1.3-.8-.1-1-.4c-.2-.2-.3-.6-.3-1.1v-4h-1v4.1c0 .5.1 1 .3 1.3s.4.6.8.7c.3.2.8.2 1.3.2.3 0 .5 0 .8-.1.2-.1.5-.2.7-.3s.4-.3.5-.5l.2.8h.8v-6.2zm-10.2 4.9c-.3-.4-.4-1-.4-1.7s.1-1.3.4-1.8c.3-.4.7-.7 1.2-.7.7 0 1.2.2 1.4.6.3.4.4 1 .4 1.8v.2c0 .7-.1 1.3-.4 1.6-.3.4-.7.5-1.4.5-.5.2-.9-0-1.2-.5m1.9 1.4c.2-.1.5-.2.6-.3.2-.1.3-.3.5-.5l.2.8h.8v-8.9h-1v2.5.5.4h-.1c-.1-.2-.3-.3-.5-.5-.2-.1-.4-.3-.6-.3-.2-.1-.5-.1-.9-.1-.8 0-1.4.3-1.9.8s-.7 1.4-.7 2.4c0 1.1.2 1.9.7 2.4s1.1.8 1.9.8c.5.1.8.1 1 0m-8.9-4.9c.3-.4.7-.6 1.4-.6.4 0 .8.1 1 .3.3.2.5.5.6.8.1.4.2.8.2 1.3s-.1.9-.2 1.3-.3.6-.6.8-.6.3-1 .3-.8-.1-1-.3-.5-.5-.6-.8c-.1-.4-.2-.8-.2-1.3-.1-.8.1-1.4.4-1.8m3.9 0c-.2-.5-.6-.8-1-1.1s-.9-.4-1.5-.4-1.1.1-1.5.4-.8.6-1 1.1-.4 1.1-.4 1.8c0 .5.1 1 .2 1.4s.3.7.6 1 .6.5.9.6.7.2 1.1.2.8-.1 1.2-.2.7-.4.9-.6c.3-.3.4-.6.6-1 .1-.4.2-.9.2-1.4 0-.7-.1-1.3-.3-1.8m-7.5-1.3c-.2.1-.5.3-.6.5-.2.2-.3.4-.5.6l-.1-1.1h-.8v6.2h1v-3.3c0-.3 0-.6.1-.9s.2-.5.4-.7.4-.3.6-.4.4-.2.7-.2h.3c.1 0 .2 0 .3.1l.1-.9c-.1 0-.2 0-.4-.1-.1 0-.3 0-.4 0-.2-0-.5.1-.7.2m-5.3-.8c.3.3.5.7.5 1.2 0 .4-.1.7-.3 1-.2.2-.4.4-.8.5s-.8.2-1.3.2h-.8v-3.3h1.1c.7 0 1.2.1 1.6.4m-3.8-1.3v8.3h1v-3.2h1c.6 0 1.1-.1 1.6-.2.4-.1.8-.3 1-.6.3-.2.4-.5.6-.8.1-.3.2-.6.2-1 0-.8-.2-1.4-.7-1.8s-1.3-.6-2.4-.6h-2.3z"/><path clip-path="url(#a)" d="m272.5 352.8c.2.2.4.4.5.6.1.3.2.6.2.9h-3.2c.1-.6.2-1 .5-1.3s.7-.5 1.2-.5c.3.1.6.1.8.3m-2.3-.7c-.4.3-.7.6-1 1.1-.2.5-.3 1.1-.3 1.8s.1 1.3.4 1.8.6.8 1.1 1.1c.5.2 1 .4 1.6.4.4 0 .8 0 1.1-.1s.6-.2.9-.3v-.9c-.3.1-.6.2-.9.3s-.7.1-1.1.1c-.6 0-1.1-.2-1.5-.6-.3-.4-.5-.9-.5-1.6h4.3v-.6c0-.6-.1-1.1-.3-1.5s-.5-.8-.9-1-.8-.3-1.4-.3c-.6-.1-1.1.1-1.5.3m-4.7.7c.3.2.5.4.6.8.1.3.2.8.2 1.4v.2c0 .4 0 .7-.1 1s-.2.5-.3.7-.3.3-.6.4c-.2.1-.5.1-.8.1-.5 0-1-.2-1.2-.6-.3-.4-.4-1-.4-1.8 0-.5.1-.9.2-1.3s.3-.6.6-.8c.2-.2.5-.3.9-.3.3 0 .6.1.9.2m-3.1-.2c-.5.6-.7 1.4-.7 2.4s.2 1.8.7 2.4 1.1.8 1.9.8c.4 0 .8-.1 1.1-.2.3-.2.6-.4.8-.7v.4.4.2c0 .5-.2 1-.5 1.3s-.7.5-1.3.5c-.5 0-.9 0-1.3-.1s-.7-.2-1-.4v.9c.3.1.6.2 1 .3s.8.1 1.2.1c.6 0 1.2-.1 1.6-.3s.7-.5.9-.9.3-.9.3-1.5v-6.4h-.8l-.1.8h-.1c-.2-.3-.5-.6-.8-.7-.3-.2-.7-.2-1.1-.2-.7-0-1.3.3-1.8.9m-3.2-2.9c-.1.1-.2.3-.2.5s.1.4.2.5.3.2.4.2c.2 0 .3-.1.4-.2s.2-.3.2-.5-.1-.4-.2-.5-.3-.2-.4-.2-.3 0-.4.2m-.1 8.4h1v-6.2h-1zm-2.8-1c-.2-.2-.3-.5-.3-.8v-3.6h1.8v-.8h-1.8v-1.4h-.6l-.4 1.3-.9.4v.5h.9v3.6c0 .5.1.9.3 1.2s.4.5.7.6.6.2.9.2c.2 0 .4 0 .6-.1.2 0 .4-.1.5-.1v-.8c-.1 0-.2.1-.4.1s-.3 0-.5 0c-.4 0-.6-.1-.8-.3m-3.4-7.9h-1v8.9h1zm-4 5.8v.6c0 .6-.2 1.1-.5 1.3-.4.3-.8.4-1.3.4-.3 0-.6-.1-.8-.2-.2-.2-.3-.4-.3-.8s.1-.7.4-.9.8-.3 1.6-.4zm-2.3-3.1c-.4.1-.7.2-1 .4l.3.8c.3-.1.5-.2.8-.3s.6-.1.9-.1c.4 0 .7.1 1 .3.2.2.3.6.3 1.1v.4h-1.1c-1 0-1.8.2-2.3.6-.5.3-.7.8-.7 1.4 0 .4.1.8.3 1 .2.3.4.5.7.6s.6.2 1 .2c.3 0 .6 0 .9-.1.2-.1.5-.2.7-.3.2-.2.4-.3.6-.6l.2.9h.7v-4.3c0-.7-.2-1.3-.5-1.6-.4-.3-.9-.5-1.7-.5-.4-.1-.8 0-1.1.1m-7.4-2.7h-1v8.9h1v-3.2c0-.5.1-.9.2-1.2s.3-.6.6-.8.6-.3 1.1-.3.8.1 1.1.4c.2.2.3.6.3 1.1v4h1v-4.1c0-.5-.1-1-.3-1.3s-.4-.6-.8-.7c-.3-.2-.8-.2-1.3-.2-.3 0-.5 0-.8.1-.2.1-.5.2-.7.3s-.4.3-.5.5h-.1c0-.1 0-.3 0-.4 0-.2 0-.3 0-.5v-2.6zm-6 2.6c-.2.1-.5.2-.7.3s-.4.3-.5.5h-.1l-.2-.9h-.7v6.2h1v-3.2c0-.7.1-1.3.4-1.7s.7-.6 1.4-.6c.5 0 .8.1 1.1.4.2.2.3.6.3 1.1v4h1v-3.9c0-.8-.2-1.4-.6-1.8s-.9-.5-1.7-.5c-.2 0-.5.1-.7.1m-5.2-2.1c-.1.1-.2.3-.2.5s.1.4.2.5.3.2.4.2c.2 0 .3-.1.4-.2s.2-.3.2-.5-.1-.4-.2-.5-.3-.2-.4-.2-.2 0-.4.2m-.1 8.4h1v-6.2h-1zm-5.1-6.1c-.4.2-.6.4-.9.8h-.1c-.1-.4-.4-.6-.7-.8s-.7-.3-1.2-.3c-.2 0-.5 0-.7.1s-.4.2-.6.3-.4.3-.5.5h-.1l-.2-.9h-.8v6.2h1v-3.2c0-.5.1-.9.2-1.2s.3-.6.5-.8.6-.3 1-.3c.3 0 .5.1.7.2s.3.3.4.5.1.5.1.8v4h1v-3.4c0-.7.1-1.2.4-1.5s.7-.5 1.3-.5c.4 0 .8.1 1 .4.2.2.3.6.3 1.1v4h1v-4c0-.8-.2-1.4-.5-1.8-.4-.4-.9-.5-1.6-.5-.3 0-.7.1-1 .3m-8.7 3v.6c0 .6-.2 1.1-.5 1.3-.3.3-.8.4-1.3.4-.3 0-.6-.1-.8-.2-.2-.2-.3-.4-.3-.8s.1-.7.4-.9.8-.3 1.6-.4zm-2.4-3.1c-.4.1-.7.2-1 .4l.3.8c.3-.1.5-.2.8-.3s.6-.1.9-.1c.4 0 .7.1 1 .3.2.2.3.6.3 1.1v.4h-1.1c-1 0-1.8.2-2.3.6-.5.3-.7.8-.7 1.4 0 .4.1.8.3 1 .2.3.4.5.7.6s.6.2 1 .2.6 0 .9-.1c.2-.1.5-.2.7-.3.2-.2.4-.3.6-.6l.2.9h.7v-4.3c0-.7-.2-1.3-.5-1.6-.4-.3-.9-.5-1.7-.5-.3-.1-.7 0-1.1.1m-4 5.2c-.2-.2-.3-.5-.3-.8v-3.6h1.8v-.8h-1.8v-1.4h-.6l-.4 1.3-.9.4v.5h.9v3.6c0 .5.1.9.3 1.2s.4.5.7.6.6.2.9.2c.2 0 .4 0 .6-.1.2 0 .4-.1.5-.1v-.8c-.1 0-.2.1-.4.1s-.3 0-.5 0c-.4 0-.6-.1-.8-.3m-4.3-7.4c-.1.1-.2.3-.2.5s.1.4.2.5.3.2.4.2c.2 0 .3-.1.4-.2s.2-.3.2-.5-.1-.4-.2-.5-.3-.2-.4-.2-.3 0-.4.2m-.1 8.4h1v-6.2h-1zm-3.4 0 2.4-6.2h-1.1l-1.3 3.7c-.1.2-.1.3-.2.6-.1.2-.1.4-.2.6s-.1.4-.1.5c0-.1-.1-.3-.1-.5-.1-.2-.1-.4-.2-.6s-.1-.4-.2-.6l-1.3-3.7h-1.1l2.4 6.2zm-8.2-6.2c-.2.1-.5.3-.6.5-.2.2-.3.4-.5.6l-.1-1.1h-.8v6.2h1v-3.3c0-.3 0-.6.1-.9s.2-.5.4-.7.4-.3.6-.4.4-.2.7-.2h.3c.1 0 .2 0 .3.1l.1-.9c-.1 0-.2 0-.4-.1-.1 0-.3 0-.4 0-.2-0-.5.1-.7.2m-6-1.3c.1.1.2.1.4.1.1 0 .3 0 .4-.1s.2-.2.2-.4-.1-.3-.2-.4-.2-.1-.4-.1c-.1 0-.3 0-.4.1s-.2.2-.2.4c0 .1.1.3.2.4m-2.2 0c.1.1.2.1.4.1.1 0 .3 0 .4-.1s.2-.2.2-.4-.1-.3-.2-.4-.2-.1-.4-.1c-.1 0-.3 0-.4.1s-.2.2-.2.4c0 .1.1.3.2.4m3 1.2v3.3c0 .5-.1.9-.2 1.2s-.3.6-.6.8-.6.3-1.1.3-.8-.1-1-.4c-.2-.2-.3-.6-.3-1.1v-4h-1v4.1c0 .5.1 1 .3 1.3s.4.6.8.7c.3.2.8.2 1.3.2.3 0 .5 0 .8-.1.2-.1.5-.2.7-.3s.4-.3.5-.5l.2.8h.8v-6.2h-1.2zm-5.3 0h-1.6v-.4c0-.5.1-.8.2-1.1.2-.2.4-.3.8-.3.2 0 .3 0 .5.1s.3.1.4.1l.3-.8c-.1-.1-.3-.1-.5-.1s-.4-.1-.7-.1c-.4 0-.8.1-1.1.2-.3.2-.5.4-.7.7s-.2.8-.2 1.3v.4l-1.1.4v.5h1.1v5.5h1v-5.5h1.6zm-7.9-2.6h-1v8.9h1zm-3.9 5.8v.6c0 .6-.2 1.1-.5 1.3-.4.3-.8.4-1.3.4-.3 0-.6-.1-.8-.2-.2-.2-.3-.4-.3-.8s.1-.7.4-.9.8-.3 1.6-.4zm-2.4-3.1c-.4.1-.7.2-1 .4l.3.8c.3-.1.5-.2.8-.3s.6-.1.9-.1c.4 0 .7.1 1 .3.2.2.3.6.3 1.1v.4h-1.1c-1 0-1.8.2-2.3.6-.5.3-.7.8-.7 1.4 0 .4.1.8.3 1 .2.3.4.5.7.6s.6.2 1 .2c.3 0 .6 0 .9-.1.2-.1.5-.2.7-.3.2-.2.4-.3.6-.6l.2.9h.7v-4.3c0-.7-.2-1.3-.5-1.6-.4-.3-.9-.5-1.7-.5-.4-.1-.8 0-1.1.1m-4.5.9c.2.2.4.4.5.6.1.3.2.6.2.9h-3.2c.1-.6.2-1 .5-1.3s.7-.5 1.2-.5c.3.1.5.1.8.3m-2.3-.7c-.4.3-.7.6-1 1.1-.2.5-.3 1.1-.3 1.8s.1 1.3.4 1.8.6.8 1.1 1.1c.5.2 1 .4 1.6.4.4 0 .8 0 1.1-.1l.9-.3v-.9c-.3.1-.6.2-.9.3s-.7.1-1.1.1c-.6 0-1.1-.2-1.4-.6s-.5-.9-.5-1.6h4.3v-.6c0-.6-.1-1.1-.3-1.5s-.5-.8-.9-1-.8-.3-1.4-.3c-.7-.1-1.2.1-1.6.3m-7 4.6c-.3-.4-.4-1-.4-1.7s.1-1.3.4-1.8c.3-.4.7-.7 1.2-.7.7 0 1.2.2 1.4.6.3.4.4 1 .4 1.8v.2c0 .7-.1 1.3-.4 1.6-.3.4-.7.5-1.4.5-.5.1-1-.1-1.2-.5m1.9 1.4c.2-.1.5-.2.6-.3.2-.1.3-.3.5-.5l.2.8h.8v-8.9h-1v2.5.5.4h-.1c-.1-.2-.3-.3-.5-.5-.2-.1-.4-.2-.6-.3s-.5-.1-.9-.1c-.8 0-1.4.3-1.9.8s-.7 1.4-.7 2.4.2 1.9.7 2.4 1.1.8 1.9.8c.5.1.8.1 1 0m-4.5-.6-1-.2v-6.7l1-.2v-.6h-3v.6l1 .2v6.7l-1 .2v.6h3z"/></g><path clip-path="url(#a)" d="m333.1 50.3h223v454.6h-223z" fill="none" stroke="#4a545c"/><path d="m339.4 57.3h210.5v355h-210.5z" fill="none" stroke="#4a545c" stroke-width=".98"/><path clip-path="url(#b)" d="m332.6 418.4h224" fill="none" stroke="#4a545c"/><path d="m339.6 293.3h209" fill="none" stroke="#4a545c"/><path d="m339.6 175.8h209" fill="none" stroke="#4a545c"/><path d="m271 57.2h60" fill="none" stroke="#4a545c" stroke-dasharray="4 4"/><path d="m271.6 175.8h60" fill="none" stroke="#4a545c" stroke-dasharray="4 4"/><path d="m271.6 293.3h60" fill="none" stroke="#4a545c" stroke-dasharray="4 4"/><path d="m271.6 411.3h60" fill="none" stroke="#4a545c" stroke-dasharray="4 4"/><path d="m341.1 504.8h9.5v10.5h-9.5z" fill="#4a545c"/><path d="m536.6 504.8h9.5v10.5h-9.5z" fill="#4a545c"/><path clip-path="url(#c)" d="m444.6 436.8c2.2 0 4-1.8 4-4s-1.8-4-4-4-4 1.8-4 4 1.8 4 4 4" fill="#4a545c"/><path clip-path="url(#c)" d="m340.6 230.3c2.2 0 4-1.8 4-4s-1.8-4-4-4-4 1.8-4 4 1.8 4 4 4" fill="#4a545c"/><path clip-path="url(#c)" d="m434 399.1v-.1s0-.7-.1-1.2c-.1-.4-.2-.8-.4-1.2-.3-.5-.8-.7-1.3-.6-.3.1-.6.3-.8.5-.3.4-.5.9-.6 1.4-.1.6-.2 1.3-.1 1.9 0 .4.1.7.2 1.1.4.9 1.4 1.2 2.2.7.3-.2.5-.6.6-.9.3-.5.3-1.6.3-1.6m-3.3-6.8v.1 4.2.1s0-.1.1-.1c.2-.5.6-.9 1-1.1.8-.4 2-.3 2.7.7.3.5.5 1 .6 1.5.2.8.2 1.7 0 2.5-.1.4-.2.8-.4 1.2-.3.6-.9.9-1.5 1.1s-1.2.2-1.8 0c-.8-.2-1.3-.7-1.6-1.5-.1-.4-.2-.8-.2-1.2 0-.1 0-.1 0-.2v-7.3z" fill="#4a545c"/><path clip-path="url(#c)" d="m454.8 397.5c0-.4-.1-.8-.3-1.1s-.6-.4-.9-.5c-.5 0-1 .1-1.3.5-.2.3-.3.6-.4.9v.2zm1.1.6h-4.1c0 .3 0 .5.1.8.1.6.2 1.1.5 1.6.3.7.8 1.1 1.6 1.3.5.1 1.1.1 1.6-.1.1 0 .2 0 .3-.1v.6s0 .1-.1.1c-.5.1-.9.2-1.4.3-.6 0-1.2 0-1.7-.3-.8-.3-1.4-1-1.7-1.8-.2-.6-.3-1.3-.3-1.9s.1-1.1.3-1.7c.4-.9 1.1-1.5 2.1-1.6.5-.1.9 0 1.3.1.8.2 1.2.8 1.4 1.5.1.4.2.8.1 1.2" fill="#4a545c"/><path clip-path="url(#c)" d="m446 401.7h3.7v.8h-5c0-.1 0-.2 0-.3 0-.3.1-.5.2-.7 1.1-1.7 2.2-3.4 3.3-5.1 0 0 0-.1.1-.1h-3.3v-.7h4.7v.7s0 .1-.1.1c-.9 1.3-1.7 2.5-2.6 3.8-.3.5-.7 1-1 1.5.1-.1.1-.1 0 0" fill="#4a545c"/><path clip-path="url(#c)" d="m443.6 396.6c-.3-.1-.5-.3-.8-.4-.5-.2-1-.2-1.5-.1h-.1c-.6.2-.7.9-.3 1.3.2.2.4.3.7.5.4.2.9.5 1.3.7.3.2.5.3.7.6.4.4.5.8.5 1.4 0 .7-.3 1.3-1 1.6-.3.2-.6.3-1 .3-.8.1-1.6 0-2.4-.2-.1 0-.1-.1-.1-.2 0-.3 0-.6 0-1 0 0 .1 0 .1.1.4.3.9.5 1.4.6.4.1.8.1 1.2-.1.6-.2.8-.8.6-1.3-.1-.2-.2-.3-.3-.4-.2-.1-.4-.3-.6-.4-.5-.3-1-.6-1.5-.9-.3-.2-.6-.4-.8-.8-.5-1 0-2.1 1-2.5.5-.2 1.1-.2 1.6-.2.4 0 .8.1 1.1.2 0 0 .1 0 .1.1.1.4.1.7.1 1.1" fill="#4a545c"/><path clip-path="url(#c)" d="m457.8 396.1h-1.2v-.1c0-.1 0-.3 0-.4s0-.1.1-.1h1 .1v-.1c0-.5 0-1 0-1.4v-.1c.3-.2.7-.4 1-.6v2.3h1.9v.7h-1.9v.1 4.4.5c.1.5.4.7.9.8.3 0 .6 0 .9-.1v.3.4c0 .1 0 .1-.1.1-.4 0-.7 0-1.1 0-.3 0-.6-.1-.9-.2-.6-.2-.8-.6-.9-1.2 0-.2 0-.4 0-.5 0-1.5 0-2.9 0-4.4.2-.3.2-.3.2-.4" fill="#4a545c"/><path clip-path="url(#c)" d="m437.9 398.9v3.3c0 .1 0 .1-.1.1-.3 0-.5 0-.8 0-.1 0-.1 0-.1-.1 0-2.2 0-4.5 0-6.7 0-.1 0-.1.1-.1h.8c.1 0 .1 0 .1.1z" fill="#4a545c"/><path d="m436.8 403.4h1.1v1.1h-1.1z" fill="#4a545c"/></svg>