<svg enable-background="new 0 0 190 85" viewBox="0 0 190 85" xmlns="http://www.w3.org/2000/svg"><path clip-rule="evenodd" d="m136.8 61h-.8v24h1.5v-24zm-119.6 3c2.5 2.4 3.8 5.6 3.8 9 0 3.3-1.3 6.5-3.7 8.8-2.6 2.5-5.5 3.2-9 3.2h-4.3v-24h4.3c3.5 0 6.3.6 8.9 3zm2.3 9c0-3.1-1.2-5.9-3.5-8s-4.8-2.6-7.7-2.6h-2.8v21.1h2.8c3.1 0 5.7-.6 8-2.9 2-2 3.2-4.7 3.2-7.6zm4.5 12v-24h12v1.4h-10.4v8.7h10.1v1.4h-10.1v11h10.4v1.5zm27.2-1c-6.5 0-12.2-5.4-12.2-12s5.6-12 12.2-12c2.8 0 5.7 1.1 7.8 3v2c-1.8-2.2-5-3.7-7.9-3.7-5.8 0-10.7 5-10.7 10.8 0 2.7 1.2 5.3 3.1 7.2 2 1.9 4.8 3.2 7.5 3.2s6.1-1.5 7.9-3.6v2c-2.1 2-4.8 3.1-7.7 3.1zm20.3-24c6.8 0 12.5 5.4 12.5 12s-5.7 12-12.5 12-12.5-5.4-12.5-12 5.7-12 12.5-12zm11 12c0-5.8-5-10.6-11-10.6s-11 4.8-11 10.6 5 10.6 11 10.6 11-4.9 11-10.6zm8.6 1.6 7.9 11.4h-1.8l-7.9-11.4h-.8v11.4h-1.5v-24h3c2 0 3.9 0 5.5 1.2 1.7 1.2 2.4 3.1 2.4 5.2.1 4.1-2.8 6.3-6.8 6.2zm3.7-2.5c1.2-.9 1.7-2.4 1.7-3.8 0-1.8-.8-3.6-2.6-4.3-1.3-.6-2.9-.5-4.3-.5h-1v9.8h2c1.4-.1 2.9-.2 4.2-1.2zm16.7-11.1 9.5 25h-1.5l-3-8h-10l-3 8h-1.5zm4.4 15.6-4.4-11.7-4.5 11.7zm11.9 9.4h-1.5v-22.6h-6.3v-1.4h14v1.4h-6.2zm38.2-13c0 6.6-5.7 12-12.5 12s-12.5-5.4-12.5-12 5.7-12 12.5-12 12.5 5.4 12.5 12zm-1.5 0c0-5.8-5-10.6-11-10.6s-11 4.8-11 10.6 5 10.6 11 10.6 11-4.9 11-10.6zm6 12.2h-1.5v-24.2l19.5 21.2v-20.9h1.5v24.7l-19.5-21.3zm-146.5-27.2h-24v-.8h4.3v-55.4h-4.3v-.8h23.5v15.1h-.8c0-13.3-5.2-14.3-11.6-14.3v26.6c6 0 6.8-4.2 6.8-10.4h.8v21.3h-.8c0-6.1-.7-10.1-6.8-10.1v28c6.4 0 12.1-1.4 12.1-14.4h.8zm54.5-15.3h.5v15.3h-23v-.5h4v-56h-4v-.5h14.8v.5h-4.1v56c6.3 0 11.8-1.8 11.8-14.8zm56 0h.5v15.3h-23v-.5h4.1v-56h-4.1v-.5h14.8v.5h-4.1v56c6.3 0 11.8-1.8 11.8-14.8zm43.2-13.8v28.1c6.3 0 11.8-1.4 11.8-14.4h.5v15.4h-23v-.5h4.1v-56h-4.1v-.5h22.6v15.2h-.5c0-13.3-5.1-14.3-11.4-14.3v26.5c5.9 0 6.5-4.4 6.5-10.5h.5v21.3h-.5c0-6.1-.6-10.3-6.5-10.3z" fill="#c3b09e" fill-rule="evenodd"/></svg>