<svg enable-background="new 0 0 566.9 602.4" viewBox="0 0 566.9 602.4" xmlns="http://www.w3.org/2000/svg"><g clip-rule="evenodd" fill-rule="evenodd"><path d="m17.7 10.4h531.5v581.6h-531.5z" fill="#c3b09e"/><path d="m294.8 508h52.3v-424.4h-52.3zm-97.6-23.1c0 12.7-10.2 22.9-22.8 22.9h-103.1v-424.3h103.2c12.4 0 22.6 10.2 22.7 22.9v148.7c0 12-9.8 21.7-21.8 21.7h-2.3c13.3 0 24.1 10.8 24.1 24v9.3zm-73.6-349h21.5v120.9h-21.5zm0 172.9h21.5v146.5h-21.5zm372.1 199.1v-424.4h-52.3v73.9h-50.9c-12.5 0-22.6 10.2-22.6 22.9l-.1 304.6c0 12.7 10.2 22.9 22.8 22.9zm-52.3-298.7h-21.5v246.1h21.5zm-223.5-73.3h52.3v-52.4h-52.3zm0 372.1h52.3v-350.6h-52.3z" fill="#fff"/></g></svg>