<svg enable-background="new 0 0 125.3 40.3" viewBox="0 0 125.3 40.3" xmlns="http://www.w3.org/2000/svg"><g fill="#c3b09e"><path d="m16.4 29.4v10.8h-16.4v-.3h2.9v-39.5h-2.9v-.4h16.1v10.8h-.4c0-9.4-3.6-10.1-8.1-10.1v18.7c4.2 0 4.6-3.1 4.6-7.4h.4v15h-.4c0-4.3-.4-7.3-4.6-7.3v19.9c4.5 0 8.4-1 8.4-10.1h.4z"/><path d="m43.9 39.9c4.5 0 8.4-1.3 8.4-10.5h.3v10.8h-16.3v-.3h2.9v-39.5h-2.9v-.4h10.5v.4h-2.9z"/><path d="m80.2 39.9c4.5 0 8.4-1.3 8.4-10.5h.4v10.8h-16.4v-.3h2.9v-39.5h-2.9v-.4h10.5v.4h-2.9z"/><path d="m125.3 29.4v10.8h-16.4v-.3h2.9v-39.5h-2.9v-.4h16.1v10.8h-.4c0-9.4-3.6-10.1-8.1-10.1v18.7c4.2 0 4.6-3.1 4.6-7.4h.4v15h-.4c0-4.3-.4-7.3-4.6-7.3v19.9c4.5 0 8.4-1 8.4-10.1h.4z"/></g></svg>