<svg enable-background="new 0 0 425.2 425.2" viewBox="0 0 425.2 425.2" xmlns="http://www.w3.org/2000/svg"><g fill="#4a545c"><path d="m43.7 141.2v1.2 48.7 1.2c.1 0 .2.1.3.1.2-.4.4-.7.6-1.1 2.9-5.4 6.6-10 12.2-12.9 9.1-4.8 23.8-3.4 31.9 7.7 3.9 5.3 6.1 11.4 7.3 17.8 1.8 9.6 1.9 19.3 0 29-.9 4.9-2.5 9.5-5.1 13.7-4.1 6.7-9.9 11-17.5 12.9-7.1 1.8-14.2 1.8-21.2 0-9.5-2.4-15.5-8.6-18.5-17.7-1.5-4.4-2.1-9-2.4-13.6 0-.7-.2-1.4-.3-2.1 0-28.3 0-56.6 0-85 4.2.1 8.5.1 12.7.1zm39.4 78.4v-1.2s-.6-8.6-1.3-13.5c-.8-5-2.3-9.8-5.2-14-3.7-5.5-8.9-7.8-15.4-6.5-4 .8-7 3.1-9.5 6.3-3.6 4.8-5.5 10.3-6.7 16.1-1.6 7.4-1.8 14.8-1.2 22.3.4 4.4 1.2 8.6 2.9 12.7 4.5 10.7 16.8 14.5 26.1 7.9 3.8-2.7 6-6.6 7.5-11 2.3-6.1 2.8-19.1 2.8-19.1z"/><path d="m338.7 208.6c-15.9 0-31.7 0-47.7 0 .2 3.2.3 6.2.7 9.2.7 6.7 2.3 13.1 5.4 19.1 3.9 7.6 9.7 13.1 18.2 15 6.2 1.4 12.5 1 18.6-.7 1.1-.3 2.1-.6 3.3-.9v6.6c0 .3-.5.8-.8.9-5.4 1.7-10.8 2.8-16.4 3-7 .2-13.8-.5-20.3-3.2-9.7-4-15.9-11.3-19.4-21-2.6-7.2-3.3-14.7-3.2-22.3.1-6.7.9-13.3 3.4-19.6 4.4-11.1 12.5-17.3 24.3-18.6 5.3-.6 10.5-.5 15.7 1.1 9.1 2.7 14.4 9.1 16.8 18.1 1.1 4.3 1.5 8.7 1.4 13.3zm-13.1-7.4c0-4.6-.7-8.9-3.4-12.7-2.6-3.7-6.4-5.2-10.8-5.6-6-.6-11.3.9-15.3 5.7-2.5 3-3.9 6.6-4.5 10.4-.1.7-.1 1.5-.2 2.3 11.4-.1 22.7-.1 34.2-.1z"/><path d="m223 250h43.4v8.9c-19.3 0-38.6 0-58.1 0 0-1.3.1-2.5 0-3.8-.4-3.2.7-5.9 2.5-8.5 13.1-19.7 26-39.5 38.9-59.2.2-.4.5-.8.9-1.4-13.2 0-26.2 0-39.3 0 0-2.8 0-5.4 0-8.1h54.6v7.9c0 .4-.4.9-.6 1.2-10 14.8-19.9 29.7-29.9 44.5-3.9 5.7-7.7 11.5-11.6 17.2-.2.4-.4.7-.8 1.3z"/><path d="m194.8 190.6c-3.3-1.4-6.4-3-9.6-4.1-5.7-2.1-11.5-2.9-17.5-1.1-.5.1-.9.3-1.4.5-6.9 2.8-8.4 10.4-3.2 15.7 2.3 2.3 5 4 7.8 5.5 5 2.8 10.1 5.4 15.2 8.2 3.1 1.8 6.1 3.9 8.5 6.6 4.1 4.5 5.6 9.9 5.4 15.8-.3 8.4-4 14.8-11.3 19.1-3.5 2-7.4 3.3-11.4 3.8-9.5 1.2-18.9.5-28.1-2.3-1.2-.4-1.6-.8-1.6-2.1.1-3.6 0-7.3 0-11.1.5.3.9.4 1.2.6 5.2 3 10.6 5.5 16.5 6.5 4.8.8 9.5.7 14.1-1.1 6.5-2.5 9.7-9.2 7.4-15.5-.7-2-2-3.7-3.6-5-2.3-1.7-4.6-3.3-7-4.8-5.7-3.4-11.5-6.6-17.2-9.9-3.6-2.2-6.8-4.9-8.8-8.8-5.8-11.1-.1-24.9 11.9-29 6-2.1 12.2-2.4 18.5-1.8 4.5.5 8.9 1.6 13.4 2.5.3.1.9.5.9.7-.1 3.6-.1 7.4-.1 11.1z"/><path d="m360.1 185.6c-4.9 0-9.5 0-14.3 0 0-.5-.1-1-.1-1.4 0-1.7 0-3.4 0-5.2 0-.9.3-1.2 1.2-1.2 3.8.1 7.7 0 11.5 0h1.6c0-.5 0-1 0-1.4 0-5.6 0-11.1 0-16.7 0-.4.1-1 .4-1.2 4-2.5 8-4.9 12.1-7.4v26.7h22.1v7.8c-7.3 0-14.6 0-22 0 0 .6-.1 1-.1 1.4v51.2c0 1.8.2 3.6.5 5.4 1.1 5.4 4.7 8.5 10.3 9.1 3.6.4 7.1.2 10.8-.8v3.4 4.1c0 .8-.3 1.1-1 1.1-4.2.1-8.4.4-12.6.4-3.4 0-6.8-.6-10.1-1.9-6.6-2.5-9.7-7.5-10.4-14.2-.2-2.1-.2-4.1-.2-6.2 0-17.1 0-34.1 0-51.2.3-.6.3-1.2.3-1.8z"/><path d="m128.6 218.4v39c0 1.6 0 1.6-1.6 1.6-3.1 0-6.2 0-9.4 0-.9 0-1.3-.2-1.3-1.3 0-26.1 0-52.3 0-78.4 0-.9.3-1.3 1.2-1.2 3.2 0 6.5.1 9.7 0 1.1 0 1.4.4 1.4 1.4z"/><path d="m128.8 269.9v13c-4.3 0-8.6 0-13 0 0-4.3 0-8.6 0-13z"/></g><g fill="#fff"><path d="m83.1 219.6c0 6.5-.5 12.9-2.7 19.1-1.5 4.4-3.7 8.3-7.5 11-9.3 6.5-21.7 2.8-26.1-7.9-1.7-4.1-2.5-8.3-2.9-12.7-.6-7.5-.4-14.9 1.2-22.3 1.2-5.8 3.1-11.3 6.7-16.1 2.4-3.2 5.4-5.6 9.5-6.3 6.5-1.2 11.7 1.1 15.4 6.5 2.9 4.2 4.4 9.1 5.2 14 .7 4.8.8 9.3 1.4 14.2-.2.1-.1.5-.2.5z"/><path d="m325.6 201.2c-11.5 0-22.7 0-34.2 0 .1-.8.1-1.5.2-2.3.6-3.9 2-7.4 4.5-10.4 4-4.8 9.3-6.2 15.3-5.7 4.4.4 8.1 2 10.8 5.6 2.7 3.8 3.4 8.1 3.4 12.8z"/></g></svg>