<?xml version="1.0" encoding="UTF-8" standalone="no"?><!DOCTYPE svg PUBLIC "-//W3C//DTD SVG 1.1//EN" "http://www.w3.org/Graphics/SVG/1.1/DTD/svg11.dtd"><svg width="100%" height="100%" viewBox="0 0 189 64" version="1.1" xmlns="http://www.w3.org/2000/svg" xmlns:xlink="http://www.w3.org/1999/xlink" xml:space="preserve" xmlns:serif="http://www.serif.com/" style="fill-rule:evenodd;clip-rule:evenodd;stroke-linejoin:round;stroke-miterlimit:2;"><g><path d="M101.287,52.318c-7.673,-0 -12.277,-6.557 -12.277,-12.975c0,-5.86 4.186,-13.114 12.417,-13.114c4.604,-0 10.185,3.209 10.185,11.161l-17.579,-0l-0,1.535c-0,5.441 2.929,10.184 8.65,10.184c3.766,0 7.673,-3.069 8.649,-5.581c-0.139,4.465 -4.324,8.79 -10.045,8.79m-7.115,-16.881l12.277,-0c0,-5.302 -2.929,-7.255 -5.859,-7.255c-3.767,-0 -5.86,3.488 -6.418,7.255" style="fill:#c3b09e;"/><path d="M160.023,48.97l-0,-15.487c-0,-6.417 -5.302,-7.254 -8.51,-7.254c-4.325,-0 -6.558,1.395 -8.511,2.65l0.14,6.697c1.255,-3.906 3.209,-7.394 7.813,-7.394c3.348,-0 4.604,2.372 4.604,4.743c-0,0.279 -0,2.093 -0.279,2.233c-1.675,1.813 -8.232,2.511 -11.022,4.325c-2.79,1.674 -3.628,4.045 -3.628,6.138c0,2.372 1.675,6.557 6.558,6.557c3.627,0 6.417,-1.953 8.231,-3.627l0,0.419c0,1.255 -0.558,2.232 -1.395,2.79c-0,-0 2.093,-0.419 3.767,-0.419c1.674,0 3.906,0.419 3.906,0.419c-0.976,-0.419 -1.674,-1.535 -1.674,-2.79m-10.603,0.279c-2.511,-0 -4.186,-1.675 -4.186,-4.465c0,-2.79 1.954,-4.046 4.465,-5.022c2.511,-0.837 4.046,-1.256 5.86,-2.093l-0,8.789c-1.535,1.535 -3.488,2.791 -6.139,2.791" style="fill:#c3b09e;"/><path d="M120.819,48.97l0,-19.253c0,-1.954 0.559,-3.209 1.396,-3.628c-0,0 -1.954,-0.139 -3.767,1.395c-1.674,-1.534 -3.767,-1.395 -3.767,-1.395c0.837,0.419 1.395,1.674 1.395,3.628l-0,19.253c-0,1.255 -0.558,2.232 -1.395,2.79c-0,-0 2.093,-0.279 3.767,-0.279c1.674,-0 3.906,0.279 3.906,0.279c-0.976,-0.419 -1.535,-1.535 -1.535,-2.79" style="fill:#c3b09e;"/><path d="M120.122,18.137c-0.698,0.558 -1.256,1.116 -1.535,1.674c-1.395,-4.604 -10.045,-7.255 -5.72,-12.277c-8.789,8.371 4.325,10.603 5.72,17.858c0.14,-1.954 1.116,-3.209 2.511,-4.465c0.14,-1.116 -0.279,-1.953 -0.976,-2.79" style="fill:#c3b09e;"/><path d="M126.261,10.882c-1.117,-4.604 -9.487,-8.51 -7.116,-10.882c-5.859,3.488 1.395,8.092 4.744,11.719c1.116,1.395 0.558,2.651 -0.558,3.767c-2.372,-4.464 -10.045,-7.813 -6.976,-11.301c-5.86,5.162 -0.14,8.371 3.348,11.859c0.419,0.419 0.837,0.837 1.116,1.395c0.559,0.837 0.977,1.674 1.117,2.512c-0,0.558 -0,1.116 -0.14,1.674c-0.139,0.418 -0.279,0.837 -0.558,1.116c1.814,-1.674 2.511,-3.209 2.651,-4.604c1.813,-1.674 3.069,-3.767 2.372,-7.255" style="fill:#c3b09e;"/><path d="M41.296,48.97l0,-18.835c0,-2.232 0.14,-3.627 1.395,-3.906c-0.418,-0 -2.371,0.139 -3.766,0.418c-1.396,-0.279 -3.209,-0.418 -3.628,-0.418c1.256,0.418 1.395,1.674 1.395,3.906l0,16.184c-1.534,1.534 -3.069,2.79 -5.72,2.79c-3.069,0 -5.58,-2.372 -5.58,-6.976l-0,-11.998c-0,-2.232 0.139,-3.627 1.395,-3.906c-0.419,-0 -2.511,0.139 -3.767,0.418c-1.395,-0.279 -3.348,-0.418 -3.767,-0.418c1.256,0.418 1.395,1.674 1.395,3.906l0,11.998c0,8.092 5.023,10.185 8.231,10.185c3.767,-0 6.139,-1.814 7.813,-3.627l0,0.418c0,1.256 -0.697,2.232 -1.534,2.79c-0,0 2.092,-0.279 3.767,-0.279c1.674,0 3.906,0.279 3.906,0.279c-0.977,-0.558 -1.535,-1.674 -1.535,-2.929" style="fill:#c3b09e;"/><path d="M85.104,48.97l-0,-15.347c-0,-5.023 -4.325,-7.394 -7.953,-7.394c-3.487,-0 -6.836,2.511 -8.51,4.743c-1.116,-3.069 -4.325,-4.743 -7.394,-4.743c-3.628,-0 -6.557,2.65 -7.953,3.767c0,-2.093 0.14,-3.488 1.396,-3.767c-0.419,-0 -2.372,0.139 -3.767,0.418c-1.395,-0.279 -3.209,-0.418 -3.628,-0.418c1.256,0.418 1.396,1.674 1.396,3.906l-0,18.974c-0,1.256 -0.698,2.232 -1.535,2.79c-0,0 2.093,-0.279 3.767,-0.279c1.674,0 3.906,0.279 3.906,0.279c-0.837,-0.418 -1.535,-1.534 -1.535,-2.79l0,-17.021c0.977,-1.255 2.93,-2.79 5.442,-2.79c4.324,0 5.58,2.651 5.58,5.72l0,13.952c0,1.255 -0.558,2.232 -1.395,2.79c-0,-0 2.093,-0.279 3.767,-0.279c1.674,-0 3.906,0.279 3.906,0.279c-0.837,-0.419 -1.534,-1.535 -1.534,-2.79l-0,-15.487c-0,-0.279 -0,-0.558 -0.14,-0.837c1.395,-1.953 3.627,-3.348 5.86,-3.348c4.185,0 5.72,2.79 5.72,5.999l-0,13.812c-0,1.256 -0.698,2.232 -1.535,2.79c0,0 2.093,-0.279 3.767,-0.279c1.674,0 3.906,0.279 3.906,0.279c-0.837,-0.558 -1.534,-1.674 -1.534,-2.929" style="fill:#c3b09e;"/><path d="M138.119,26.229c-1.953,-0 -4.743,2.79 -5.859,4.743l-0.14,0.14l0,-0.977c0,-2.232 0.14,-3.627 1.395,-3.906c-0.418,-0 -2.371,0.139 -3.767,0.418c-1.395,-0.279 -3.208,-0.418 -3.627,-0.418c1.256,0.418 1.395,1.674 1.395,3.906l0,18.974c0,1.116 -0.558,2.232 -1.395,2.79c-0,0 2.093,-0.279 3.767,-0.279c1.674,0 3.906,0.279 3.906,0.279c-0.837,-0.418 -1.534,-1.534 -1.534,-2.79l-0,-16.184c0.976,-1.255 2.65,-2.929 4.743,-2.929c1.395,-0 2.372,0.697 3.209,1.674l-0,-5.023c-0.698,-0.279 -0.837,-0.418 -2.093,-0.418" style="fill:#c3b09e;"/><path d="M187.647,48.97l-0,-15.208c-0,-5.022 -3.907,-7.533 -8.092,-7.533c-3.627,-0 -6.976,2.79 -8.231,3.906l-0,-11.161c-0,-2.232 0.139,-3.627 1.395,-3.906c-0.419,-0 -2.372,0.139 -3.767,0.418c-1.395,-0.279 -3.348,-0.418 -3.767,-0.418c1.256,0.418 1.395,1.674 1.395,3.906l0,30.135c0,1.256 -0.558,2.232 -1.534,2.79c-0,0 2.092,-0.279 3.766,-0.279c1.675,0 3.907,0.279 3.907,0.279c-0.837,-0.418 -1.535,-1.534 -1.535,-2.79l0,-16.881c0.977,-1.395 3.488,-2.79 5.86,-2.79c4.464,-0 5.72,2.929 5.72,6.138l-0,13.533c-0,1.256 -0.698,2.232 -1.535,2.79c0,0 2.093,-0.279 3.767,-0.279c1.674,0 3.906,0.279 3.906,0.279c-0.697,-0.558 -1.255,-1.674 -1.255,-2.929" style="fill:#c3b09e;"/></g><path d="M12.138,15.347c-1.395,-0.279 -3.628,-0.419 -4.046,-0.419c1.255,0.419 1.395,1.674 1.395,3.906l-0,26.927c-0,14.091 -7.813,16.741 -9.487,17.718c13.114,-1.953 14.649,-15.347 14.649,-18.137l0,-26.508c0,-2.232 0.14,-3.627 1.395,-3.906c-0.279,0 -2.511,0.279 -3.906,0.419" style="fill:#c3b09e;fill-rule:nonzero;"/></svg>