<?xml version="1.0" encoding="UTF-8" standalone="no"?><!DOCTYPE svg PUBLIC "-//W3C//DTD SVG 1.1//EN" "http://www.w3.org/Graphics/SVG/1.1/DTD/svg11.dtd"><svg width="100%" height="100%" viewBox="0 0 144 101" version="1.1" xmlns="http://www.w3.org/2000/svg" xmlns:xlink="http://www.w3.org/1999/xlink" xml:space="preserve" xmlns:serif="http://www.serif.com/" style="fill-rule:evenodd;clip-rule:evenodd;stroke-linejoin:round;stroke-miterlimit:2;"><g><clipPath id="_clip1"><rect x="0.1" y="-0.025" width="143.6" height="100.8"/></clipPath><g clip-path="url(#_clip1)"><path d="M5.2,89.575c-0,-0.1 0.1,-0.8 -0.2,-0.8l-3,0c-1.1,0 -1.2,0.3 -1.5,1.3c-0.1,0.2 -0.1,0.4 -0.3,0.4c-0.1,0 -0.2,-0.1 -0.2,-0.2l0.2,-1.8c-0,-0.2 -0,-0.7 0.3,-0.7c1.4,0 2.8,0.1 5.1,0.1c3.3,0 4.9,-0.1 5.3,-0.1c0.4,0 0.5,0.1 0.5,0.5l0.1,1.4c0,0.2 0,0.4 -0.2,0.4c-0.7,0 0.3,-1.4 -1.5,-1.4l-2.6,0c-0.8,0 -0.7,-0.1 -0.7,0.9l0,9.2c0,1.5 1.5,0.9 1.5,1.5c0,0.1 0,0.2 -0.2,0.2c-0.4,0 -0.9,-0.1 -1.5,-0.1c-2,0 -2.4,0.1 -2.5,0.1c-0.2,0 -0.2,-0.1 -0.2,-0.2c0,-0.4 1.4,-0.3 1.4,-1.3l0,-9.4l0.2,0Zm6.9,2.5c0,-1 -1.2,-0.7 -1.2,-1c0,-0.1 0.1,-0.2 0.2,-0.2c0.5,0 1,0.1 1.5,0.1c0.4,0 0.8,-0.1 1.3,-0.1c0.2,0 0.3,0.1 0.3,0.1c-0,0.3 -1,0 -1,1l-0,2.9c-0,0.2 -0,0.2 0.2,0.2l5,0c0.1,0 0.1,-0.3 0.1,-0.4l-0,-2.6c-0,-0.9 -1,-0.7 -1,-1c-0,-0.1 -0,-0.2 0.2,-0.2c0.5,0 1.2,0.1 1.4,0.1c0.5,0 0.7,-0.1 1,-0.1c0.4,0 0.4,0.1 0.4,0.2c0,0.2 -0.9,0 -0.9,1l0,7.2c0,1 1.2,0.7 1.2,1.1l-0.1,0.2c-0.4,0 -0.8,-0.1 -1.3,-0.1c-0.9,0 -1.3,0.1 -1.5,0.1c-0.1,0 -0.3,0 -0.3,-0.2c0,-0.3 1,-0.1 1,-1l0,-3.3c0,-0.2 0.1,-0.3 -0.1,-0.3l-5,0c-0.2,0 -0.2,0.1 -0.2,0.2l0,3.4c0,0.9 1.3,0.6 1.3,1c0,0.1 -0.1,0.1 -0.2,0.1c-0.2,0 -1.2,-0.1 -1.9,-0.1c-1,0 -1.1,0.1 -1.2,0.1c-0.1,0 -0.1,-0.1 -0.1,-0.2c0,-0.4 1.1,0.1 1.1,-1.3l0,-6.9l-0.2,0Zm11.2,2.8c0,0.5 0,0.5 0.5,0.5l1.5,0c1.4,0 1,-1.1 1.4,-1.1c0.1,0 0.2,0.1 0.2,0.3l0,2.5c0,0.1 -0.1,0.2 -0.2,0.2c-0.4,0 0,-1.2 -1.1,-1.2l-2,0c-0.3,0 -0.2,0.2 -0.2,0.4l0,2.5c0,0.8 -0.1,1.1 1,1.1c3.1,0 3.6,-1.4 3.8,-1.4c0.1,0 0.1,0.1 0.1,0.2c-0,0.5 -0.4,1 -0.7,1.3c-0.4,0.5 -0.7,0.5 -1.3,0.5c-1,0 -2.1,-0.1 -3.1,-0.1c-0.5,0 -1.1,0.1 -1.7,0.1c-0.1,0 -0.2,0 -0.2,-0.1c-0,-0.2 0.2,-0.1 0.6,-0.4c0.4,-0.2 0.4,-0.5 0.4,-1.2l-0,-6.2c-0,-0.6 -0,-1.3 -0.7,-1.4c-0.1,0 -0.4,-0.1 -0.4,-0.2c-0,-0.1 0.1,-0.2 0.5,-0.2c2.6,0 3.3,0.1 3.8,0.1c0.3,0 1.5,-0.1 1.9,-0.1c0.1,0 0.1,0.1 0.1,0.3c-0,1.5 -0.2,1.6 -0.3,1.6c-0.3,0 -0.1,-0.7 -0.3,-1c-0.4,-0.5 -1.8,-0.4 -2.3,-0.4c-1.3,0 -1.3,-0.1 -1.3,0.9l0,2.5Zm18.5,3.7c1.3,2 2.2,1.3 2.2,1.8c0,0.2 -1,0.2 -1.2,0.2c-1.3,0 -2,-0.9 -2.7,-2l-2,-3.2c-0.7,-1 -0.4,-1 -2.4,-1c-0.6,0 -0.5,0.3 -0.5,0.5l0,3.8c0,1.6 1.9,1 1.9,1.6c0,0.2 -0.2,0.1 -0.3,0.1c-0.2,0 -0.6,-0.1 -2.1,-0.1c-0.7,0 -1.4,0.1 -2.1,0.1c-0.1,0 -0.2,-0.1 -0.2,-0.2c0,-0.5 1.3,-0.2 1.3,-1.6l0,-9.2c0,-1.7 -1.6,-1 -1.6,-1.6c0,-0.1 0.1,-0.2 0.4,-0.2c0.3,0 0.2,0.1 1.2,0.1c1.1,0 2.1,-0.1 3,-0.1c0.3,0 4.3,-0.4 4.3,3.1c0,1.4 -1,2.6 -2.3,3.1l3.1,4.8Zm-6.6,-4.9c0,0.3 1.1,0.3 2,0.3c0.8,0 2.5,-0.3 2.5,-2.6c0,-2.2 -1.7,-3 -3.5,-3c-0.7,0 -1,0 -1,0.7l0,4.6Zm10.2,-1.6c0,-1 -1.1,-0.7 -1.1,-1c0,-0.1 0,-0.2 0.1,-0.2c0.5,0 1,0.1 1.5,0.1c0.4,0 0.8,-0.1 1.3,-0.1c0.2,0 0.3,0 0.3,0.1c0,0.3 -1,0 -1,1l0,7.3c0,0.9 1.2,0.6 1.2,1c0,0.1 0,0.1 -0.3,0.1c-0.3,0 -0.9,-0.1 -1.5,-0.1c-0.8,0 -1.1,0.1 -1.3,0.1c-0.2,0 -0.3,-0.1 -0.3,-0.2c0,-0.4 1.1,0.1 1.1,-1.3l0,-6.8Zm6.4,0.2c0,-0.1 0.1,-0.6 -0.1,-0.6l-2.2,0c-0.8,0 -0.9,0.2 -1.1,1c0,0.1 -0.1,0.3 -0.2,0.3c-0.1,0 -0.1,-0.1 -0.1,-0.2l0.2,-1.3c0,-0.2 0,-0.5 0.2,-0.5c1.1,0 2.1,0.1 3.9,0.1c2.5,0 3.7,-0.1 4,-0.1c0.3,0 0.4,0.1 0.4,0.4l0.1,1.1c0,0.1 0,0.3 -0.2,0.3c-0.5,0 0.2,-1 -1.2,-1l-1.9,0c-0.6,0 -0.5,-0.1 -0.5,0.7l0,6.9c0,1.1 1.1,0.7 1.1,1.1c0,0 0,0.2 -0.1,0.2c-0.3,0 -0.7,-0.1 -1.1,-0.1c-1.5,0 -1.8,0.1 -1.9,0.1c-0.1,0 -0.2,0 -0.2,-0.2c0,-0.3 1.1,-0.2 1.1,-1l0,-7.2l-0.2,0Zm7.3,7.1c-0.2,0.2 -0.2,0.4 -0.2,0.4c0,0.2 0.2,0.2 0.5,0.2l2.5,0c1.8,0 1.7,-0.9 2.2,-0.9c0.1,0 0.1,0.1 0.1,0.2l-0.5,0.9c-0.2,0.3 -0.4,0.3 -0.7,0.3l-5.6,0c-0.1,0 -0.2,-0.1 -0.2,-0.2c0,-0.1 0.1,-0.2 0.1,-0.3l4.8,-8c0.1,-0.2 0.2,-0.4 0.2,-0.4c0,-0.1 -0.1,-0.1 -0.1,-0.1l-2.9,0c-1.9,0 -1.4,1.4 -1.9,1.4c-0.1,0 -0.2,-0.1 -0.2,-0.2l0.2,-1.4c0.1,-0.4 0.1,-0.4 0.5,-0.4l5.3,0c0.3,0 0.4,0.1 0.4,0.2c0,0.2 -0.1,0.3 -0.1,0.4l-4.4,7.9Zm8.6,-3.9c0.2,-0.1 0.5,-0.2 0.6,-0.2c0.2,0 0.2,0.3 0.2,0.4c0,0.7 0.1,0.6 -0.5,0.8l-2.8,1c-0.2,0.1 -0.5,0.2 -0.6,0.2c-0.2,0 -0.2,-0.3 -0.2,-0.4c0,-0.7 -0.1,-0.7 0.5,-0.9l2.8,-0.9Zm8.4,-7.9c3.4,0 4.3,1.4 4.9,1.4c0.1,0 0.3,-0.2 0.4,-0.2c0.2,0 0.2,0.3 0.3,1.5c0,1 0.2,1.6 -0.1,1.6c-0.2,0 -0.3,-0.5 -0.4,-0.6c-1.1,-1.9 -2.4,-3.1 -4.8,-3.1c-3.5,0 -5.2,2.4 -5.2,5.7c0,3.2 1.8,6.3 5.3,6.3c2.8,0 4.6,-1.8 4.9,-2.6c0,-0.1 0.1,-0.2 0.3,-0.2c0.1,0 0.2,0.1 0.2,0.2l-0.4,1.8c0,0.1 -1.3,1.4 -5.4,1.4c-3.7,0 -6.4,-2.6 -6.4,-6.3c-0.1,-3.8 2.6,-6.9 6.4,-6.9m12.4,9.8c-0.1,-0.3 -0.2,-0.5 -0.6,-0.5l-3,0c-0.3,0 -0.5,0 -0.6,0.3l-0.9,1.9c0,0.1 -0.1,0.3 -0.1,0.5c0,1 1,0.5 1,0.9c0,0.2 -0.2,0.2 -0.4,0.2c-0.4,0 -0.8,-0.1 -1.1,-0.1c-0.4,0 -0.7,0.1 -1.1,0.1c-0.1,0 -0.1,-0.1 -0.1,-0.2c0,-0.3 0.6,-0.1 1,-0.8l3.2,-6.9c0.8,-1.7 0.8,-1.9 1,-1.9c0.2,0 0.2,0.4 0.3,0.5l2.8,7c0.2,0.5 0.4,1.1 0.7,1.6c0.4,0.6 1.2,0.3 1.2,0.7c0,0.1 -0.1,0.1 -0.2,0.1c-0.6,0 -1.1,-0.1 -1.7,-0.1c-0.4,0 -0.7,0.1 -1.1,0.1c-0.1,0 -0.3,0 -0.3,-0.1c0,-0.3 0.8,-0.2 0.8,-0.7c0,-0.3 -0.3,-0.9 -0.4,-1.3l-0.4,-1.3Zm-3.7,-1.4c-0.1,0.2 0,0.2 0.2,0.2l2.7,0c0.3,0 0.3,-0.1 0.2,-0.3l-1.3,-3.3c-0.1,-0.2 -0.1,-0.2 -0.2,0l-1.6,3.4Zm14.2,3.1c1,1.5 1.6,1 1.6,1.3c0,0.2 -0.8,0.2 -0.9,0.2c-1,0 -1.5,-0.7 -2,-1.5l-1.5,-2.4c-0.5,-0.8 -0.3,-0.7 -1.8,-0.7c-0.4,0 -0.4,0.2 -0.4,0.4l0,2.9c0,1.2 1.4,0.7 1.4,1.2c0,0.1 -0.1,0.1 -0.2,0.1c-0.1,0 -0.4,-0.1 -1.6,-0.1c-0.5,0 -1,0.1 -1.6,0.1c-0.1,0 -0.1,-0.1 -0.1,-0.2c0,-0.3 1,-0.1 1,-1.2l0,-6.9c0,-1.3 -1.2,-0.7 -1.2,-1.2c0,-0.1 0.1,-0.2 0.3,-0.2c0.2,0 0.2,0.1 0.9,0.1c0.8,0 1.6,-0.1 2.3,-0.1c0.2,0 3.2,-0.3 3.2,2.4c0,1.1 -0.8,2 -1.7,2.4l2.3,3.4Zm-4.9,-3.7c0,0.3 0.8,0.2 1.5,0.2c0.6,0 1.9,-0.2 1.9,-1.9c0,-1.7 -1.3,-2.2 -2.6,-2.2c-0.5,0 -0.8,0 -0.8,0.5l-0,3.4Zm8.7,3.5c0,0.8 -0.1,1.1 1,1.1c3.1,0 3.6,-1.4 3.8,-1.4c0.1,0 0.1,0.1 0.1,0.2c-0,0.5 -0.4,1 -0.7,1.3c-0.4,0.5 -0.7,0.5 -1.3,0.5c-1,0 -2.1,-0.1 -3.1,-0.1c-0.5,0 -1.1,0.1 -1.7,0.1c-0.1,0 -0.2,0 -0.2,-0.1c-0,-0.2 0.2,-0.1 0.6,-0.4c0.4,-0.2 0.4,-0.5 0.4,-1.2l-0,-6.9c-0,-0.7 -1.1,-0.6 -1.1,-0.9c-0,-0.1 0.1,-0.2 0.3,-0.2c0.3,0 0.7,0.1 1.4,0.1c0.8,0 1.1,-0.1 1.3,-0.1c0.2,0 0.3,0 0.3,0.2c0,0.3 -1,0 -1,1.2l0,6.6l-0.1,0Zm7.2,-6.6c-0,-0.1 0.1,-0.6 -0.1,-0.6l-2.2,0c-0.8,0 -0.9,0.2 -1.1,1c-0,0.1 -0.1,0.3 -0.2,0.3c-0.1,0 -0.1,-0.1 -0.1,-0.2l0.2,-1.3c-0,-0.2 -0,-0.5 0.2,-0.5c1.1,0 2.1,0.1 3.9,0.1c2.5,0 3.7,-0.1 4,-0.1c0.3,0 0.4,0.1 0.4,0.4l0.1,1.1c-0,0.1 -0,0.3 -0.2,0.3c-0.5,0 0.2,-1 -1.2,-1l-1.9,0c-0.6,0 -0.5,-0.1 -0.5,0.7l0,6.9c0,1.1 1.1,0.7 1.1,1.1c0,0 0,0.2 -0.1,0.2c-0.3,0 -0.7,-0.1 -1.1,-0.1c-1.5,0 -1.8,0.1 -1.9,0.1c-0.1,0 -0.2,0 -0.2,-0.2c0,-0.3 1.1,-0.2 1.1,-1l0,-7.2l-0.2,0Zm5.1,3.4c-0,-2.8 2.2,-4.9 5,-4.9c2.8,0 4.9,2 4.9,4.8c-0,3.1 -2.1,5 -5.1,5c-3,0.1 -4.8,-2 -4.8,-4.9m1,-0.4c-0,2.5 1.6,5 4.3,5c2,0 3.6,-1.6 3.6,-4.1c-0,-2.5 -1.7,-4.9 -4.3,-4.9c-2.3,0 -3.6,1.9 -3.6,4m10.4,-1.6c-0,-2.8 -1.6,-2 -1.6,-2.5c-0,-0.1 0.1,-0.1 0.2,-0.1c0.2,0 0.4,0.1 0.6,0.1c0.2,0 0.4,-0.1 0.6,-0.1c0.2,0 0.3,0.2 0.4,0.3l6.5,7.2c0.1,0.1 0.1,0.2 0.2,0.2l-0,-5.9c-0,-1.8 -1.5,-1.3 -1.5,-1.7c-0,-0.1 0.1,-0.1 0.1,-0.1c0.4,0 0.8,0.1 1.2,0.1c0.5,0 1,-0.1 1.4,-0.1c0.1,0 0.1,0 0.1,0.1c-0,0.4 -0.8,0.1 -0.8,1.1l-0,7.9c-0,0.4 -0,0.6 -0.1,0.6c-0.1,0 -0.2,-0.1 -0.5,-0.4l-5.8,-6.6c-0,0 -0.2,-0.3 -0.3,-0.3c-0.1,0 -0.1,0 -0.1,0.3l-0,5.6c-0,1.2 1.2,0.7 1.2,1.1c-0,0.1 -0,0.2 -0.1,0.2c-0.3,0 -0.7,-0.1 -1.4,-0.1c-0.5,0 -1.2,0.1 -1.3,0.1c-0.2,0 -0.2,-0.1 -0.2,-0.2c-0,-0.5 1.2,0.1 1.2,-1.8l-0,-5Z" style="fill:#c3b09e;fill-rule:nonzero;"/></g><path d="M140.1,87.475c2,0 3.5,1.6 3.5,3.5c0,1.9 -1.6,3.5 -3.5,3.5c-2,0 -3.5,-1.6 -3.5,-3.5c0,-1.9 1.6,-3.5 3.5,-3.5m-0.7,3.2l0.9,0c0.5,0 0.8,-0.2 0.8,-0.6c0,-0.4 -0.3,-0.7 -0.8,-0.7l-0.9,0l0,1.3Zm0.7,3.4c1.7,0 3.1,-1.4 3.1,-3.1c0,-1.7 -1.4,-3.1 -3.1,-3.1c-1.7,0 -3.1,1.4 -3.1,3.1c0,1.7 1.4,3.1 3.1,3.1m-1.4,-1.2l0,-4.1l1.6,0c1.1,0 1.6,0.5 1.6,1.2c0,0.6 -0.4,1 -0.9,1.1l0.9,1.8l-0.8,0l-0.8,-1.7l-0.8,0l0,1.7l-0.8,0Z" style="fill:#c3b09e;fill-rule:nonzero;"/><path d="M98,49.875c-0.9,0.1 -0.7,1.1 -1.5,1.4c-0.6,0.4 -1.6,0.6 -2.2,0.3c-1.9,-0.4 -2.9,-2.5 -3.4,-4.1c-1.3,-4.9 4.7,-7.6 3.4,-12.6c1.5,-3 3.5,-6 2.5,-9.7c-0.3,-1 -0.9,-2 -0.8,-3.1c0.3,0 0.8,0.2 1,-0.1c0.6,-2.1 -1.5,-3.5 -2.7,-5.1c-0.4,-0.6 0.4,-0.7 0.8,-0.9c0.2,-0.5 -0.6,-0.9 -0.9,-1.3c-2,-2.3 -0.9,-5.8 -2.5,-8.2c-1.2,-1.8 -3.2,-2.2 -5.2,-2.3c-1.9,-0.7 -2.6,-3.1 -4.5,-4c-1.3,-0.7 -2.2,0.9 -3.3,1.2c-2,0.9 -4.2,0.2 -6.3,0.2c-1.5,0.2 -2.6,1.7 -3.6,2.6c-2.5,0.2 -4.7,0.4 -7,1c-1.6,0.2 -1.8,1.9 -2.6,3.1l-4.2,2.1c-1.5,1 -3.4,1.5 -4.4,3.2c-0.8,1.2 0.6,2.1 1.1,3c0.6,1.6 0.4,4.1 2.8,4.7c0.6,0.7 1.6,1.3 1.6,2.3c-0.9,0.4 -2,-0.5 -2.9,-0.6c-1.4,-0.3 -2.8,0.2 -3.4,1.4c-0.1,0.6 -0.3,1.5 0.3,2c0.4,0.2 0.9,0 1,-0.2c1.2,-0.8 2.6,0 3.7,0.4c1.7,0.6 1.2,2.8 2.2,3.9c0.4,0.8 1.5,0.9 1.3,1.6c-1,1.5 -1.8,3 -2.6,4.5c-1.5,3.9 -0.1,9.2 -2,13c-0.9,1.9 -2.8,2.5 -4.6,2.7c-2.1,0.4 -3.6,-1.2 -4.7,-2.9c-0.3,-0.2 -0.8,0.1 -1,0.5c-0.8,1.4 -0.9,3.4 -0.2,4.8c1.3,2.7 4.2,4.4 7,4.4c3.7,0.3 6.7,-1.1 9.7,-2.7c4,-0.1 7.9,-1.2 10.8,-4.4l0.8,0c3.3,3.5 7.9,4.8 12.6,4.8l2.9,1.4c3,1.3 6.6,1.2 9.5,-0.5c1,-0.7 1.9,-1.9 2.1,-3.1c0.6,-1.7 0.3,-3.5 -0.6,-4.7m-10.1,-41.3c0.8,-0.1 1.5,0.5 2.1,1c1,1.1 1.1,2.3 1.1,3.6c-0.3,0.4 -0.7,0 -1,-0.2c-1.3,-1.2 -2,-2.7 -2.9,-4c0.2,-0.2 0.5,-0.3 0.7,-0.4m-15,-5.2c0.3,-0.3 1.1,-0.4 1.3,0c-0.2,0.6 -0.9,0.8 -1.3,0.6c-0.2,-0.2 -0.2,-0.4 -0,-0.6m-17.3,17.2c-0.1,-0.4 -0,-0.8 0.3,-1c0.5,-0.1 0.8,0.2 0.8,0.6l-0,1.1c-0.4,0.1 -1,-0.3 -1.1,-0.7m-2.8,4.4l-1.7,-0.1c-0.3,-0.4 0.2,-0.8 0.7,-0.9c1.9,-0.7 3.4,0.8 5.2,0.9c0.1,0.1 0.1,0.3 0.1,0.6c-1.5,1 -2.9,-0.5 -4.3,-0.5m14.1,25.9c0.1,0.7 -1,1 -1.5,1.4c-0.8,0.5 -1.6,0.6 -2.4,0.6c0.1,-0.7 0.9,-1.3 1.1,-2c1.5,-3.6 -0.8,-8.2 1.4,-11.5c0.3,-0.5 0.8,-1.2 1.4,-1.6c0.3,0.8 -0,1.6 0.2,2.5c0.7,2.7 0.9,6.5 -0.8,8.8c-0.4,0.5 -0.9,1.3 -1.1,2c0.6,0.4 1.1,-0.3 1.7,-0.2m12.8,1c-2.9,0.2 -5.4,-0.7 -7.2,-3c-2.1,-3 -3.2,-6.7 -2.6,-10.5c0.1,-0.7 0.2,-1.3 0.4,-2c0.5,-1.6 1.2,-3 1.8,-4.6c-0.1,-0.1 -0.1,-0.4 -0.3,-0.5c-2.9,1.8 -6.2,3 -8.2,6.2c-0.2,0.3 -0.3,0.6 -0.5,0.9c-1,2.4 -1.2,5.2 -2,7.5c-0.4,-0.6 -0.1,-1.3 -0.3,-2.1c-0.1,-1.8 -0.2,-3.7 -0,-5.4c0.3,-2.4 1.2,-4.6 3.4,-6.2c6.5,-3.9 14.6,-4.8 19.6,-11.4c1.2,-2 1.1,-5 -0.2,-6.8c-1.9,-2.9 -5.4,-4.1 -8.8,-3.8c-0.3,0 -0.2,0.4 -0.2,0.5c0.8,1 2.3,1.5 2,2.8c2.1,1 5,2.4 4.8,5.2c0.2,2.7 -2.3,4.5 -4.1,6.2c-5.1,3.6 -11.3,3.4 -16.3,7.2c-2,1.7 -2.4,4 -2.6,6.4c-0,0.9 -0,1.8 -0.1,2.7c-0.1,5 1.3,10.3 -2.9,13.7c-0.4,0.5 0.4,0.8 0.1,1.1c-1.9,1.5 -4.7,1.3 -7,0.8c-0.8,-0.5 -1.9,-1.4 -2.2,-2.4c1.4,0.3 3,1 4.7,0.6c1.6,-0.2 3.5,-0.9 4.5,-2.7c1.9,-3.2 0.6,-7.4 1.1,-11.1c0.2,-0.9 0.3,-1.8 0.6,-2.7c0.7,-2.7 1.9,-5.3 4.4,-7.2c4.3,-3.3 9.2,-5.3 14.2,-6.7c2.5,-0.9 1.9,-3.6 2.6,-5.3c0.2,-0.8 1.4,-1.7 0.4,-2.3l-4.9,1.5c-0.8,0.7 -1.6,1.8 -1.8,2.8c1.1,0.5 2.9,-0.4 3.3,1c0.1,0.7 -0.7,0.9 -1.1,1.2c-1.8,0.2 -4.3,0.1 -6.3,0.2c-1.9,0.7 -4.5,1.9 -4.9,4.3c-0.4,0.8 -0.9,1.9 -2,2.2c-1.3,0 -2.8,0 -3.5,-1.2c0.1,-0.7 -0.4,-1.2 -0.1,-1.8c2.4,-0.7 4.2,-2.4 6,-4c1,-0.4 2.2,-0.6 3.4,-0.8c0.5,-0.2 0.5,-0.9 0.2,-1.3c-1.7,-1.3 -3.3,-2.9 -4.9,-4.6c-1.1,-0.8 -2,0.6 -3,0.9l-3,0.8c-0.9,0 -1.5,2 -2.3,0.8c-0.1,-1.1 -0.9,-2.1 -0.4,-3.1c0.3,-0.6 1.2,-1.3 0.6,-2.1c-0.6,0.2 -1.2,0.9 -2,0.8c-0.4,-0.4 -0.1,-0.9 0.1,-1.3c0.8,-1 2.1,-1.4 3.2,-2c1.7,-0.7 3.4,-1.5 5,-2.4c0.2,0.7 0.6,1.6 1.4,1.7c0.6,-0.1 0.8,0.3 0.8,0.9c1.1,0.7 2,-0.4 2.9,-0.9c0.3,-0.1 0.4,-0.4 0.3,-0.7l-1.6,0.2c0.2,-0.6 1,-0.7 1,-1.3c-0.5,-0.4 -1,0.2 -1.4,-0.1c-0.1,-0.3 -0.2,-0.7 -0.1,-1c0.6,-0.6 1.7,0.1 2.2,-0.4c-0.7,-0.8 -2.1,-1 -3.1,-0.8l-1.5,0.7c0.6,-2 3,-1.5 4.6,-2c2.8,0 5.8,-0.1 8.2,0.9c1.1,0.9 2.4,1.5 3.2,2.6c0.3,0.2 0.8,0.2 1.2,-0.1c0.7,-1.2 -1.1,-1.6 -1.7,-2.5c-0.5,-0.6 -0.2,-1.5 0.3,-2.1c1.1,-1.2 2.5,-1.9 4,-2.6c1.6,0.2 2.4,2 3,3.3c0.8,1.5 -1.1,2.6 -0.6,4.1c2,2.9 6.2,3.8 6.7,7.6c0.7,3.2 3.4,6.1 1.7,9.5c-2.2,2.9 -5.5,4.8 -8.5,6.4l-0,-0.4c2.8,-4.5 9,-8 6.9,-13.9c-1.3,-3.2 -4.2,-7.1 -7.8,-7.4c-0.3,0.1 -0.2,0.5 -0.1,0.7c2,2.2 4.3,4.4 4.6,7.4c0.2,2 -0,4 -1,5.7c-0.5,-0.7 0.3,-2.5 -0.9,-2.4c-2.7,4.8 -6.9,9 -8.9,14.2l-0.3,0.1c-0.3,-0.7 -0.3,-1.6 -0.1,-2.4c0.6,-2.6 2.3,-4.9 3.6,-7.2c-0.6,-0.4 -1,0.3 -1.5,0.6c-3.6,2.7 -6.6,6.6 -6.7,11.1c-0,0.6 -0,1.1 0.1,1.7c0.2,0.6 0.2,1.5 0.8,1.8c0.7,-0.2 0.2,-1.3 0.6,-1.8c1.1,2.4 1.3,5.4 3.3,7.4c1.5,1.7 3.2,3 5,3.8c-0.3,0.5 -0.9,0.6 -1.3,0.6m-20.3,-26.9c0.1,0.3 -0.1,0.7 -0.4,0.8c-0.7,0 -0.8,-0.7 -1,-1.2c0.5,-0.7 1.2,0 1.4,0.4m0.7,-2.8c0.3,-0.1 0.7,-0.3 1,-0.1c-0.1,0.6 -0.7,1.1 -1.3,1.5l-0.5,-0.2c-0.3,-0.4 0.2,-1 0.8,-1.2m33.5,33c-3,1 -5.7,-0.8 -7.7,-2.9c-3.3,-3.6 -4.2,-8.7 -2.7,-13.3c-0.1,-0.5 -0.7,-0.2 -0.9,0.1c-1.3,1.6 -1.4,3.6 -1.8,5.5c-0.6,0.2 -0.9,-0.7 -1,-1c-0.4,-1.8 -0.6,-4.3 1,-5.7c3.7,-2.8 8.3,-3.6 11.8,-6.7c-0.2,0.9 -0.9,1.9 -1.7,2.7c-3.1,2.7 -7.2,5.6 -6.5,10.2c0.1,1 0.5,1.8 1.2,2.5c0.5,0.2 0.6,-0.4 0.9,-0.8c0.6,0.6 0.3,1.7 0.8,2.5c0.9,2.4 2.9,5.8 5.9,6l1.8,0c0.2,0.5 -0.6,0.6 -1.1,0.9m-13.9,-50.8c-0,0.8 0.4,1.3 1,1.6c0.6,0.3 1.2,-0.2 1.3,-0.8c0.3,-0.4 0.1,-1.4 0.9,-1.2c0.6,0.5 0.4,1.4 0.3,2c-0.4,1.2 -1.6,1.5 -2.6,1.9c-1.4,0.2 -2.9,-0.7 -3.6,-2c-0.1,-0.8 0.1,-1.6 0.8,-2.1c0.7,-0.3 1.2,-1 2.1,-1c0.6,0.6 -0.3,1 -0.2,1.6m-23.2,7.8c-0,0.7 -0.6,1.4 -1.1,1.9c-0.3,0 -0.7,-0.3 -0.8,-0.7c-0,-0.9 1.1,-1.1 1.9,-1.2m8.2,3.4l1.9,1.9l1.5,3.3c-2.2,-0.4 -2.7,-3.2 -4.7,-4c-1.3,-0.5 -0.9,-2.2 -2.3,-3c-0.3,-0.4 -0.8,-0.6 -1,-1c0.4,-0.7 1.2,-0.2 1.7,0c1.3,0.6 2.4,1.6 2.9,2.8" style="fill:#c3b09e;fill-rule:nonzero;"/><path d="M98.8,56.975c-1.6,1.3 -3.1,2.6 -4.9,3.2c-0.8,0.8 0.9,1.2 0.6,2.2c-0.2,0.7 -0.9,0.9 -1.6,0.7c-0.5,-0.4 -0.9,-0.9 -1.3,-1.4c-0.8,-0.2 -1.4,0.5 -1.9,1c-0.8,0.3 -0.5,1.3 -0.3,1.8c0.6,2.1 2.5,-0.1 3.4,1.3c0.6,0.7 0.3,1.5 0,2.2c-0.5,0.8 -1.4,1.6 -2.3,1.8c-1.2,0.1 -2.2,-0.3 -3,-0.9c-0.7,-0.9 -1.2,-1.7 -1.1,-2.9c-0.3,-1.6 2.1,-2.4 1.2,-4.1c-0.5,-0.7 -0.6,-1.9 -1.6,-2.1c-0.9,0.8 -2.4,1.3 -2.6,2.6c0.7,1.1 0.9,2.7 0.5,4c-1.2,1.9 -3.6,2.6 -5.8,2.3c-1.5,-0.4 -3.1,-0.9 -3.7,-2.4c-0.3,-1 0.1,-1.9 0.9,-2.6c0.7,-0.4 1.6,-0.6 2.4,-0.3c0.8,0.1 1.1,1 2,0.9c0.9,-0.5 1.8,-1.5 2,-2.6c-0.4,-0.9 -1.2,-2 -2.2,-2.5c-1,0.7 -1.9,1.7 -3.1,1.9c-0.6,0.1 -1.5,0 -2,-0.6c-0.9,-0.7 0,-1.5 0.2,-2.2c0.5,-0.6 1.5,-0.5 1.9,-1.1c-1.7,-1.2 -3.3,-2.4 -4.6,-4.2c-1.1,-0.2 -1.7,1.1 -2.5,1.7c-0.9,1 -2.1,1.5 -2.9,2.5c0.6,0.5 1.6,0.4 2.2,1.1c0.4,0.5 0.6,1.1 0.4,1.7c-0.4,0.6 -1.1,1 -1.7,1c-1.3,-0.1 -2.4,-0.5 -3.2,-1.5c-1.2,-0.2 -1.4,1.3 -2.3,2.1c-0.1,1 1,1.8 1.8,2.6c1.1,0.6 1.7,-1.2 2.9,-1.3c0.7,0 1.5,0.3 2.1,0.8c0.6,0.8 0.9,1.6 0.7,2.5c-0.6,1.7 -2.4,2 -4,2.3c-2.3,0 -5.5,0 -6.4,-2.5c-0.8,-1.5 0.3,-2.6 0.4,-4c-0.7,-0.8 -1.6,-2 -2.8,-1.8c-0.5,0.8 -1.4,1.5 -1.4,2.6c0.8,1.4 1.9,2.8 1.4,4.5c-0.3,0.8 -1,1.7 -1.8,2c-1.8,0.3 -3.9,0.4 -4.8,-1.3c-0.4,-0.7 -0.3,-1.5 0.4,-2.1c0.4,-0.5 1.5,-0.4 2,-0.2c1,-0.3 1.4,-1.4 1.5,-2.3c-0.5,-0.8 -1.4,-1.3 -2.1,-1.6c-0.9,0.3 -1.2,1.4 -2.1,1.6c-0.4,0.1 -0.9,0.1 -1.2,-0.5c-0.6,-1.2 1.6,-1.7 0.8,-2.7c-2,-0.6 -3.8,-1.9 -5.5,-3.2l-0.2,0.2c1.9,4 4,7.9 5.6,12.2c0.6,1 -0.1,1.1 -0.2,2.6c0.1,2.3 1.9,3.9 1.7,7c0.2,0.9 -0.2,1.5 -0.2,2.5c0,0.8 0.5,1.4 1,1.4l39.4,0c1,0 1.6,-0.8 1.3,-1.6c-0.4,-1.1 -0.2,-1.8 -0.1,-2.8c0.3,-3.4 1.7,-4.2 1.6,-5.8c-0.1,-0.9 -0.2,-1 0.3,-2.6c0.7,-2.2 1.2,-3.6 2.1,-5.6c0.6,-2.6 2.2,-4.8 2.7,-7.5Zm-47.3,20c-0.1,0 -0.2,-0.1 -0.3,-0.3c-0,-0.1 0.1,-0.2 0.3,-0.2c0.1,0 0.3,0.1 0.3,0.2c-0,0.2 -0.1,0.3 -0.3,0.3m36.7,4.5l-34.7,0c-0.7,0 -1.3,-0.2 -1.2,-0.4c-0,-0.2 0.5,-0.4 1.2,-0.5l34.7,0c0.8,0 1.3,0.2 1.3,0.5c-0,0.2 -0.5,0.4 -1.3,0.4m0.8,-3.4c-0,0 0.1,1 0.9,1c0.7,0 0.9,0.4 -0,0.4c-1,0 -36.4,-0.1 -37.3,-0.1c-0.9,0 -0.6,-0.4 0,-0.4c0.7,0 0.9,-1 0.9,-0.9l0,-2.9c0,-0.7 -0.9,-1.1 -1.2,-1.1c-0.3,0 -0.3,-0.3 0,-0.3l2,0l34.1,0.1l2,0c0.3,0 0.3,0.3 0,0.4c-0.3,0 -1.3,0.4 -1.2,1.1c-0.3,0.6 -0.3,2.8 -0.2,2.7m1.8,-1c-0.2,0 -0.3,-0.2 -0.3,-0.3c0,-0.2 0.1,-0.3 0.3,-0.3c0.1,0 0.2,0.1 0.2,0.3c0,0.1 -0.1,0.2 -0.2,0.3m-0.5,-4.6l-38.2,0c-0.7,0 -1.3,-0.2 -1.3,-0.5c0,-0.3 0.6,-0.5 1.3,-0.5l38.2,0c0.7,0 1.3,0.2 1.2,0.5c0.1,0.3 -0.5,0.5 -1.2,0.5" style="fill:#c3b09e;fill-rule:nonzero;"/><path d="M54.8,75.775c-0.5,0 -1,0.4 -1,0.9c0,0.5 0.4,0.9 0.9,1c0.5,0 0.9,-0.4 0.9,-1c0.1,-0.5 -0.3,-0.9 -0.8,-0.9" style="fill:#c3b09e;fill-rule:nonzero;"/><path d="M65.6,75.775c-0.6,0 -1,0.4 -1,0.9c0,0.5 0.4,0.9 1,1c0.5,0 0.9,-0.4 0.9,-1c0,-0.5 -0.4,-0.9 -0.9,-0.9" style="fill:#c3b09e;fill-rule:nonzero;"/><path d="M87.5,75.775c-0.5,0 -1,0.4 -1,0.9c0,0.5 0.4,0.9 0.9,1c0.5,0 0.9,-0.4 0.9,-1c0.2,-0.5 -0.3,-0.9 -0.8,-0.9" style="fill:#c3b09e;fill-rule:nonzero;"/><path d="M62.5,74.075l-5.1,0c-0.7,0 -1.3,0.6 -1.2,1.3l0,2.1c0,0.7 0.5,1.3 1.2,1.2l5.1,0c0.7,0 1.3,-0.5 1.2,-1.2l-0,-2.1c0.1,-0.7 -0.5,-1.3 -1.2,-1.3m-2.5,3.8c-0.8,0 -1.4,-0.6 -1.4,-1.3c-0,-0.8 0.6,-1.4 1.4,-1.3c0.7,0 1.3,0.6 1.3,1.3c-0,0.6 -0.6,1.3 -1.3,1.3" style="fill:#c3b09e;fill-rule:nonzero;"/><path d="M73.8,74.175l-5.1,0c-0.7,0 -1.3,0.6 -1.3,1.3l0,2.1c0,0.7 0.6,1.3 1.3,1.2l5.1,0c0.7,0 1.2,-0.5 1.2,-1.2l0,-2.1c0,-0.7 -0.6,-1.2 -1.2,-1.3m-2.6,3.7c-0.7,0 -1.3,-0.6 -1.3,-1.3c0,-0.8 0.6,-1.4 1.3,-1.3c0.8,0 1.4,0.6 1.3,1.3c0.1,0.7 -0.5,1.3 -1.3,1.3" style="fill:#c3b09e;fill-rule:nonzero;"/><path d="M84.8,74.275l-5.1,0c-0.7,0 -1.3,0.6 -1.3,1.3l0,2.1c0,0.7 0.6,1.3 1.3,1.2l5.1,0c0.7,0 1.2,-0.5 1.2,-1.2l0,-2.1c0,-0.7 -0.6,-1.2 -1.2,-1.3m-2.6,3.7c-0.8,0 -1.4,-0.6 -1.3,-1.3c0,-0.8 0.6,-1.4 1.3,-1.3c0.7,0 1.3,0.6 1.3,1.3c0,0.7 -0.6,1.3 -1.3,1.3" style="fill:#c3b09e;fill-rule:nonzero;"/><path d="M76.7,75.775c-0.6,0 -1,0.4 -1,0.9c-0,0.5 0.4,0.9 1,1c0.5,0 0.9,-0.4 0.9,-1c-0,-0.5 -0.4,-0.9 -0.9,-0.9" style="fill:#c3b09e;fill-rule:nonzero;"/></g></svg>