<?xml version="1.0" encoding="UTF-8" standalone="no"?>
<!DOCTYPE svg PUBLIC "-//W3C//DTD SVG 1.1//EN" "http://www.w3.org/Graphics/SVG/1.1/DTD/svg11.dtd">
<svg width="100%" height="100%" viewBox="0 0 224 42" version="1.1" xmlns="http://www.w3.org/2000/svg" xmlns:xlink="http://www.w3.org/1999/xlink" xml:space="preserve" xmlns:serif="http://www.serif.com/" style="fill-rule:evenodd;clip-rule:evenodd;stroke-linejoin:round;stroke-miterlimit:2;">
    <path d="M208.275,40.122C212.093,40.122 214.916,39.353 217.159,37.701C220.319,35.287 222.177,31.531 222.177,27.555C222.177,23.578 220.319,19.822 217.159,17.408C214.914,15.755 212.092,14.986 208.274,14.986L201.991,14.986L201.991,40.122L208.275,40.122ZM200.586,41.43L200.586,13.678L208.353,13.678C212.507,13.678 215.47,14.485 217.958,16.296C221.495,18.954 223.579,23.129 223.579,27.553C223.579,31.977 221.495,36.152 217.958,38.81C215.467,40.622 212.505,41.43 208.352,41.43L200.586,41.43ZM183.385,26.834C184.891,26.953 186.388,26.508 187.585,25.587C188.712,24.496 189.363,23.002 189.395,21.434L189.395,20.527C189.395,18.908 188.739,17.356 187.578,16.227C186.381,15.307 184.883,14.864 183.378,14.984L175.478,14.984L175.478,26.834L183.385,26.834ZM192.546,41.427L181.201,28.142L175.49,28.142L175.49,41.434L174.09,41.434L174.09,13.677L183.468,13.677C185.237,13.565 186.99,14.085 188.413,15.142C189.946,16.51 190.818,18.474 190.804,20.529L190.804,21.45C190.783,23.452 189.913,25.355 188.413,26.681C186.99,27.738 185.238,28.257 183.469,28.145L182.957,28.145L194.302,41.43L192.546,41.427ZM135.615,41.434L135.615,28.145L116.215,28.145L116.215,41.434L114.815,41.434L114.815,13.678L116.215,13.678L116.215,26.834L135.615,26.834L135.615,13.678L137.015,13.678L137.015,41.434L135.615,41.434ZM98.314,41.817C94.687,41.947 91.258,40.117 89.345,37.033L89.175,36.791L90.308,35.952L90.487,36.23C92.141,38.969 95.155,40.608 98.353,40.509C102.712,40.509 104.992,37.464 104.992,34.455C104.992,31.86 103.666,30.08 100.692,28.681C99.885,28.316 98.992,27.981 98.129,27.653C94.4,26.244 90.545,24.788 90.545,20.302C90.545,15.193 95.261,13.289 98.234,13.289C100.816,13.244 103.307,14.257 105.126,16.089L105.337,16.297L104.401,17.297L104.175,17.063C102.629,15.444 100.472,14.549 98.234,14.598C98.098,14.589 97.963,14.584 97.827,14.584C94.662,14.584 92.035,17.139 91.948,20.303C91.948,23.939 95.174,25.142 98.589,26.416C99.442,26.734 100.324,27.063 101.149,27.432C103.399,28.402 106.395,30.187 106.395,34.457C106.395,38.727 102.995,41.819 98.313,41.819M57.317,41.434L57.317,13.678L72.068,13.678L72.068,14.986L58.72,14.986L58.72,26.834L69.32,26.834L69.32,28.142L58.72,28.142L58.72,40.118L72.461,40.118L72.461,41.434L57.317,41.434ZM47.7,41.434L47.7,28.145L28.3,28.145L28.3,41.434L26.9,41.434L26.9,13.678L28.3,13.678L28.3,26.834L47.7,26.834L47.7,13.678L49.1,13.678L49.1,41.434L47.7,41.434ZM8.637,41.433L8.637,14.986L0,14.986L0,13.678L18.676,13.678L18.676,14.986L10.039,14.986L10.039,41.433L8.637,41.433ZM165.622,41.43L162.198,28.147L149.318,28.147L145.892,41.43L144.445,41.43L155.137,0L156.579,0L149.679,26.766L161.848,26.766L156.748,6.958L158.195,6.958L167.074,41.429L165.622,41.43Z" style="fill-rule:nonzero;"/>
    <clipPath id="_clip1">
        <path d="M208.275,40.122C212.093,40.122 214.916,39.353 217.159,37.701C220.319,35.287 222.177,31.531 222.177,27.555C222.177,23.578 220.319,19.822 217.159,17.408C214.914,15.755 212.092,14.986 208.274,14.986L201.991,14.986L201.991,40.122L208.275,40.122ZM200.586,41.43L200.586,13.678L208.353,13.678C212.507,13.678 215.47,14.485 217.958,16.296C221.495,18.954 223.579,23.129 223.579,27.553C223.579,31.977 221.495,36.152 217.958,38.81C215.467,40.622 212.505,41.43 208.352,41.43L200.586,41.43ZM183.385,26.834C184.891,26.953 186.388,26.508 187.585,25.587C188.712,24.496 189.363,23.002 189.395,21.434L189.395,20.527C189.395,18.908 188.739,17.356 187.578,16.227C186.381,15.307 184.883,14.864 183.378,14.984L175.478,14.984L175.478,26.834L183.385,26.834ZM192.546,41.427L181.201,28.142L175.49,28.142L175.49,41.434L174.09,41.434L174.09,13.677L183.468,13.677C185.237,13.565 186.99,14.085 188.413,15.142C189.946,16.51 190.818,18.474 190.804,20.529L190.804,21.45C190.783,23.452 189.913,25.355 188.413,26.681C186.99,27.738 185.238,28.257 183.469,28.145L182.957,28.145L194.302,41.43L192.546,41.427ZM135.615,41.434L135.615,28.145L116.215,28.145L116.215,41.434L114.815,41.434L114.815,13.678L116.215,13.678L116.215,26.834L135.615,26.834L135.615,13.678L137.015,13.678L137.015,41.434L135.615,41.434ZM98.314,41.817C94.687,41.947 91.258,40.117 89.345,37.033L89.175,36.791L90.308,35.952L90.487,36.23C92.141,38.969 95.155,40.608 98.353,40.509C102.712,40.509 104.992,37.464 104.992,34.455C104.992,31.86 103.666,30.08 100.692,28.681C99.885,28.316 98.992,27.981 98.129,27.653C94.4,26.244 90.545,24.788 90.545,20.302C90.545,15.193 95.261,13.289 98.234,13.289C100.816,13.244 103.307,14.257 105.126,16.089L105.337,16.297L104.401,17.297L104.175,17.063C102.629,15.444 100.472,14.549 98.234,14.598C98.098,14.589 97.963,14.584 97.827,14.584C94.662,14.584 92.035,17.139 91.948,20.303C91.948,23.939 95.174,25.142 98.589,26.416C99.442,26.734 100.324,27.063 101.149,27.432C103.399,28.402 106.395,30.187 106.395,34.457C106.395,38.727 102.995,41.819 98.313,41.819M57.317,41.434L57.317,13.678L72.068,13.678L72.068,14.986L58.72,14.986L58.72,26.834L69.32,26.834L69.32,28.142L58.72,28.142L58.72,40.118L72.461,40.118L72.461,41.434L57.317,41.434ZM47.7,41.434L47.7,28.145L28.3,28.145L28.3,41.434L26.9,41.434L26.9,13.678L28.3,13.678L28.3,26.834L47.7,26.834L47.7,13.678L49.1,13.678L49.1,41.434L47.7,41.434ZM8.637,41.433L8.637,14.986L0,14.986L0,13.678L18.676,13.678L18.676,14.986L10.039,14.986L10.039,41.433L8.637,41.433ZM165.622,41.43L162.198,28.147L149.318,28.147L145.892,41.43L144.445,41.43L155.137,0L156.579,0L149.679,26.766L161.848,26.766L156.748,6.958L158.195,6.958L167.074,41.429L165.622,41.43Z" clip-rule="nonzero"/>
    </clipPath>
    <g clip-path="url(#_clip1)">
        <path d="M8.637,41.433L8.637,14.986L0,14.986L0,13.678L18.676,13.678L18.676,14.986L10.039,14.986L10.039,41.433L8.637,41.433Z" style="fill:rgb(195,176,158);"/>
        <path d="M47.7,41.434L47.7,28.145L28.3,28.145L28.3,41.434L26.9,41.434L26.9,13.678L28.3,13.678L28.3,26.834L47.7,26.834L47.7,13.678L49.1,13.678L49.1,41.434L47.7,41.434Z" style="fill:rgb(195,176,158);"/>
        <path d="M57.317,41.434L57.317,13.678L72.068,13.678L72.068,14.986L58.72,14.986L58.72,26.834L69.32,26.834L69.32,28.142L58.72,28.142L58.72,40.118L72.461,40.118L72.461,41.434L57.317,41.434Z" style="fill:rgb(195,176,158);"/>
        <path d="M98.314,41.817C94.687,41.947 91.258,40.117 89.345,37.033L89.175,36.791L90.308,35.952L90.487,36.23C92.141,38.969 95.155,40.608 98.353,40.509C102.712,40.509 104.992,37.464 104.992,34.455C104.992,31.86 103.666,30.08 100.692,28.681C99.885,28.316 98.992,27.981 98.129,27.653C94.4,26.244 90.545,24.788 90.545,20.302C90.545,15.193 95.261,13.289 98.234,13.289C100.816,13.244 103.307,14.257 105.126,16.089L105.337,16.297L104.401,17.297L104.175,17.063C102.629,15.444 100.472,14.549 98.234,14.598C98.098,14.589 97.963,14.584 97.827,14.584C94.662,14.584 92.035,17.139 91.948,20.303C91.948,23.939 95.174,25.142 98.589,26.416C99.442,26.734 100.324,27.063 101.149,27.432C103.399,28.402 106.395,30.187 106.395,34.457C106.395,38.727 102.995,41.819 98.313,41.819L98.314,41.817Z" style="fill:rgb(195,176,158);"/>
        <path d="M135.615,41.434L135.615,28.145L116.215,28.145L116.215,41.434L114.815,41.434L114.815,13.678L116.215,13.678L116.215,26.834L135.615,26.834L135.615,13.678L137.015,13.678L137.015,41.434L135.615,41.434Z" style="fill:rgb(195,176,158);"/>
        <path d="M165.622,41.43L162.198,28.147L149.318,28.147L145.892,41.43L144.445,41.43L155.137,0L156.579,0L149.679,26.766L161.848,26.766L156.748,6.958L158.195,6.958L167.074,41.429L165.622,41.43Z" style="fill:rgb(195,176,158);"/>
        <path d="M192.546,41.427L181.201,28.142L175.49,28.142L175.49,41.434L174.09,41.434L174.09,13.677L183.468,13.677C185.237,13.565 186.99,14.085 188.413,15.142C189.946,16.51 190.818,18.474 190.804,20.529L190.804,21.45C190.783,23.452 189.913,25.355 188.413,26.681C186.99,27.738 185.238,28.257 183.469,28.145L182.957,28.145L194.302,41.43L192.546,41.427ZM183.385,26.834C184.891,26.953 186.388,26.508 187.585,25.587C188.712,24.496 189.363,23.002 189.395,21.434L189.395,20.527C189.395,18.908 188.739,17.356 187.578,16.227C186.381,15.307 184.883,14.864 183.378,14.984L175.478,14.984L175.478,26.834L183.385,26.834Z" style="fill:rgb(195,176,158);"/>
        <path d="M200.586,41.43L200.586,13.678L208.353,13.678C212.507,13.678 215.47,14.485 217.958,16.296C221.495,18.954 223.579,23.129 223.579,27.553C223.579,31.977 221.495,36.152 217.958,38.81C215.467,40.622 212.505,41.43 208.352,41.43L200.586,41.43ZM208.275,40.122C212.093,40.122 214.916,39.353 217.159,37.701C220.319,35.287 222.177,31.531 222.177,27.555C222.177,23.578 220.319,19.822 217.159,17.408C214.914,15.755 212.092,14.986 208.274,14.986L201.991,14.986L201.991,40.122L208.275,40.122Z" style="fill:rgb(195,176,158);"/>
    </g>
</svg>
