<?xml version="1.0" encoding="UTF-8" standalone="no"?><!DOCTYPE svg PUBLIC "-//W3C//DTD SVG 1.1//EN" "http://www.w3.org/Graphics/SVG/1.1/DTD/svg11.dtd"><svg width="100%" height="100%" viewBox="0 0 166 39" version="1.1" xmlns="http://www.w3.org/2000/svg" xmlns:xlink="http://www.w3.org/1999/xlink" xml:space="preserve" xmlns:serif="http://www.serif.com/" style="fill-rule:evenodd;clip-rule:evenodd;stroke-linejoin:round;stroke-miterlimit:2;"><rect x="0" y="0" width="165.6" height="38.8" style="fill:#c3b09e;fill-rule:nonzero;"/><rect x="83.9" y="9.8" width="0.7" height="19.3" style="fill:#fff;fill-rule:nonzero;"/><path d="M44.7,20.7l1.5,-3.4l1.6,3.4l-3.1,0Zm-3,3.6l1.3,0l1,-2.3l4.3,0l1,2.3l1.5,0l-4.5,-9.9l-4.6,9.9Zm-5.4,-6.7c0,-2.1 -1.5,-2.9 -4,-2.9l-2.9,-0l0,9.6l1.3,0l0,-8.4l1.5,0c2,0 2.7,0.4 2.7,1.7c0,1.4 -0.7,1.7 -2.7,1.7l-0.9,0l4,4.9l1.7,0l-3.3,-3.9c1.7,-0.2 2.6,-1 2.6,-2.7m-21.8,1.9c0,2.9 2,4.8 5.1,4.8l3.5,-0l0,-5l-1.3,-0l0,3.8l-2,-0c-2.6,-0 -3.8,-1.5 -3.8,-3.6c0,-2.1 1.2,-3.6 3.8,-3.6l3.4,-0l0,-1.2l-3.5,-0c-3.2,-0 -5.2,1.9 -5.2,4.8m47.5,1.9l-6.4,-6.9l-0,9.8l1.3,-0l-0,-6.6l6.4,6.9l0,-9.8l-1.3,-0l0,6.6Zm9.9,1.7l-1.5,-0l0,-7.2l1.5,-0c2.6,-0 3.8,1.5 3.8,3.6c0.1,2.2 -1.1,3.6 -3.8,3.6m0.1,-8.4l-2.9,-0l0,9.6l2.9,-0c3.1,-0 5.1,-1.9 5.1,-4.8c0.1,-2.9 -1.9,-4.8 -5.1,-4.8" style="fill:#fff;fill-rule:nonzero;"/><path d="M119.7,20.7l1.8,-3.6l1.7,3.6l-3.5,0Zm-3.1,3.5l1.3,0l1.1,-2.2l4.9,-0l1.1,2.2l1.4,0l-4.9,-10l-4.9,10Zm-7.5,-4.7l-3.2,-4.9l-1.5,-0l4,6.3l0,3.4l1.4,-0l0,-3.4l3.9,-6.3l-1.5,0l-3.1,4.9Zm33.5,-5l0,1.2l3.5,0l0,8.5l1.4,0l0,-8.5l3.6,0l0,-1.2l-8.5,-0Zm-12.8,1.2l3.5,0l0,8.5l1.4,0l0,-8.5l3.4,0l0,-1.2l-8.3,-0l0,1.2Z" style="fill:#fff;fill-rule:nonzero;"/><path d="M98.1,19l-5.1,-0l0,-4.5l-1.4,-0l0,9.7l1.4,-0l0,-4l5.1,-0l0,4l1.4,-0l0,-9.7l-1.4,-0l0,4.5Z" style="fill:#fff;fill-rule:nonzero;"/><path d="M153.3,16.2c-0.4,0 -0.7,-0.3 -0.7,-0.8c0,-0.5 0.3,-0.8 0.8,-0.8c0.5,0 0.8,0.3 0.8,0.8c-0.1,0.5 -0.4,0.8 -0.9,0.8m0,-1.7c-0.5,-0 -0.9,0.4 -0.9,0.9c0,0.5 0.4,0.9 0.9,0.9c0.5,-0 0.9,-0.4 0.9,-0.9c0.1,-0.5 -0.3,-0.9 -0.9,-0.9" style="fill:#fff;fill-rule:nonzero;"/><path d="M153.8,16c-0.1,-0.1 -0.3,-0.3 -0.3,-0.4c0.2,-0 0.3,-0.1 0.3,-0.3c0,-0.2 -0.1,-0.3 -0.4,-0.3l-0.3,0l0,1l0.2,0l0,-0.9l0.2,0c0.2,0 0.3,0 0.3,0.2c0,0.1 -0.1,0.2 -0.3,0.2l-0.1,0l0.4,0.5Z" style="fill:#fff;fill-rule:nonzero;"/></svg>